<svg width="36" height="45" viewBox="0 0 36 45" fill="none" xmlns="http://www.w3.org/2000/svg">
<path d="M32.25 1.5H3.75C1.67893 1.5 0 3.17893 0 5.25V41.25C0 43.3211 1.67893 45 3.75 45H32.25C34.3211 45 36 43.3211 36 41.25V5.25C36 3.17893 34.3211 1.5 32.25 1.5Z" fill="#93D3A2"/>
<path d="M32.25 0H3.75C1.67893 0 0 1.67893 0 3.75V39.75C0 41.8211 1.67893 43.5 3.75 43.5H32.25C34.3211 43.5 36 41.8211 36 39.75V3.75C36 1.67893 34.3211 0 32.25 0Z" fill="#EAF6EC"/>
<path fill-rule="evenodd" clip-rule="evenodd" d="M13.1967 15.2674C16.1256 12.2442 20.8744 12.2442 23.8033 15.2674C26.7322 18.2905 26.7322 23.192 23.8033 26.2151C22.312 27.7544 19.1873 30.7286 19.1873 30.7286C18.8067 31.0927 18.1907 31.0896 17.8091 30.7245C17.8091 30.7245 14.6343 27.699 13.1967 26.2151C10.2678 23.192 10.2678 18.2905 13.1967 15.2674ZM18.5012 17.8383C16.9479 17.8383 15.6887 19.138 15.6887 20.7412C15.6887 22.3445 16.9479 23.6442 18.5012 23.6442C20.0545 23.6442 21.3137 22.3445 21.3137 20.7412C21.3137 19.138 20.0545 17.8383 18.5012 17.8383Z" fill="#28A745"/>
</svg>
