<svg width="36" height="45" viewBox="0 0 36 45" fill="none" xmlns="http://www.w3.org/2000/svg">
<path d="M32.25 1.5H3.75C1.67893 1.5 0 3.17893 0 5.25V41.25C0 43.3211 1.67893 45 3.75 45H32.25C34.3211 45 36 43.3211 36 41.25V5.25C36 3.17893 34.3211 1.5 32.25 1.5Z" fill="#F5C3C8"/>
<path d="M32.25 0H3.75C1.67893 0 0 1.67893 0 3.75V39.75C0 41.8211 1.67893 43.5 3.75 43.5H32.25C34.3211 43.5 36 41.8211 36 39.75V3.75C36 1.67893 34.3211 0 32.25 0Z" fill="#FCEAED"/>
<path fill-rule="evenodd" clip-rule="evenodd" d="M9 17H12.155C12.8206 17 13.3242 17.1154 13.6659 17.3461C14.0076 17.5769 14.2383 17.9141 14.3581 18.3578C14.4779 18.8016 14.5378 19.405 14.5378 20.1683C14.5378 20.8871 14.4824 21.4684 14.3714 21.9122C14.2605 22.3559 14.0342 22.7042 13.6925 22.9572C13.3508 23.2101 12.8383 23.3366 12.155 23.3366H11.1299V27.1587H9V17ZM11.6092 21.5261C11.8665 21.5261 12.044 21.4995 12.1417 21.4462C12.2393 21.393 12.3058 21.2776 12.3413 21.1001C12.3768 20.9226 12.3946 20.612 12.3946 20.1683C12.3946 19.7245 12.3791 19.4139 12.348 19.2364C12.3169 19.0589 12.2504 18.9436 12.1483 18.8903C12.0463 18.8371 11.871 18.8104 11.6225 18.8104H11.1299V21.5261H11.6092ZM15.697 17H18.2796C19.2469 17 19.9369 17.1353 20.3496 17.406C20.7623 17.6767 21.0174 18.1005 21.115 18.6773C21.2127 19.2542 21.2615 20.2215 21.2615 21.5794C21.2615 22.9283 21.2127 24.8934 21.115 25.4747C21.0174 26.056 20.7623 26.482 20.3496 26.7527C19.9369 27.0234 19.2469 27.1587 18.2796 27.1587H15.697V17ZM18.2662 25.335C18.5857 25.335 18.7965 25.2928 18.8986 25.2085C19.0006 25.1242 19.0982 24.4309 19.0982 23.5762C19.0982 22.7214 19.1448 22.5733 19.1448 21.5794C19.1448 20.5943 19.1293 19.9309 19.0982 19.5892C19.0672 19.2475 18.9984 19.0345 18.8919 18.9502C18.7854 18.8659 18.5769 18.8238 18.2662 18.8238H17.8136V25.335H18.2662ZM22.6336 27.1587V17H27V18.8238H24.7636V20.8472H26.7204V22.671H24.7636V27.1587H22.6336Z" fill="#DD3646"/>
</svg>
