<svg width="36" height="46" viewBox="0 0 36 46" fill="none" xmlns="http://www.w3.org/2000/svg">
<path d="M32.25 2H3.75C1.67893 2 0 3.67893 0 5.75V41.75C0 43.8211 1.67893 45.5 3.75 45.5H32.25C34.3211 45.5 36 43.8211 36 41.75V5.75C36 3.67893 34.3211 2 32.25 2Z" fill="#FFC9B7"/>
<path d="M32.25 0H3.75C1.67893 0 0 1.67893 0 3.75V39.75C0 41.8211 1.67893 43.5 3.75 43.5H32.25C34.3211 43.5 36 41.8211 36 39.75V3.75C36 1.67893 34.3211 0 32.25 0Z" fill="#FFF1ED"/>
<path d="M24.8917 18.2001V19.2953H25.947V18.2001H24.8917ZM11.1186 19.2953V18.2001H10.0648V19.2953H11.1186ZM26.4249 17.0955C26.7425 17.0955 27 17.3614 27 17.6893V19.8059C27 20.1338 26.7425 20.3996 26.4249 20.3996H24.4029C24.0853 20.3996 23.8278 20.1338 23.8278 19.8059V19.2953H21.9514C24.3655 20.7497 25.947 23.464 25.947 26.441C25.947 26.7471 25.7144 27 25.4184 27C25.123 27 24.8916 26.7471 24.8916 26.441C24.8916 23.5638 23.1751 20.9467 20.6567 19.8521V20.7517C20.6567 21.1616 20.3348 21.4939 19.9377 21.4939H16.0744C15.6773 21.4939 15.3555 21.1616 15.3555 20.7517V19.8522C12.8256 20.9467 11.1185 23.5638 11.1185 26.4411C11.1185 26.7472 10.8867 27 10.5913 27C10.2968 27 10.0648 26.7472 10.0648 26.4411C10.0648 23.4641 11.6361 20.7497 14.0588 19.2954H12.184V19.8059C12.184 20.1339 11.9265 20.3997 11.6089 20.3997H9.57515C9.2575 20.3997 9 20.1339 9 19.8059V17.6893C9 17.3614 9.2575 17.0955 9.57515 17.0955H11.6089C11.9265 17.0955 12.184 17.3614 12.184 17.6893V18.2001H15.3555V16.7422C15.3555 16.3323 15.6774 16 16.0745 16H19.9378C20.3349 16 20.6568 16.3323 20.6568 16.7422V18.2001H23.8278V17.6893C23.8278 17.3614 24.0853 17.0955 24.4029 17.0955H26.4249Z" fill="#FF784B"/>
</svg>
