<svg width="36" height="45" viewBox="0 0 36 45" fill="none" xmlns="http://www.w3.org/2000/svg">
<path d="M32.25 1.5H3.75C1.67893 1.5 0 3.17893 0 5.25V41.25C0 43.3211 1.67893 45 3.75 45H32.25C34.3211 45 36 43.3211 36 41.25V5.25C36 3.17893 34.3211 1.5 32.25 1.5Z" fill="#D4BEF7"/>
<path d="M32.25 0H3.75C1.67893 0 0 1.67893 0 3.75V39.75C0 41.8211 1.67893 43.5 3.75 43.5H32.25C34.3211 43.5 36 41.8211 36 39.75V3.75C36 1.67893 34.3211 0 32.25 0Z" fill="#F1E9FB"/>
<path d="M27 28.75V14.75C27 13.65 26.1 12.75 25 12.75H11C9.9 12.75 9 13.65 9 14.75V28.75C9 29.85 9.9 30.75 11 30.75H25C26.1 30.75 27 29.85 27 28.75ZM14.5 23.25L17 26.26L20.5 21.75L25 27.75H11L14.5 23.25Z" fill="#7027E5"/>
</svg>
