<svg width="36" height="45" viewBox="0 0 36 45" fill="none" xmlns="http://www.w3.org/2000/svg">
<path d="M32.25 1.5H3.75C1.67893 1.5 0 3.17893 0 5.25V41.25C0 43.3211 1.67893 45 3.75 45H32.25C34.3211 45 36 43.3211 36 41.25V5.25C36 3.17893 34.3211 1.5 32.25 1.5Z" fill="#D4BEF7"/>
<path d="M32.25 0H3.75C1.67893 0 0 1.67893 0 3.75V39.75C0 41.8211 1.67893 43.5 3.75 43.5H32.25C34.3211 43.5 36 41.8211 36 39.75V3.75C36 1.67893 34.3211 0 32.25 0Z" fill="#F1E9FB"/>
<path fill-rule="evenodd" clip-rule="evenodd" d="M18 12.75C18.1185 12.75 18.2364 12.7523 18.3537 12.7568C18.3907 12.7582 18.4277 12.7598 18.4647 12.7617C18.5481 12.766 18.631 12.7714 18.7136 12.7779C18.7715 12.7823 18.8285 12.7873 18.8853 12.7929C18.9627 12.8005 19.0404 12.8091 19.1178 12.8187C19.1655 12.8246 19.2132 12.8309 19.2607 12.8376C19.4884 12.8695 19.7133 12.9099 19.935 12.9585C19.947 12.9618 19.9596 12.9646 19.9723 12.9675C23.7101 13.8028 26.5698 16.9627 26.9556 20.8503C26.9562 20.8637 26.9575 20.8773 26.9587 20.891C26.9863 21.174 27 21.4604 27 21.75C27 26.4543 23.3907 30.3156 18.7903 30.7158L18.5286 30.7347C18.3537 30.7449 18.1774 30.75 18 30.75C13.0294 30.75 9 26.7206 9 21.75C9 16.7794 13.0294 12.75 18 12.75ZM10.989 20.139C10.872 20.661 10.8 21.192 10.8 21.75C10.8 21.9792 10.8107 22.206 10.8316 22.4297C10.8515 22.6414 10.8805 22.8505 10.9183 23.0566C10.9266 23.1025 10.9354 23.148 10.9446 23.1933L10.9183 23.0566C10.9647 23.3099 11.0244 23.5586 11.0966 23.8019C11.103 23.824 11.1097 23.8463 11.1165 23.8685L11.0966 23.8019C11.117 23.8706 11.1384 23.939 11.1608 24.0068L11.1165 23.8685C11.14 23.9448 11.1647 24.0205 11.1906 24.0957L11.1608 24.0068C11.1848 24.0796 11.2099 24.1519 11.2362 24.2236L11.1906 24.0957C11.2155 24.1682 11.2416 24.2402 11.2688 24.3116L11.2362 24.2236C11.2577 24.2824 11.2799 24.3409 11.3029 24.3989L11.2688 24.3116C11.298 24.3883 11.3285 24.4643 11.3602 24.5397L11.3029 24.3989C11.3648 24.5553 11.4321 24.709 11.5044 24.8599C11.5544 24.9644 11.6071 25.0675 11.662 25.1691C11.6772 25.1972 11.6928 25.2256 11.7086 25.2538L11.662 25.1691C11.695 25.23 11.7288 25.2904 11.7634 25.3502L11.7086 25.2538C11.7466 25.3219 11.7857 25.3893 11.8258 25.456L11.7634 25.3502C11.8045 25.4212 11.8468 25.4914 11.8902 25.5608L11.8258 25.456C11.8633 25.5184 11.9018 25.5802 11.9411 25.6413L11.8902 25.5608C11.9297 25.6239 11.9701 25.6863 12.0115 25.7481L11.9411 25.6413C11.9789 25.7001 12.0176 25.7583 12.0571 25.8159L12.0115 25.7481C12.061 25.822 12.1118 25.8949 12.1639 25.9669L12.0571 25.8159C12.1048 25.8855 12.1537 25.9542 12.2038 26.022L12.1639 25.9669C12.2082 26.028 12.2535 26.0885 12.2997 26.1481L12.2038 26.022C12.2381 26.0685 12.2729 26.1145 12.3083 26.1601L12.2997 26.1481C13.4429 27.6256 15.1496 28.645 17.1 28.887V27.15C16.11 27.15 15.3 26.34 15.3 25.35V24.45L10.989 20.139ZM20.7009 15.0737L20.7 15.45C20.7 16.44 19.89 17.25 18.9 17.25H17.1V19.05C17.1 19.545 16.695 19.95 16.2 19.95H14.4V21.75H19.8C20.295 21.75 20.7 22.155 20.7 22.65V25.35H21.6C22.41 25.35 23.076 25.872 23.31 26.601C24.2809 25.5405 24.9419 24.1888 25.1388 22.6897C25.1421 22.6676 25.1449 22.6456 25.1475 22.6237L25.1388 22.6897C25.1635 22.5016 25.1809 22.3111 25.1907 22.1186C25.1925 22.0836 25.194 22.0481 25.1953 22.0126L25.2 21.75C25.2 21.444 25.164 21.147 25.128 20.85L25.1443 20.8504C24.8168 18.2225 23.073 16.0343 20.7009 15.0737Z" fill="#7027E5"/>
</svg>
