<svg width="36" height="45" viewBox="0 0 36 45" fill="none" xmlns="http://www.w3.org/2000/svg">
<path d="M32.25 1.5H3.75C1.67893 1.5 0 3.17893 0 5.25V41.25C0 43.3211 1.67893 45 3.75 45H32.25C34.3211 45 36 43.3211 36 41.25V5.25C36 3.17893 34.3211 1.5 32.25 1.5Z" fill="#93D3A2"/>
<path d="M32.25 0H3.75C1.67893 0 0 1.67893 0 3.75V39.75C0 41.8211 1.67893 43.5 3.75 43.5H32.25C34.3211 43.5 36 41.8211 36 39.75V3.75C36 1.67893 34.3211 0 32.25 0Z" fill="#EAF6EC"/>
<path d="M26.7102 13.1436C26.8904 13.3425 27 13.6061 27 13.8955C27 13.9736 26.992 14.0499 26.9768 14.1235L26.9766 18.9029C26.9919 18.9768 27 19.0534 27 19.1318C27 19.2103 26.9919 19.2868 26.9766 19.3607V24.1393C26.9919 24.2132 27 24.2897 27 24.3682C27 24.4466 26.9919 24.5232 26.9766 24.5971L26.9768 29.3765C26.992 29.4501 27 29.5264 27 29.6045C27 29.8939 26.8904 30.1575 26.7102 30.3564L26.6064 30.4602C26.4075 30.6404 26.1439 30.75 25.8545 30.75C25.7764 30.75 25.7001 30.742 25.6265 30.7268L18.2289 30.7266C18.155 30.7419 18.0785 30.75 18 30.75C17.9215 30.75 17.845 30.7419 17.7711 30.7266L10.3735 30.7268C10.2999 30.742 10.2236 30.75 10.1455 30.75C9.85615 30.75 9.59249 30.6404 9.39356 30.4602L9.28975 30.3564C9.10964 30.1575 9 29.8939 9 29.6045C9 29.5264 9.008 29.4501 9.02322 29.3765L9.02341 24.5971C9.00806 24.5232 9 24.4466 9 24.3682C9 24.2897 9.00806 24.2132 9.02341 24.1393V19.3607C9.00806 19.2868 9 19.2103 9 19.1318C9 19.0534 9.00806 18.9768 9.02341 18.9029L9.02322 14.1235C9.008 14.0499 9 13.9736 9 13.8955C9 13.6061 9.10964 13.3425 9.28975 13.1436L9.39356 13.0398C9.59249 12.8596 9.85615 12.75 10.1455 12.75C10.2236 12.75 10.2999 12.758 10.3735 12.7732L17.7711 12.7734C17.845 12.7581 17.9215 12.75 18 12.75C18.0785 12.75 18.155 12.7581 18.2289 12.7734L25.6265 12.7732C25.7001 12.758 25.7764 12.75 25.8545 12.75C26.1439 12.75 26.4075 12.8596 26.6064 13.0398L26.7102 13.1436ZM16.877 25.49H11.267V28.482H16.877V25.49ZM24.732 25.49H19.122V28.482H24.732V25.49ZM16.877 20.253H11.267V23.246H16.877V20.253ZM24.732 20.253H19.122V23.246H24.732V20.253ZM16.877 15.017H11.267V18.009H16.877V15.017ZM24.732 15.017H19.122V18.009H24.732V15.017Z" fill="#28A745"/>
</svg>
