<svg width="36" height="45" viewBox="0 0 36 45" fill="none" xmlns="http://www.w3.org/2000/svg">
<path d="M32.25 1.5H3.75C1.67893 1.5 0 3.17893 0 5.25V41.25C0 43.3211 1.67893 45 3.75 45H32.25C34.3211 45 36 43.3211 36 41.25V5.25C36 3.17893 34.3211 1.5 32.25 1.5Z" fill="#FFC9B7"/>
<path d="M32.25 0H3.75C1.67893 0 0 1.67893 0 3.75V39.75C0 41.8211 1.67893 43.5 3.75 43.5H32.25C34.3211 43.5 36 41.8211 36 39.75V3.75C36 1.67893 34.3211 0 32.25 0Z" fill="#FFF1ED"/>
<path d="M14.9006 25.3355L11.2377 21.5L14.9006 17.6645C15.2669 17.281 15.2669 16.6712 14.9006 16.2877C14.5343 15.9041 13.952 15.9041 13.5857 16.2877L9.27472 20.8017C8.90843 21.1853 8.90843 21.8049 9.27472 22.1884L13.5857 26.7123C13.952 27.0959 14.5343 27.0959 14.9006 26.7123C15.2669 26.3288 15.2669 25.719 14.9006 25.3355ZM21.0994 25.3355L24.7623 21.5L21.0994 17.6645C20.7331 17.281 20.7331 16.6712 21.0994 16.2877C21.4657 15.9041 22.048 15.9041 22.4143 16.2877L26.7253 20.8017C27.0916 21.1853 27.0916 21.8049 26.7253 22.1884L22.4143 26.7123C22.048 27.0959 21.4657 27.0959 21.0994 26.7123C20.7331 26.3288 20.7331 25.719 21.0994 25.3355Z" fill="#FF784B"/>
</svg>
