<svg width="36" height="45" viewBox="0 0 36 45" fill="none" xmlns="http://www.w3.org/2000/svg">
<path d="M32.25 1.5H3.75C1.67893 1.5 0 3.17893 0 5.25V41.25C0 43.3211 1.67893 45 3.75 45H32.25C34.3211 45 36 43.3211 36 41.25V5.25C36 3.17893 34.3211 1.5 32.25 1.5Z" fill="#93D3A2"/>
<path d="M32.25 0H3.75C1.67893 0 0 1.67893 0 3.75V39.75C0 41.8211 1.67893 43.5 3.75 43.5H32.25C34.3211 43.5 36 41.8211 36 39.75V3.75C36 1.67893 34.3211 0 32.25 0Z" fill="#EAF6EC"/>
<path d="M26 18.9217V26.234C26 26.6448 25.7119 27.1488 25.3598 27.3541L19.0495 30.9627C18.6974 31.168 18.4093 31.0001 18.4093 30.5893V23.3003C18.4093 22.8897 18.697 22.3851 19.0486 22.1789L25.3607 18.5499C25.7123 18.3437 26 18.5112 26 18.9217ZM10.6385 18.7228L16.8854 22.2876C17.237 22.4938 17.5247 22.9982 17.5247 23.409L17.5253 30.3266C17.5253 30.7374 17.2375 30.9053 16.8854 30.7L10.64 27.1541C10.2879 26.9486 10 26.4448 10 26.034L9.99915 19.0947C9.99915 18.6841 10.2868 18.5167 10.6385 18.7228ZM18.4401 13.154L24.8627 16.9007C25.2148 17.1062 25.2152 17.4428 24.8636 17.6489L18.4392 21.4156C18.0876 21.6218 17.5125 21.6218 17.1608 21.4159L10.7349 17.6498C10.3833 17.4436 10.3835 17.1071 10.7356 16.9018L17.1602 13.154C17.5122 12.9487 18.0882 12.9487 18.4401 13.154Z" fill="#28A745"/>
</svg>
