<svg width="36" height="45" viewBox="0 0 36 45" fill="none" xmlns="http://www.w3.org/2000/svg">
<path d="M32.25 1.5H3.75C1.67893 1.5 0 3.17893 0 5.25V41.25C0 43.3211 1.67893 45 3.75 45H32.25C34.3211 45 36 43.3211 36 41.25V5.25C36 3.17893 34.3211 1.5 32.25 1.5Z" fill="#BDC1C6"/>
<path d="M32.25 0H3.75C1.67893 0 0 1.67893 0 3.75V39.75C0 41.8211 1.67893 43.5 3.75 43.5H32.25C34.3211 43.5 36 41.8211 36 39.75V3.75C36 1.67893 34.3211 0 32.25 0Z" fill="#EFF0F1"/>
<path fill-rule="evenodd" clip-rule="evenodd" d="M11.6241 25.75C12.7814 27.0744 15.4245 28 18.5 28C21.5755 28 24.2186 27.0744 25.3759 25.75C25.7773 26.2093 26 26.7167 26 27.25C26 29.3211 22.6421 31 18.5 31C14.3579 31 11 29.3211 11 27.25C11 26.7167 11.2227 26.2093 11.6241 25.75ZM11.6241 20.5C12.7814 21.8244 15.4245 22.75 18.5 22.75C21.5755 22.75 24.2186 21.8244 25.3759 20.5C25.7773 20.9593 26 21.4667 26 22C26 24.0711 22.6421 25.75 18.5 25.75C14.3579 25.75 11 24.0711 11 22C11 21.4667 11.2227 20.9593 11.6241 20.5ZM18.5 20.5C14.3579 20.5 11 18.8211 11 16.75C11 14.6789 14.3579 13 18.5 13C22.6421 13 26 14.6789 26 16.75C26 18.8211 22.6421 20.5 18.5 20.5Z" fill="#5F6368"/>
</svg>
