<svg width="36" height="45" viewBox="0 0 36 45" fill="none" xmlns="http://www.w3.org/2000/svg">
<path d="M32.25 1.5H3.75C1.67893 1.5 0 3.17893 0 5.25V41.25C0 43.3211 1.67893 45 3.75 45H32.25C34.3211 45 36 43.3211 36 41.25V5.25C36 3.17893 34.3211 1.5 32.25 1.5Z" fill="#BDC1C6"/>
<path d="M32.25 0H3.75C1.67893 0 0 1.67893 0 3.75V39.75C0 41.8211 1.67893 43.5 3.75 43.5H32.25C34.3211 43.5 36 41.8211 36 39.75V3.75C36 1.67893 34.3211 0 32.25 0Z" fill="#EFF0F1"/>
<path fill-rule="evenodd" clip-rule="evenodd" d="M25.8 15C26.4627 15 27 15.5373 27 16.2V28.8C27 29.4627 26.4627 30 25.8 30H10.2C9.53726 30 9 29.4627 9 28.8V16.2C9 15.5373 9.53726 15 10.2 15H25.8ZM13.6215 19.3755C13.3875 19.1415 13.0095 19.1415 12.7755 19.3755C12.5475 19.6095 12.5415 19.9935 12.7755 20.2275L15.1035 22.5555L12.7755 24.8835C12.5415 25.1175 12.5415 25.4955 12.7755 25.7295C13.0095 25.9635 13.3875 25.9635 13.6215 25.7295L16.3755 22.9755C16.6095 22.7415 16.6095 22.3635 16.3755 22.1295L13.6215 19.3755ZM22.2 24.6H18C17.6686 24.6 17.4 24.8686 17.4 25.2C17.4 25.5314 17.6686 25.8 18 25.8H22.2C22.5314 25.8 22.8 25.5314 22.8 25.2C22.8 24.8686 22.5314 24.6 22.2 24.6Z" fill="#5F6368"/>
</svg>
