<svg width="36" height="45" viewBox="0 0 36 45" fill="none" xmlns="http://www.w3.org/2000/svg">
<path d="M32.25 1.5H3.75C1.67893 1.5 0 3.17893 0 5.25V41.25C0 43.3211 1.67893 45 3.75 45H32.25C34.3211 45 36 43.3211 36 41.25V5.25C36 3.17893 34.3211 1.5 32.25 1.5Z" fill="#B6D4FE"/>
<path d="M32.25 0H3.75C1.67893 0 0 1.67893 0 3.75V39.75C0 41.8211 1.67893 43.5 3.75 43.5H32.25C34.3211 43.5 36 41.8211 36 39.75V3.75C36 1.67893 34.3211 0 32.25 0Z" fill="#E7F1FF"/>
<path fill-rule="evenodd" clip-rule="evenodd" d="M10.4595 20C9.65189 20 9 20.67 9 21.5C9 22.33 9.65189 23 10.4595 23C11.267 23 11.9189 22.33 11.9189 21.5C11.9189 20.67 11.267 20 10.4595 20ZM10.4595 14C9.65189 14 9 14.67 9 15.5C9 16.33 9.65189 17 10.4595 17C11.267 17 11.9189 16.33 11.9189 15.5C11.9189 14.67 11.267 14 10.4595 14ZM10.4595 26C9.65189 26 9 26.68 9 27.5C9 28.32 9.66162 29 10.4595 29C11.2573 29 11.9189 28.32 11.9189 27.5C11.9189 26.68 11.267 26 10.4595 26ZM14.3514 28.5H26.027C26.5622 28.5 27 28.05 27 27.5C27 26.95 26.5622 26.5 26.027 26.5H14.3514C13.8162 26.5 13.3784 26.95 13.3784 27.5C13.3784 28.05 13.8162 28.5 14.3514 28.5ZM14.3514 22.5H26.027C26.5622 22.5 27 22.05 27 21.5C27 20.95 26.5622 20.5 26.027 20.5H14.3514C13.8162 20.5 13.3784 20.95 13.3784 21.5C13.3784 22.05 13.8162 22.5 14.3514 22.5ZM13.3784 15.5C13.3784 16.05 13.8162 16.5 14.3514 16.5H26.027C26.5622 16.5 27 16.05 27 15.5C27 14.95 26.5622 14.5 26.027 14.5H14.3514C13.8162 14.5 13.3784 14.95 13.3784 15.5Z" fill="#0D6EFD"/>
</svg>
