<svg width="36" height="45" viewBox="0 0 36 45" fill="none" xmlns="http://www.w3.org/2000/svg">
<path d="M32.25 1.5H3.75C1.67893 1.5 0 3.17893 0 5.25V41.25C0 43.3211 1.67893 45 3.75 45H32.25C34.3211 45 36 43.3211 36 41.25V5.25C36 3.17893 34.3211 1.5 32.25 1.5Z" fill="#D4BEF7"/>
<path d="M32.25 0H3.75C1.67893 0 0 1.67893 0 3.75V39.75C0 41.8211 1.67893 43.5 3.75 43.5H32.25C34.3211 43.5 36 41.8211 36 39.75V3.75C36 1.67893 34.3211 0 32.25 0Z" fill="#7718AA"/>
<path d="M32.25 0H3.75C1.67893 0 0 1.67893 0 3.75V39.75C0 41.8211 1.67893 43.5 3.75 43.5H32.25C34.3211 43.5 36 41.8211 36 39.75V3.75C36 1.67893 34.3211 0 32.25 0Z" fill="#F1E9FB"/>
<path d="M20.9936 12V33L8 30.7024V14.2976L20.9936 12ZM28.1368 27.9669V28.9132H22.41V27.9669H28.1368ZM28.1368 25.591V26.5373H22.41V25.591H28.1368ZM12.6874 19.409H11.3724V25.591H12.6874V21.3181L15.6304 25.591H16.9454V19.409H15.6304V23.6819L12.6874 19.409ZM28.1368 23.2144V24.1607H22.41V23.2144H28.1368ZM28.1368 20.8385V21.7848H22.41V20.8385H28.1368ZM28.1368 18.4627V19.409H22.41V18.4627H28.1368ZM28.1368 16.086V17.0323H22.41V16.086H28.1368Z" fill="#7027E5"/>
</svg>
