<svg width="36" height="45" viewBox="0 0 36 45" fill="none" xmlns="http://www.w3.org/2000/svg">
<path d="M32.25 1.5H3.75C1.67893 1.5 0 3.17893 0 5.25V41.25C0 43.3211 1.67893 45 3.75 45H32.25C34.3211 45 36 43.3211 36 41.25V5.25C36 3.17893 34.3211 1.5 32.25 1.5Z" fill="#FFC9B7"/>
<path d="M32.25 0H3.75C1.67893 0 0 1.67893 0 3.75V39.75C0 41.8211 1.67893 43.5 3.75 43.5H32.25C34.3211 43.5 36 41.8211 36 39.75V3.75C36 1.67893 34.3211 0 32.25 0Z" fill="#FFF1ED"/>
<path d="M17.9985 15V23.55C17.0585 23.01 15.8985 22.8 14.6685 23.23C13.3285 23.71 12.2985 24.9 12.0585 26.3C11.5985 29.04 13.9185 31.38 16.6485 30.95C18.6085 30.64 19.9985 28.84 19.9985 26.85V17H21.9985C23.0985 17 23.9985 16.1 23.9985 15C23.9985 13.9 23.0985 13 21.9985 13H19.9985C18.8985 13 17.9985 13.9 17.9985 15Z" fill="#FF784B"/>
</svg>
