<svg width="36" height="45" viewBox="0 0 36 45" fill="none" xmlns="http://www.w3.org/2000/svg">
<path d="M32.25 1.5H3.75C1.67893 1.5 0 3.17893 0 5.25V41.25C0 43.3211 1.67893 45 3.75 45H32.25C34.3211 45 36 43.3211 36 41.25V5.25C36 3.17893 34.3211 1.5 32.25 1.5Z" fill="#D4BEF7"/>
<path d="M32.25 0H3.75C1.67893 0 0 1.67893 0 3.75V39.75C0 41.8211 1.67893 43.5 3.75 43.5H32.25C34.3211 43.5 36 41.8211 36 39.75V3.75C36 1.67893 34.3211 0 32.25 0Z" fill="#F1E9FB"/>
<path d="M10.1111 18.8889C10.1111 16.7439 11.855 15 14 15C16.145 15 17.8889 16.7439 17.8889 18.8889C17.8889 20.3533 17.0625 21.6233 15.8594 22.2795C17.4028 22.7109 18.7335 23.6406 19.651 24.9045C20.1918 24.4427 20.8299 24.0964 21.5287 23.8655C20.2951 23.2092 19.4445 21.9271 19.4445 20.4444C19.4445 18.3056 21.1945 16.5556 23.3333 16.5556C25.4722 16.5556 27.2222 18.3056 27.2222 20.4444C27.2222 21.9453 26.3472 23.2396 25.0955 23.8898C26.747 24.4732 28.0487 25.7999 28.5522 27.4664C28.8006 28.2888 28.0813 29 27.2222 29H7.50001C7.22386 29 6.99812 28.7755 7.01776 28.5001C7.23098 25.5103 9.342 23.0627 12.1406 22.2795C10.9375 21.6233 10.1111 20.3533 10.1111 18.8889Z" fill="#7027E5"/>
</svg>
