<svg width="36" height="45" viewBox="0 0 36 45" fill="none" xmlns="http://www.w3.org/2000/svg">
<path d="M32.25 1.5H3.75C1.67893 1.5 0 3.17893 0 5.25V41.25C0 43.3211 1.67893 45 3.75 45H32.25C34.3211 45 36 43.3211 36 41.25V5.25C36 3.17893 34.3211 1.5 32.25 1.5Z" fill="#B6D4FE"/>
<path d="M32 0H4C1.79086 0 0 1.79086 0 4V39.5C0 41.7091 1.79086 43.5 4 43.5H32C34.2091 43.5 36 41.7091 36 39.5V4C36 1.79086 34.2091 0 32 0Z" fill="#E7F1FF"/>
<path d="M11.8566 16H9L12.8556 30H15.2635L17.9988 20.0945L20.7269 30H23.1349L27 16H24.1341L21.9108 25.0886L19.4071 16H16.5837L14.0787 25.0886L11.8566 16Z" fill="#0D6EFD"/>
</svg>
