<svg width="36" height="45" viewBox="0 0 36 45" fill="none" xmlns="http://www.w3.org/2000/svg">
<path d="M32.25 1.5H3.75C1.67893 1.5 0 3.17893 0 5.25V41.25C0 43.3211 1.67893 45 3.75 45H32.25C34.3211 45 36 43.3211 36 41.25V5.25C36 3.17893 34.3211 1.5 32.25 1.5Z" fill="#FFC9B7"/>
<path d="M32.25 0H3.75C1.67893 0 0 1.67893 0 3.75V39.75C0 41.8211 1.67893 43.5 3.75 43.5H32.25C34.3211 43.5 36 41.8211 36 39.75V3.75C36 1.67893 34.3211 0 32.25 0Z" fill="#FFF1ED"/>
<path d="M18.2689 13C19.6398 13 20.7959 13.1347 21.7396 13.4074C22.751 13.6997 23.5572 14.3363 24.1423 15.2994C24.7138 16.2402 25 17.2946 25 18.4522C25 20.3068 24.4246 21.7484 23.2692 22.7362C22.1966 23.6532 20.6988 24.1291 18.7879 24.1792L18.4464 24.1836L16.0757 24.1827L16.0758 31H13V13H18.2689ZM18.4242 15.9714L16.0757 15.9709V21.2118L18.4686 21.2122C19.7488 21.2122 20.6293 20.9698 21.1172 20.5195C21.6009 20.073 21.8465 19.419 21.8465 18.522C21.8465 17.9273 21.7074 17.4105 21.4299 16.9609C21.1635 16.5294 20.8441 16.2711 20.4612 16.1641C20.0538 16.0502 19.4605 15.9852 18.6882 15.9733L18.4242 15.9714Z" fill="#FF784B"/>
</svg>
