<svg width="36" height="45" viewBox="0 0 36 45" fill="none" xmlns="http://www.w3.org/2000/svg">
<path d="M32.25 1.5H3.75C1.67893 1.5 0 3.17893 0 5.25V41.25C0 43.3211 1.67893 45 3.75 45H32.25C34.3211 45 36 43.3211 36 41.25V5.25C36 3.17893 34.3211 1.5 32.25 1.5Z" fill="#D9C5BE"/>
<path d="M32.25 0H3.75C1.67893 0 0 1.67893 0 3.75V39.75C0 41.8211 1.67893 43.5 3.75 43.5H32.25C34.3211 43.5 36 41.8211 36 39.75V3.75C36 1.67893 34.3211 0 32.25 0Z" fill="#FFF1ED"/>
<path d="M24.8766 22.882C24.9136 22.594 24.9414 22.306 24.9414 22C24.9414 21.694 24.9136 21.406 24.8766 21.118L26.8289 19.633C27.0047 19.498 27.051 19.255 26.9399 19.057L25.0894 15.943C24.9784 15.745 24.7286 15.673 24.525 15.745L22.2212 16.645C21.74 16.285 21.2219 15.988 20.6575 15.763L20.3059 13.378C20.2782 13.162 20.0839 13 19.8525 13H16.1515C15.9202 13 15.7259 13.162 15.6982 13.378L15.3466 15.763C14.7822 15.988 14.264 16.294 13.7829 16.645L11.479 15.745C11.2662 15.664 11.0257 15.745 10.9146 15.943L9.06415 19.057C8.94387 19.255 8.99938 19.498 9.17518 19.633L11.1275 21.118C11.0904 21.406 11.0627 21.703 11.0627 22C11.0627 22.297 11.0904 22.594 11.1275 22.882L9.17518 24.367C8.99938 24.502 8.95312 24.745 9.06415 24.943L10.9146 28.057C11.0257 28.255 11.2755 28.327 11.479 28.255L13.7829 27.355C14.264 27.715 14.7822 28.012 15.3466 28.237L15.6982 30.622C15.7259 30.838 15.9202 31 16.1515 31H19.8525C20.0839 31 20.2782 30.838 20.3059 30.622L20.6575 28.237C21.2219 28.012 21.74 27.706 22.2212 27.355L24.525 28.255C24.7378 28.336 24.9784 28.255 25.0894 28.057L26.9399 24.943C27.051 24.745 27.0047 24.502 26.8289 24.367L24.8766 22.882ZM18.002 25.15C16.2163 25.15 14.7637 23.737 14.7637 22C14.7637 20.263 16.2163 18.85 18.002 18.85C19.7878 18.85 21.2404 20.263 21.2404 22C21.2404 23.737 19.7878 25.15 18.002 25.15Z" fill="#803C25"/>
</svg>
