<svg width="36" height="45" viewBox="0 0 36 45" fill="none" xmlns="http://www.w3.org/2000/svg">
<path d="M32.25 1.5H3.75C1.67893 1.5 0 3.17893 0 5.25V41.25C0 43.3211 1.67893 45 3.75 45H32.25C34.3211 45 36 43.3211 36 41.25V5.25C36 3.17893 34.3211 1.5 32.25 1.5Z" fill="#B6D4FE"/>
<path d="M32 0H4C1.79086 0 0 1.79086 0 4V39.5C0 41.7091 1.79086 43.5 4 43.5H32C34.2091 43.5 36 41.7091 36 39.5V4C36 1.79086 34.2091 0 32 0Z" fill="#E7F1FF"/>
<path d="M24.904 12.75C26.0663 12.75 27 13.7066 27 14.8975V28.6025C27 29.7934 26.0663 30.75 24.904 30.75H11.096C9.93369 30.75 9 29.7934 9 28.6025V14.8975C9 13.7066 9.93369 12.75 11.096 12.75H24.904ZM20.6012 25.575H12.6084C12.2723 25.575 12 25.8627 12 26.2179C12 26.573 12.2723 26.8607 12.6084 26.8607H20.6012C20.9373 26.8607 21.2096 26.573 21.2096 26.2179C21.2096 25.8627 20.9373 25.575 20.6012 25.575ZM23.3916 21.075H12.6084C12.2723 21.075 12 21.3627 12 21.7179C12 22.073 12.2723 22.3607 12.6084 22.3607H23.3916C23.7277 22.3607 24 22.073 24 21.7179C24 21.3627 23.7277 21.075 23.3916 21.075ZM23.3916 16.575H12.6084C12.2723 16.575 12 16.8627 12 17.2179C12 17.573 12.2723 17.8607 12.6084 17.8607H23.3916C23.7277 17.8607 24 17.573 24 17.2179C24 16.8627 23.7277 16.575 23.3916 16.575Z" fill="#0D6EFD"/>
</svg>
