<svg width="36" height="45" viewBox="0 0 36 45" fill="none" xmlns="http://www.w3.org/2000/svg">
<path d="M32.25 1.5H3.75C1.67893 1.5 0 3.17893 0 5.25V41.25C0 43.3211 1.67893 45 3.75 45H32.25C34.3211 45 36 43.3211 36 41.25V5.25C36 3.17893 34.3211 1.5 32.25 1.5Z" fill="#BDC1C6"/>
<path d="M32.25 0H3.75C1.67893 0 0 1.67893 0 3.75V39.75C0 41.8211 1.67893 43.5 3.75 43.5H32.25C34.3211 43.5 36 41.8211 36 39.75V3.75C36 1.67893 34.3211 0 32.25 0Z" fill="#EFF0F1"/>
<path d="M26.1 13H9.9C9.40394 13 9 13.4039 9 13.9V30.1C9 30.5961 9.40394 31 9.9 31H26.1C26.5961 31 27 30.5961 27 30.1V13.9C27 13.4039 26.5961 13 26.1 13ZM16.2 16.0614C16.2 15.863 16.3594 15.7 16.5614 15.7H17.6421C17.8406 15.7 18.0035 15.863 18.0035 16.0614V17.1421C18.0035 17.3406 17.8441 17.5035 17.6421 17.5035H16.5614C16.363 17.5035 16.2 17.3441 16.2 17.1421V16.0614ZM16.2 19.6614C16.2 19.463 16.3594 19.3 16.5614 19.3H17.6421C17.8406 19.3 18.0035 19.463 18.0035 19.6614V20.7421C18.0035 20.9406 17.8441 21.1035 17.6421 21.1035H16.5614C16.363 21.1035 16.2 20.9441 16.2 20.7421V19.6614ZM18 27.4C17.0043 27.4 16.2 26.5957 16.2 25.6C16.2 24.9339 16.565 24.3598 17.1 24.0516V22.3614C17.1 22.163 17.2594 22 17.4614 22H18.5421C18.7406 22 18.9035 22.163 18.9035 22.3614V24.0516C19.4386 24.3634 19.8035 24.9374 19.8035 25.6035C19.8 26.5957 18.9957 27.4 18 27.4ZM19.8 18.9386C19.8 19.137 19.6406 19.3 19.4386 19.3H18.3579C18.1594 19.3 17.9965 19.1406 17.9965 18.9386V17.8579C17.9965 17.6594 18.1559 17.4965 18.3579 17.4965H19.4386C19.637 17.4965 19.8 17.6594 19.8 17.8579V18.9386ZM19.8 15.3386C19.8 15.537 19.6406 15.7 19.4386 15.7H18.3579C18.1594 15.7 17.9965 15.5406 17.9965 15.3386V14.2614C17.9965 14.063 18.1559 13.9 18.3579 13.9H19.4386C19.637 13.9 19.8 14.063 19.8 14.2614V15.3386Z" fill="#5F6368"/>
</svg>
