<svg width="36" height="45" viewBox="0 0 36 45" fill="none" xmlns="http://www.w3.org/2000/svg">
<path d="M32.25 1.5H3.75C1.67893 1.5 0 3.17893 0 5.25V41.25C0 43.3211 1.67893 45 3.75 45H32.25C34.3211 45 36 43.3211 36 41.25V5.25C36 3.17893 34.3211 1.5 32.25 1.5Z" fill="#FFC9B7"/>
<path d="M32.25 0H3.75C1.67893 0 0 1.67893 0 3.75V39.75C0 41.8211 1.67893 43.5 3.75 43.5H32.25C34.3211 43.5 36 41.8211 36 39.75V3.75C36 1.67893 34.3211 0 32.25 0Z" fill="#FFF1ED"/>
<path d="M13.8517 15H22.3286C22.5345 15 22.7318 15.0829 22.8759 15.2299L26.4777 18.9045C26.7684 19.2011 26.7699 19.6752 26.4812 19.9737L18.7701 27.9452C18.4758 28.2494 17.9907 28.2574 17.6865 27.9632C17.6852 27.9619 17.6839 27.9606 17.6825 27.9593L9.55832 19.9854C9.25628 19.6889 9.25175 19.2038 9.54821 18.9017C9.55191 18.898 9.55565 18.8942 9.55943 18.8905L13.316 15.2183C13.4592 15.0784 13.6515 15 13.8517 15Z" fill="#FF784B"/>
</svg>
