<svg width="36" height="45" viewBox="0 0 36 45" fill="none" xmlns="http://www.w3.org/2000/svg">
<path d="M32.25 1.5H3.75C1.67893 1.5 0 3.17893 0 5.25V41.25C0 43.3211 1.67893 45 3.75 45H32.25C34.3211 45 36 43.3211 36 41.25V5.25C36 3.17893 34.3211 1.5 32.25 1.5Z" fill="#F5C3C8"/>
<path d="M32.25 0H3.75C1.67893 0 0 1.67893 0 3.75V39.75C0 41.8211 1.67893 43.5 3.75 43.5H32.25C34.3211 43.5 36 41.8211 36 39.75V3.75C36 1.67893 34.3211 0 32.25 0Z" fill="#FCEAED"/>
<path d="M24 20.5V17C24 16.45 23.55 16 23 16H11C10.45 16 10 16.45 10 17V27C10 27.55 10.45 28 11 28H23C23.55 28 24 27.55 24 27V23.5L26.29 25.79C26.92 26.42 28 25.97 28 25.08V18.91C28 18.02 26.92 17.57 26.29 18.2L24 20.5Z" fill="#DD3646"/>
</svg>
