<svg width="36" height="45" viewBox="0 0 36 45" fill="none" xmlns="http://www.w3.org/2000/svg">
<path d="M32.25 1.5H3.75C1.67893 1.5 0 3.17893 0 5.25V41.25C0 43.3211 1.67893 45 3.75 45H32.25C34.3211 45 36 43.3211 36 41.25V5.25C36 3.17893 34.3211 1.5 32.25 1.5Z" fill="#FFC9B7"/>
<path d="M32.25 0H3.75C1.67893 0 0 1.67893 0 3.75V39.75C0 41.8211 1.67893 43.5 3.75 43.5H32.25C34.3211 43.5 36 41.8211 36 39.75V3.75C36 1.67893 34.3211 0 32.25 0Z" fill="#FFF1ED"/>
<path d="M12 14H11C9.89 14 9.01 14.9 9.01 16L9 30C9 31.1 9.89 32 11 32H25C26.1 32 27 31.1 27 30V16C27 14.9 26.1 14 25 14H12ZM25 27.7143H11V19H25V27.7143Z" fill="#FF784B"/>
</svg>
