<svg width="36" height="45" viewBox="0 0 36 45" fill="none" xmlns="http://www.w3.org/2000/svg">
<path d="M32.25 1.5H3.75C1.67893 1.5 0 3.17893 0 5.25V41.25C0 43.3211 1.67893 45 3.75 45H32.25C34.3211 45 36 43.3211 36 41.25V5.25C36 3.17893 34.3211 1.5 32.25 1.5Z" fill="#F5C3C8"/>
<path d="M32.25 0H3.75C1.67893 0 0 1.67893 0 3.75V39.75C0 41.8211 1.67893 43.5 3.75 43.5H32.25C34.3211 43.5 36 41.8211 36 39.75V3.75C36 1.67893 34.3211 0 32.25 0Z" fill="#FCEAED"/>
<path d="M16.137 23.35H19.863L18 18.382L16.137 23.35ZM25.2 13H10.8C9.81 13 9 13.81 9 14.8V29.2C9 30.19 9.81 31 10.8 31H25.2C26.19 31 27 30.19 27 29.2V14.8C27 13.81 26.19 13 25.2 13ZM21.339 27.292L20.529 25.15H15.453L14.652 27.283C14.526 27.625 14.202 27.85 13.833 27.85C13.221 27.85 12.798 27.229 13.023 26.662L16.848 16.933C17.046 16.456 17.496 16.15 18 16.15C18.504 16.15 18.954 16.456 19.143 16.933L22.968 26.662C23.193 27.229 22.77 27.85 22.158 27.85C21.798 27.85 21.474 27.625 21.339 27.292Z" fill="#DD3646"/>
</svg>
