<svg width="36" height="45" viewBox="0 0 36 45" fill="none" xmlns="http://www.w3.org/2000/svg">
<path d="M32.25 1.5H3.75C1.67893 1.5 0 3.17893 0 5.25V41.25C0 43.3211 1.67893 45 3.75 45H32.25C34.3211 45 36 43.3211 36 41.25V5.25C36 3.17893 34.3211 1.5 32.25 1.5Z" fill="#B6D4FE"/>
<path d="M32.25 0H3.75C1.67893 0 0 1.67893 0 3.75V39.75C0 41.8211 1.67893 43.5 3.75 43.5H32.25C34.3211 43.5 36 41.8211 36 39.75V3.75C36 1.67893 34.3211 0 32.25 0Z" fill="#E7F1FF"/>
<path d="M12.75 13C11.7875 13 11.0087 13.81 11.0087 14.8L11 29.2C11 30.19 11.7788 31 12.7413 31H23.25C24.2125 31 25 30.19 25 29.2V19.147C25 18.67 24.8162 18.211 24.4837 17.878L20.2575 13.531C19.9338 13.189 19.4875 13 19.0238 13H12.75ZM18.875 18.4V14.35L23.6875 19.3H19.75C19.2688 19.3 18.875 18.895 18.875 18.4Z" fill="#0D6EFD"/>
</svg>
