<svg width="10" height="12" viewBox="0 0 10 12" fill="none" xmlns="http://www.w3.org/2000/svg">
<path d="M1.26686 0.132812C0.677529 0.132812 0.200195 0.610146 0.200195 1.19948V10.7995C0.200195 11.3888 0.677529 11.8661 1.26686 11.8661H2.33353C2.92286 11.8661 3.4002 11.3888 3.4002 10.7995V1.19948C3.4002 0.610146 2.92286 0.132812 2.33353 0.132812H1.26686ZM7.66686 0.132812C7.07753 0.132812 6.6002 0.610146 6.6002 1.19948V10.7995C6.6002 11.3888 7.07753 11.8661 7.66686 11.8661H8.73353C9.32286 11.8661 9.8002 11.3888 9.8002 10.7995V1.19948C9.8002 0.610146 9.32286 0.132812 8.73353 0.132812H7.66686Z" fill="#202124"/>
</svg>
