<svg width="24" height="24" viewBox="0 0 24 24" fill="none" xmlns="http://www.w3.org/2000/svg">
<path d="M19.9241 10.7492C19.9241 6.37775 16.377 2.83203 12.007 2.83203C7.63699 2.83203 4.08984 6.37775 4.08984 10.7492C4.08984 14.8906 7.86699 18.2492 12.007 18.2492V21.1663C16.8156 18.7263 19.9241 14.8006 19.9241 10.7492Z" fill="#00897B"/>
<path d="M16.902 7.88672L15.8635 10.751H10.132L7.83203 13.571L16.262 22.001H21.902V12.8867L16.902 7.88672Z" fill="url(#paint0_linear)"/>
<path opacity="0.2" d="M12.007 18.1467C7.8827 18.1467 4.12127 14.8153 4.09127 10.6953C4.09127 10.7139 4.08984 10.7325 4.08984 10.751C4.08984 14.8925 7.86699 18.251 12.007 18.251V18.1467ZM12.007 21.0639V21.1682C16.8156 18.7282 19.9241 14.8025 19.9241 10.751C19.9241 10.7339 19.9227 10.7167 19.9227 10.701C19.8956 14.7325 16.7941 18.6353 12.007 21.0639ZM13.7784 13.8753H8.56984C8.3027 13.8753 8.03698 13.7739 7.8327 13.5696C7.62841 13.3653 7.52699 13.0996 7.52699 12.8325V12.9367C7.52699 13.2039 7.62841 13.4696 7.8327 13.6739C8.03698 13.8782 8.3027 13.9796 8.56984 13.9796H13.7784C14.0456 13.9796 14.3113 13.8782 14.5156 13.6739C14.6125 13.5772 14.6894 13.4623 14.7419 13.3358C14.7943 13.2093 14.8213 13.0737 14.8213 12.9367V12.8325C14.8213 13.0996 14.7198 13.3653 14.5156 13.5696C14.3113 13.7739 14.0441 13.8753 13.7784 13.8753ZM14.8198 11.6367L16.9027 13.7196V13.6153L14.8198 11.5325V11.6367Z" fill="#263238"/>
<path d="M14.8202 9.96929V8.66786C14.8202 8.40071 14.7188 8.135 14.5145 7.93071C14.4178 7.83376 14.3029 7.75686 14.1764 7.70439C14.0499 7.65193 13.9143 7.62495 13.7773 7.625H8.5702C8.30306 7.625 8.03734 7.72643 7.83306 7.93071C7.73611 8.02743 7.6592 8.14233 7.60674 8.26882C7.55428 8.39531 7.5273 8.53092 7.52734 8.66786V12.835C7.52734 13.1021 7.62877 13.3679 7.83306 13.5721C8.03734 13.7764 8.30306 13.8779 8.5702 13.8779H13.7788C14.0459 13.8779 14.3116 13.7764 14.5159 13.5721C14.6129 13.4754 14.6898 13.3605 14.7422 13.234C14.7947 13.1075 14.8217 12.9719 14.8216 12.835V11.5336L16.9045 13.6164V7.88643L14.8202 9.96929Z" fill="#F5F5F5"/>
<path d="M7.52735 8.66786V10.7507H16.9016V7.88643L14.8188 9.96928V8.66786C14.8188 8.40071 14.7173 8.135 14.5131 7.93071C14.4163 7.83376 14.3015 7.75686 14.175 7.70439C14.0485 7.65193 13.9129 7.62495 13.7759 7.625H8.56878C8.30163 7.625 8.03592 7.72643 7.83163 7.93071C7.73488 8.0275 7.65819 8.14244 7.60597 8.26894C7.55375 8.39544 7.52703 8.531 7.52735 8.66786Z" fill="#E0E0E0"/>
<path d="M7.5293 10.6445H16.9036V10.7488H7.5293V10.6445Z" fill="#212121" fill-opacity="0.02"/>
<path d="M7.52734 10.75H16.9016V10.8543H7.52734V10.75Z" fill="white" fill-opacity="0.05"/>
<path opacity="0.2" d="M8.5702 7.72929H13.7788C14.0459 7.72929 14.3116 7.83071 14.5159 8.035C14.6129 8.13171 14.6898 8.24661 14.7422 8.3731C14.7947 8.4996 14.8217 8.6352 14.8216 8.77214V8.66786C14.8216 8.40071 14.7202 8.135 14.5159 7.93071C14.4192 7.83376 14.3043 7.75686 14.1778 7.70439C14.0513 7.65193 13.9157 7.62495 13.7788 7.625H8.5702C8.30306 7.625 8.03734 7.72643 7.83306 7.93071C7.73611 8.02743 7.6592 8.14233 7.60674 8.26882C7.55428 8.39531 7.5273 8.53092 7.52734 8.66786V8.77214C7.52734 8.505 7.62877 8.23929 7.83306 8.035C8.02854 7.83942 8.29368 7.72946 8.5702 7.72929ZM14.8202 9.96929V10.0736L16.9031 7.99071V7.88643L14.8202 9.96929Z" fill="white"/>
<path opacity="0.2" d="M12.007 2.93775C16.3598 2.93775 19.8956 6.45489 19.9227 10.8035C19.9227 10.7849 19.9241 10.7677 19.9241 10.7492C19.9241 6.37775 16.377 2.83203 12.007 2.83203C7.63699 2.83203 4.08984 6.37917 4.08984 10.7506C4.08984 10.7677 4.09127 10.7835 4.09127 10.7992C4.12127 6.45346 7.65556 2.93775 12.007 2.93775Z" fill="white"/>
<path d="M19.9241 10.7492C19.9241 6.37775 16.377 2.83203 12.007 2.83203C7.63699 2.83203 4.08984 6.37775 4.08984 10.7492C4.08984 14.8906 7.86699 18.2492 12.007 18.2492V21.1663C16.8156 18.7263 19.9241 14.8006 19.9241 10.7492Z" fill="url(#paint1_radial)"/>
<defs>
<linearGradient id="paint0_linear" x1="11.9202" y1="10.2816" x2="18.7689" y2="17.1303" gradientUnits="userSpaceOnUse">
<stop stop-color="#263238" stop-opacity="0.2"/>
<stop offset="1" stop-color="#263238" stop-opacity="0.02"/>
</linearGradient>
<radialGradient id="paint1_radial" cx="0" cy="0" r="1" gradientUnits="userSpaceOnUse" gradientTransform="translate(6.34727 5.10675) scale(16.1656)">
<stop stop-color="white" stop-opacity="0.1"/>
<stop offset="1" stop-color="white" stop-opacity="0"/>
</radialGradient>
</defs>
</svg>
