<svg width="22" height="22" viewBox="0 0 22 22" fill="none" xmlns="http://www.w3.org/2000/svg">
<path d="M11 4.12695C8.72803 4.12695 6.875 5.97998 6.875 8.25195C6.875 9.57324 7.51416 10.7388 8.48633 11.4961C7.90088 11.7271 7.36377 12.0439 6.86963 12.4199C6.86963 12.4038 6.875 12.3931 6.875 12.377C6.875 10.8677 5.63428 9.62695 4.125 9.62695C2.61572 9.62695 1.375 10.8677 1.375 12.377C1.375 13.1128 1.67578 13.7842 2.14844 14.2783C0.875489 14.9819 0 16.3247 0 17.877H1.375C1.375 16.3516 2.59961 15.127 4.125 15.127C4.31836 15.127 4.50098 15.1484 4.67822 15.186C4.32373 16.0132 4.125 16.9209 4.125 17.877H5.5C5.5 14.8315 7.95459 12.377 11 12.377C14.0454 12.377 16.5 14.8315 16.5 17.877H17.875C17.875 16.9263 17.6763 16.0186 17.3218 15.1914C17.5044 15.1538 17.687 15.127 17.875 15.127C19.4004 15.127 20.625 16.3516 20.625 17.877H22C22 16.3247 21.1245 14.9819 19.8516 14.2783C20.3242 13.7842 20.625 13.1128 20.625 12.377C20.625 10.8677 19.3843 9.62695 17.875 9.62695C16.3657 9.62695 15.125 10.8677 15.125 12.377C15.125 12.3931 15.1304 12.4038 15.1304 12.4199C14.6362 12.0439 14.0991 11.7271 13.5137 11.4961C14.4858 10.7388 15.125 9.57324 15.125 8.25195C15.125 5.97998 13.272 4.12695 11 4.12695ZM11 5.50195C12.5254 5.50195 13.75 6.72656 13.75 8.25195C13.75 9.77734 12.5254 11.002 11 11.002C9.47461 11.002 8.25 9.77734 8.25 8.25195C8.25 6.72656 9.47461 5.50195 11 5.50195ZM4.125 11.002C4.89307 11.002 5.5 11.6089 5.5 12.377C5.5 13.145 4.89307 13.752 4.125 13.752C3.35693 13.752 2.75 13.145 2.75 12.377C2.75 11.6089 3.35693 11.002 4.125 11.002ZM17.875 11.002C18.6431 11.002 19.25 11.6089 19.25 12.377C19.25 13.145 18.6431 13.752 17.875 13.752C17.1069 13.752 16.5 13.145 16.5 12.377C16.5 11.6089 17.1069 11.002 17.875 11.002Z" fill="#F3F8FF"/>
</svg>
