<svg width="18" height="19" viewBox="0 0 18 19" fill="none" xmlns="http://www.w3.org/2000/svg">
<path d="M15.904 0.75C17.0663 0.75 18 1.70662 18 2.89751V16.6025C18 17.7934 17.0663 18.75 15.904 18.75H2.09604C0.933689 18.75 0 17.7934 0 16.6025V2.89751C0 1.70662 0.933689 0.75 2.09604 0.75H15.904ZM11.6012 13.575H3.60839C3.27225 13.575 3 13.8627 3 14.2179C3 14.573 3.27225 14.8607 3.60839 14.8607H11.6012C11.9373 14.8607 12.2096 14.573 12.2096 14.2179C12.2096 13.8627 11.9373 13.575 11.6012 13.575ZM14.3916 9.075H3.60839C3.27225 9.075 3 9.36268 3 9.71786C3 10.073 3.27225 10.3607 3.60839 10.3607H14.3916C14.7277 10.3607 15 10.073 15 9.71786C15 9.36268 14.7277 9.075 14.3916 9.075ZM14.3916 4.575H3.60839C3.27225 4.575 3 4.86268 3 5.21786C3 5.57304 3.27225 5.86071 3.60839 5.86071H14.3916C14.7277 5.86071 15 5.57304 15 5.21786C15 4.86268 14.7277 4.575 14.3916 4.575Z" fill="#0D6EFD"/>
</svg>
