<svg width="26" height="20" viewBox="0 0 26 20" fill="none" xmlns="http://www.w3.org/2000/svg">
<path d="M12.0349 9.77832C12.0349 9.77832 7.49835 13.7454 6.21284 14.9174C5.21767 15.8223 6.87478 17.5486 7.81879 16.7618C10.3259 14.6669 12.7028 13.1136 12.7028 13.1136L12.9789 13.5092C11.9943 14.1035 9.44881 15.659 8.12795 16.8475C7.13203 17.7426 8.70489 19.5201 9.70231 18.6265C11.0728 17.3974 14.2118 15.1927 14.2118 15.1927L14.4886 15.4815C13.6762 15.9923 12.4035 16.9408 10.7388 18.4587C9.73691 19.3727 11.2045 20.328 12.0657 19.6126C14.4096 17.6674 14.4968 16.3157 17.0762 15.2122C21.0124 13.5288 12.0349 9.77832 12.0349 9.77832Z" fill="#EF9645"/>
<path d="M21.7976 2.88536C22.4603 2.55589 23.041 2.99367 23.3817 3.67743C23.7187 4.36268 25.2863 7.44972 25.603 8.09211C25.9227 8.73298 25.7466 9.67399 25.0621 10.0125C24.3769 10.3532 23.3817 10.8053 22.7363 11.902C22.3865 12.4993 20.934 14.0736 16.9978 15.7601C14.42 16.8598 12.3604 18.7222 11.536 19.3706C10.8696 19.8957 9.52538 18.8915 10.5258 17.9791C12.1912 16.4596 13.4639 15.5111 14.2755 15.0018L13.9987 14.7115C13.9987 14.7115 10.7033 17.0102 9.30649 18.2092C8.35797 19.0254 7.09652 17.4924 8.09319 16.598C9.41481 15.4095 11.7805 13.6238 12.7651 13.0296L12.4898 12.6316C12.4898 12.6316 9.90976 14.3098 7.40116 16.4077C6.56396 17.1073 5.25964 15.5359 6.25405 14.6295C7.54032 13.4598 10.0474 11.3627 11.5894 10.4931L11.442 10.035C11.442 10.035 9.02141 11.3928 6.93179 13.4154C6.1841 14.1383 4.69474 12.8001 5.78468 11.6906C8.38881 9.04139 11.7707 7.47154 12.6703 6.86677C13.8784 6.05439 14.514 5.5474 13.8784 5.26232C12.9201 4.83131 11.3239 3.32013 10.7116 2.09554C9.91954 0.511405 11.0426 -0.74026 12.295 0.511405C13.0871 1.30347 14.6712 2.88686 16.2538 2.88686C18.3818 2.88686 18.7075 3.67893 20.2134 3.67893C21.0063 3.67743 21.7976 2.88536 21.7976 2.88536Z" fill="#FFCC4D"/>
<path d="M18.0887 7.64687C17.8375 7.64763 17.0063 7.53404 16.0698 7.10153C15.2627 6.72994 14.6369 6.05597 14.1163 5.49031C14.1457 5.61141 14.0674 5.75659 13.9035 5.92659C14.4157 6.52233 15.1995 7.20232 15.8998 7.54081C16.7137 7.93572 17.6412 8.13505 18.0594 8.11775C18.4896 8.0997 18.349 7.64988 18.0887 7.64687ZM19.7187 14.1008C18.0157 13.308 16.6633 12.646 18.9861 13.6043C19.9467 13.9992 21.3886 12.0548 19.9752 11.4101C17.1304 10.1118 8.27397 5.26465 8.27397 5.26465C8.27397 5.26465 3.48394 10.8588 4.07668 11.2176C4.67017 11.5741 4.91764 14.1128 8.33791 16.3461C11.5709 18.4583 13.5845 19.3662 14.3412 19.7446C15.9261 20.5366 16.9566 18.4824 15.72 17.9302C13.589 16.978 13.6635 16.92 16.7866 18.2176C17.9428 18.699 18.9146 16.5251 17.6931 15.9753C15.8712 15.1561 15.7072 15.0568 18.625 16.3717C19.7044 16.8553 20.9366 14.6687 19.7187 14.1008Z" fill="#EF9645"/>
<path d="M4.58062 3.21778C3.94727 2.83491 3.10631 3.02521 2.7114 3.68038C2.31649 4.33555 0.58417 7.20295 0.214839 7.8175C-0.155245 8.4313 -0.0589629 9.38133 0.595454 9.77623C1.24987 10.1719 2.43609 10.8872 3.02958 11.2445C3.62307 11.6033 6.04667 14.6121 9.54516 16.7198C13.0414 18.832 14.3337 19.1916 15.1205 19.5007C15.9103 19.8091 16.9536 18.2348 15.717 17.6834C13.583 16.7296 12.0793 15.8495 11.3098 15.2726L11.549 14.8325C11.549 14.8325 13.683 16.4272 16.8047 17.727C17.9608 18.2084 18.9033 16.4077 17.6825 15.8563C15.8599 15.0371 13.6116 13.6794 12.6796 13.0054L12.9399 12.5759C12.9399 12.5759 15.908 14.4519 18.8258 15.7668C19.9022 16.2519 20.8056 14.4233 19.5878 13.8547C17.8878 13.0619 15.4898 11.6319 14.026 10.6375L14.2803 10.2614C14.2803 10.2614 16.9995 12.1803 19.3238 13.1371C20.2844 13.5342 21.4149 11.7372 20 11.0903C17.1575 9.79278 13.9343 7.52188 13.0888 6.8449C12.3983 6.29053 12.2004 5.02983 13.8801 4.46944C16.2556 3.67737 17.0476 2.09399 17.0476 1.30192C17.0476 0.181887 16.0126 -0.31231 15.465 0.509848C13.8801 2.8853 13.0835 2.07593 11.5062 2.8853C9.61512 3.8564 7.39461 4.88767 6.10609 4.10989C5.55473 3.77817 4.58062 3.21778 4.58062 3.21778Z" fill="#FFDC5D"/>
<path d="M13.5 5.05524L17.5814 3.01526C17.2226 2.93854 16.7991 2.88589 16.2553 2.88589C14.6727 2.88589 13.0885 1.3025 12.2965 0.510429C11.044 -0.741237 9.921 0.510429 10.7131 2.09457C11.2509 3.16871 12.5432 4.4625 13.5 5.05524Z" fill="#FFCC4D"/>
</svg>
