<svg width="21" height="21" viewBox="0 0 21 21" fill="none" xmlns="http://www.w3.org/2000/svg">
<path d="M10.9294 20.3462C16.4913 20.3462 21 15.8375 21 10.2756C21 4.71382 16.4913 0.205078 10.9294 0.205078C5.36763 0.205078 0.858887 4.71382 0.858887 10.2756C0.858887 15.8375 5.36763 20.3462 10.9294 20.3462Z" fill="#88C9F9"/>
<path d="M2.43213 14.4018C2.39744 13.8424 2.39744 13.7377 2.39744 13.0731C2.39744 12.4084 2.71187 12.5136 3.02685 12.1992C3.34184 11.8847 3.2719 11.8495 3.79613 11.5049C4.32036 11.1602 4.04118 10.7658 4.00594 10.556C3.97069 10.3462 3.65626 10.5207 3.13148 10.5901C2.60669 10.6595 2.78236 10.4156 2.46738 10.2757C2.15239 10.1358 2.01308 9.92603 1.80272 9.29662C1.59236 8.66721 1.55767 8.49209 1.62817 7.96786C1.69866 7.44363 1.94315 7.93261 1.97784 8.49209C2.01252 9.05157 2.50263 8.84176 2.50263 9.19143C2.50263 9.54111 3.20197 9.92547 3.37653 10.0306C3.55108 10.1358 4.04118 9.50586 4.21574 9.3313C4.3903 9.15675 4.60066 8.9117 4.67003 8.77183C4.73941 8.63196 5.61443 8.52678 5.78898 8.52678C5.96354 8.52678 6.38315 9.05157 6.38315 9.29606C6.38315 9.54055 6.59295 10.2052 6.76807 10.5896C6.94318 10.9739 7.32754 11.0439 7.67721 11.3236C8.02689 11.6033 8.202 11.3583 8.202 11.3583C8.202 11.3583 8.06213 10.7641 8.06213 10.274C8.06213 9.78392 8.48174 9.36487 8.48174 9.36487C8.48174 9.36487 9.1464 9.85441 9.18108 9.99428C9.21577 10.1341 9.74056 10.6237 9.77525 10.8682C9.80993 11.1127 10.0897 11.4277 10.6049 11.4976C11.1202 11.5675 10.7543 10.9034 10.9289 10.4486C11.1034 9.99372 11.3485 9.92379 11.6629 9.85441C11.9773 9.78504 12.2224 9.50474 12.4322 9.225C12.642 8.94526 13.0264 8.56035 12.9917 8.24592C12.957 7.9315 12.8518 7.72113 12.7119 7.33677C12.5721 6.95241 13.1315 6.81199 13.3766 6.35769C13.6216 5.9034 13.3766 6.35769 13.9361 6.21782C14.4955 6.07795 14.2505 6.07795 14.3557 5.86815C14.4609 5.65835 14.5302 5.44854 14.4256 5.06363C14.321 4.67871 13.9361 5.06363 13.5517 5.06363C13.1673 5.06363 13.6921 4.54107 13.7268 4.12147C13.7615 3.70186 14.2516 3.80704 14.6007 3.7718C14.9498 3.73655 15.055 4.22609 15.1602 4.33127C15.2654 4.43645 16.3491 3.63193 16.6288 3.24701C16.9086 2.86209 16.3843 2.96783 16.5242 2.80558C16.6641 2.64333 15.685 2.61033 15.3001 2.54822C14.9151 2.48612 13.9366 2.44304 13.5523 2.20582C13.1679 1.96861 11.6993 2.14764 11.3144 2.33842C10.9294 2.5292 10.685 2.3222 10.5098 2.05868C10.3347 1.79517 9.60069 1.92721 9.39089 1.77895C9.18108 1.63068 8.97128 2.02344 8.69154 2.12862C8.4118 2.2338 8.30662 2.26849 7.95751 2.05868C7.6084 1.84888 8.06213 1.60383 7.57259 1.42927C7.24474 1.31234 6.85199 1.3806 6.24104 1.36717C3.04196 3.05399 0.858887 6.40804 0.858887 10.2757C0.858887 12.1891 1.40214 13.971 2.32863 15.4939C2.50095 15.2041 2.45787 14.813 2.43213 14.4018ZM10.5445 13.7377C10.7896 13.7724 11.4889 13.7377 10.9294 13.2834C10.37 12.8291 10.0555 13.1783 10.1249 12.654C10.1943 12.1298 9.77525 12.1292 9.77525 12.1292C9.77525 12.5142 9.49551 12.9338 9.77525 13.3181C10.055 13.7025 10.3 13.7025 10.5445 13.7377Z" fill="#5C913B"/>
<path d="M14.1117 7.89818C13.5522 7.44389 13.9718 7.58376 14.0418 7.05897C14.1117 6.53418 13.6921 6.53418 13.6921 6.53418C13.6921 6.9191 13.4124 7.33871 13.6921 7.72306C13.9718 8.10742 13.1326 8.42241 13.3777 8.4571C13.6227 8.49178 14.6712 8.35247 14.1117 7.89818ZM11.9409 13.3531C12.2878 13.738 12.1535 13.3531 12.6078 13.1785C13.0621 13.004 12.2229 12.619 11.9432 12.4092C11.6634 12.1994 11.3854 12.1916 11.1409 12.6543C10.8634 13.1785 11.5941 12.9681 11.9409 13.3531ZM16.0346 14.0524C15.8601 13.8426 15.4752 13.738 15.0555 13.7475C14.6359 13.7576 14.6706 13.2831 14.251 13.3178C13.8314 13.3525 13.5315 13.0358 13.3419 12.9379C12.9295 12.7253 13.202 13.2126 13.3419 13.7469C13.4817 14.2812 14.0065 13.8767 14.4955 14.1565C14.9845 14.4362 15.0203 14.0513 15.4746 14.1912C15.9289 14.331 16.104 14.6455 16.5398 14.6108C16.9757 14.5761 16.2097 14.2622 16.0346 14.0524ZM15.1255 15.591C14.9509 15.2413 14.4396 14.9263 14.2298 14.749C14.02 14.5716 13.6915 14.5117 13.4118 14.6147C13.1321 14.7176 12.9575 14.6147 12.8176 14.3377C12.6778 14.0608 12.4327 14.1576 12.2235 14.1923C12.0142 14.227 11.1745 14.5772 10.6849 14.8217C10.1954 15.0662 9.97271 15.2788 9.65157 15.591C9.14916 16.0799 9.4261 15.7655 9.65157 16.0805C9.87704 16.3949 9.40428 17.374 9.3696 17.9335C9.33491 18.493 10.2659 17.7589 10.6155 17.6884C10.9652 17.6179 10.8623 17.4087 11.142 17.1989C11.4218 16.9891 11.6036 16.9399 11.9107 17.2196C12.2179 17.4993 12.6201 17.7584 12.6201 18.0728C12.6201 18.3872 13.7273 18.912 14.147 18.7022C14.5666 18.4924 14.8116 18.0728 15.196 17.7231C15.5803 17.3735 15.441 16.7094 15.5456 16.2898C15.6503 15.8701 15.3 15.9406 15.1255 15.591Z" fill="#5C913B"/>
</svg>
