<svg width="20" height="19" viewBox="0 0 20 19" fill="none" xmlns="http://www.w3.org/2000/svg">
<path d="M9.59276 10.8267C4.49093 10.8267 0.355469 10.7042 0.355469 14.3257C0.355469 17.9456 4.49093 18.7693 9.59276 18.7693C14.6946 18.7693 18.83 17.9456 18.83 14.3257C18.83 10.7047 14.6946 10.8267 9.59276 10.8267Z" fill="#D99E82"/>
<path d="M18.5598 11.1016C18.5598 11.1016 14.0851 10.5658 9.59305 10.543C5.10099 10.5658 0.626343 11.1016 0.626343 11.1016C0.183724 14.6262 3.8586 16.0782 9.59305 16.0782C15.3275 16.0782 19.0024 14.6262 18.5598 11.1016Z" fill="#662113"/>
<path d="M18.2418 9.69336L0.899065 10.0451C0.300196 10.0451 -0.201221 11.2586 0.434125 11.576C5.17499 13.0503 8.98598 14.542 8.98598 14.542C9.50972 14.8317 9.68666 14.8327 10.2109 14.5437C10.2109 14.5437 15.4734 12.4378 18.8537 11.5531C19.3334 11.4279 18.8401 9.69336 18.2418 9.69336Z" fill="#FFCC4D"/>
<path d="M18.6985 9.73854C17.6641 8.78525 17.724 9.29265 16.9313 9.06889C16.6302 8.98396 14.4759 6.19922 9.56574 6.19922H9.55485C4.64467 6.19922 2.49037 8.98396 2.1893 9.06889C1.39662 9.29265 1.4565 8.78525 0.422094 9.73854C-0.052646 10.1763 -0.181131 10.4038 0.319742 10.5171C1.07432 10.6875 1.00572 11.1442 1.54634 11.3032C2.20074 11.4954 2.46968 11.1442 3.52478 11.288C4.42472 11.4105 4.48352 12.5777 5.39162 12.5777C6.29972 12.5777 6.29972 12.1422 7.20728 12.1422C8.11484 12.1422 8.65165 13.3105 9.55975 13.3105C10.4679 13.3105 11.0041 12.1422 11.9122 12.1422C12.8203 12.1422 12.8203 12.5777 13.7279 12.5777C14.636 12.5777 14.6948 11.4105 15.5947 11.288C16.6498 11.1448 16.9193 11.4954 17.5732 11.3032C18.1138 11.1442 18.0452 10.688 18.7998 10.5171C19.3017 10.4044 19.1738 10.1763 18.6985 9.73854Z" fill="#77B255"/>
<path d="M18.3458 8.70912C18.3458 10.3337 14.427 11.1008 9.59308 11.1008C4.75911 11.1008 0.840332 10.3337 0.840332 8.70912C0.840332 5.76758 1.36625 5.76758 9.59308 5.76758C17.8199 5.76758 18.3458 5.76812 18.3458 8.70912Z" fill="#DD2E44"/>
<path d="M9.59276 0C4.49093 0 0.355469 2.39058 0.355469 6.01156C0.355469 9.34617 4.49093 9.48228 9.59276 9.48228C14.6946 9.48228 18.83 9.34617 18.83 6.01156C18.83 2.39003 14.6946 0 9.59276 0Z" fill="#D99E82"/>
<path d="M5.66436 1.72602C5.39324 1.55235 5.03337 1.63184 4.86024 1.90296C4.68712 2.17408 4.76606 2.5345 5.03718 2.70708C5.30831 2.88075 5.99537 3.01032 6.16905 2.7392C6.34217 2.46808 5.93549 1.89915 5.66436 1.72602ZM10.9638 1.16254C10.6578 1.26163 10.1205 1.71023 10.2201 2.0162C10.3198 2.32217 11.0172 2.36899 11.3231 2.2699C11.6291 2.17082 11.7962 1.84198 11.6966 1.53602C11.5975 1.23059 11.2687 1.06291 10.9638 1.16254ZM16.903 4.99258C16.6569 4.7857 16.04 5.11508 15.8326 5.36116C15.6257 5.60778 15.6579 5.97473 15.9039 6.18161C16.15 6.38849 16.5175 6.35637 16.7244 6.11029C16.9318 5.86366 17.1496 5.19946 16.903 4.99258ZM14.9196 2.27045C14.6485 2.09732 14.2886 2.17681 14.115 2.44793C13.9418 2.71906 14.0213 3.07892 14.2924 3.25205C14.5636 3.42572 15.2506 3.5553 15.4238 3.28417C15.5974 3.0125 15.1907 2.44358 14.9196 2.27045ZM6.75322 6.08143C6.48209 5.90831 6.12223 5.98779 5.94855 6.25892C5.77543 6.5295 5.85491 6.88991 6.12604 7.06249C6.39716 7.23616 7.08423 7.36628 7.25735 7.09461C7.43103 6.82349 7.02434 6.25456 6.75322 6.08143ZM8.41154 3.46383C8.22861 3.72842 8.07399 4.41059 8.33913 4.59352C8.60372 4.77644 9.1868 4.3899 9.36973 4.12531C9.55266 3.86072 9.48569 3.49813 9.2211 3.3152C8.95705 3.13228 8.59392 3.19924 8.41154 3.46383ZM12.7419 6.08143C12.4708 5.90831 12.1109 5.98779 11.9372 6.25892C11.7641 6.5295 11.8436 6.89045 12.1147 7.06249C12.3859 7.23616 13.0729 7.36628 13.246 7.09461C13.4197 6.82349 13.013 6.25456 12.7419 6.08143ZM2.48709 3.96525C2.27258 4.20534 2.03358 4.86246 2.27367 5.07697C2.51268 5.29147 3.13986 4.98224 3.35436 4.74215C3.56941 4.5026 3.54872 4.13457 3.30917 3.91952C3.07017 3.70501 2.70159 3.7257 2.48709 3.96525Z" fill="#FFE8B6"/>
</svg>
