<svg width="20" height="19" viewBox="0 0 20 19" fill="none" xmlns="http://www.w3.org/2000/svg">
<path d="M3.33328 10.8994C2.71939 10.8994 2.22217 10.4022 2.22217 9.78828V1.45495C2.22217 0.841062 2.71939 0.899396 3.33328 0.899396C3.94717 0.899396 4.44439 0.841062 4.44439 1.45495C4.44439 1.45495 4.10772 5.02384 4.44439 8.11995C4.74439 10.8833 6.66661 11.455 6.66661 11.455C6.66661 12.0688 3.94717 10.8994 3.33328 10.8994ZM11.1111 13.6766C10.4972 13.6766 9.99995 13.1794 9.99995 12.5655V0.89884C9.99995 0.284951 10.4972 0.343285 11.1111 0.343285C11.7249 0.343285 12.2222 0.284951 12.2222 0.89884C12.2222 0.89884 11.9744 3.73662 12.1527 6.06384C12.3305 8.38995 12.2222 12.5655 12.2222 12.5655C12.2222 13.1788 11.7249 13.6766 11.1111 13.6766Z" fill="#7A5C44"/>
<path d="M20 1.45584L0 3.67806V1.45584L20 0.344727V1.45584Z" fill="#662113"/>
<path d="M12.5798 9.45875C12.2282 10.0843 11.8226 10.4638 11.3798 10.6771C11.1565 10.6999 10.7509 10.6299 10.5926 9.87542C10.4082 8.99375 10.2215 7.74597 10.2215 6.21208C10.2215 3.90986 10.5554 1.35542 10.5554 1.35542C10.5554 0.839306 11.3398 0.835417 11.7143 0.804861C11.6276 0.342639 10.7426 0.34375 9.66761 0.34375C8.86039 0.34375 8.41428 0.940417 8.33317 1.62208C8.2515 2.30431 7.89484 5.14819 7.91984 7.17764C7.93317 8.27986 8.00539 9.48931 8.09484 10.5199C7.65484 10.4082 7.21428 10.3015 6.7815 10.2471C5.22206 10.0493 3.16762 9.94986 2.82095 6.97986C2.5465 4.62875 2.77762 1.91097 2.77762 1.91097C2.77762 1.39486 3.56206 1.26764 3.9365 1.23708C3.84984 0.774861 3.00428 0.730972 1.93095 0.802083C1.12539 0.855417 0.685948 1.27097 0.555393 2.17764C0.345393 3.63819 0.320948 7.00431 0.444282 9.33097C0.513171 10.6299 0.716504 15.3087 2.7215 17.1282C3.89262 18.1904 5.8815 18.8182 8.33317 18.6776C10.6582 18.5443 12.5682 17.6799 13.6376 16.7815C15.4943 15.2221 15.9098 14.0943 15.9871 12.8732C16.1109 10.8999 13.3443 8.09931 12.5798 9.45875Z" fill="#A78E81"/>
<path d="M19.4584 11.8275C18.2912 13.6058 15.9712 14.1458 13.4812 12.5119C10.9912 10.878 10.5629 8.53469 11.7301 6.75635C12.8973 4.97802 15.8901 5.3208 17.499 6.40969C19.1079 7.49858 20.6256 10.0491 19.4584 11.8275Z" fill="#A78E81"/>
<path d="M18.484 12.1097C17.6507 13.3803 15.6151 13.7675 13.4812 12.3675C11.3473 10.9675 11.0262 9.0336 11.8601 7.76304C12.6935 6.49249 14.2457 6.69582 16.3796 8.09638C18.5135 9.49693 19.3173 10.8397 18.484 12.1097Z" fill="#E2D2C7"/>
<path d="M11.4251 7.32379C11.1479 7.94935 11.049 8.62157 11.1523 9.29601C11.9845 9.5399 13.1729 9.8349 13.7356 9.71768C14.6501 9.52768 14.9568 8.70824 14.8223 8.06157C14.6362 7.16379 13.0495 6.64823 11.4251 7.32379Z" fill="#292F33"/>
<path d="M12.994 9.10125C13.3585 9.10125 13.654 8.80576 13.654 8.44125C13.654 8.07674 13.3585 7.78125 12.994 7.78125C12.6295 7.78125 12.334 8.07674 12.334 8.44125C12.334 8.80576 12.6295 9.10125 12.994 9.10125Z" fill="#F5F8FA"/>
<path d="M19.0597 12.3333C18.5963 12.8366 18.0191 13.195 17.3591 13.3689C16.8041 12.7028 16.0608 11.7294 15.9436 11.1666C15.7536 10.2522 16.3836 9.64498 17.0302 9.51054C17.9286 9.32443 19.033 10.5744 19.0597 12.3333Z" fill="#292F33"/>
<path d="M17.41 11.9997C17.7745 11.9997 18.07 11.7042 18.07 11.3397C18.07 10.9752 17.7745 10.6797 17.41 10.6797C17.0455 10.6797 16.75 10.9752 16.75 11.3397C16.75 11.7042 17.0455 11.9997 17.41 11.9997Z" fill="#F5F8FA"/>
<path d="M15.5817 11.7191C15.1817 12.3291 14.3628 12.4986 13.7533 12.0986C13.1433 11.6986 12.9739 10.8797 13.3739 10.2702C13.7739 9.66022 14.2306 10.0424 14.84 10.4424C15.4495 10.8424 15.9817 11.1091 15.5817 11.7191Z" fill="#292F33"/>
<path d="M15.5441 13.1897C15.5308 13.1897 15.5169 13.1886 15.5035 13.1869C13.0152 12.8236 12.0052 10.9258 11.9635 10.8447C11.8935 10.7092 11.9463 10.5419 12.0824 10.4714C12.2191 10.3992 12.3858 10.4542 12.4569 10.5886C12.4663 10.6058 13.3863 12.3158 15.5841 12.6369C15.7358 12.6592 15.8408 12.8003 15.8191 12.9519C15.7985 13.0903 15.6802 13.1897 15.5441 13.1897Z" fill="#292F33"/>
</svg>
