<svg width="20" height="19" viewBox="0 0 20 19" fill="none" xmlns="http://www.w3.org/2000/svg">
<path d="M20 16.6669C20 10.0002 18.8889 1.11133 10 1.11133C1.11111 1.11133 0 10.0002 0 16.6669H4.44444V13.8891C4.44444 13.3335 5 13.3335 5 13.8891C5 17.778 7.22222 17.2224 7.22222 17.2224L8.33333 18.3335L8.88889 17.778C8.88889 17.4713 9.69333 17.2224 10 17.2224C10.3067 17.2224 11.1111 17.4713 11.1111 17.778L11.6667 18.3335L12.7778 17.2224C12.7778 17.2224 15 17.778 15 13.8891C15 13.3335 15.5556 13.3335 15.5556 13.8891V16.6669H20Z" fill="#E26000"/>
<path d="M10.0002 12.7778C13.5287 12.7778 16.3891 9.91737 16.3891 6.38889C16.3891 2.8604 13.5287 0 10.0002 0C6.47173 0 3.61133 2.8604 3.61133 6.38889C3.61133 9.91737 6.47173 12.7778 10.0002 12.7778Z" fill="#E26000"/>
<path d="M17.7778 16.1113C16.1111 16.1113 15.5556 16.6669 15.5556 16.6669V17.2224C15.5556 17.5291 15.8044 17.778 16.1111 17.778C16.4178 17.778 16.6667 17.5291 16.6667 17.2224C16.6667 17.5291 16.9156 17.778 17.2222 17.778C17.5289 17.778 17.7778 17.5291 17.7778 17.2224C17.7778 17.5291 18.0267 17.778 18.3333 17.778C18.64 17.778 18.8889 17.5291 18.8889 17.2224C18.8889 17.5291 19.1378 17.778 19.4444 17.778C19.7511 17.778 20 17.5291 20 17.2224V16.6669C20 16.6669 19.4444 16.1113 17.7778 16.1113ZM2.22222 16.1113C0.555556 16.1113 0 16.6669 0 16.6669V17.2224C0 17.5291 0.248889 17.778 0.555556 17.778C0.862222 17.778 1.11111 17.5291 1.11111 17.2224C1.11111 17.5291 1.36 17.778 1.66667 17.778C1.97333 17.778 2.22222 17.5291 2.22222 17.2224C2.22222 17.5291 2.47111 17.778 2.77778 17.778C3.08444 17.778 3.33333 17.5291 3.33333 17.2224C3.33333 17.5291 3.58222 17.778 3.88889 17.778C4.19556 17.778 4.44444 17.5291 4.44444 17.2224V16.6669C4.44444 16.6669 3.88889 16.1113 2.22222 16.1113Z" fill="#D9B981"/>
<path d="M3.61133 9.78188C3.61133 12.8063 7.87077 13.8891 10.0002 13.8891C12.1297 13.8891 16.3891 12.8063 16.3891 9.78188C16.3891 8.46744 15.848 7.26188 14.9474 6.31799C14.9602 6.18244 14.9697 6.04522 14.9697 5.90299C14.9691 3.25688 13.8335 1.11133 10.0002 1.11133C6.16688 1.11133 5.03133 3.25688 5.03133 5.90299C5.03133 6.04522 5.04077 6.18244 5.05355 6.31799C4.15244 7.26188 3.61133 8.46744 3.61133 9.78188Z" fill="#C45400"/>
<path d="M4.44434 8.65077C4.44434 11.2808 8.14822 12.2224 9.99989 12.2224C11.8516 12.2224 15.5554 11.2808 15.5554 8.65077C15.5554 7.50799 15.0849 6.45966 14.3016 5.63855C14.3127 5.52077 14.321 5.40133 14.321 5.27744C14.321 2.97688 13.3332 1.11133 9.99989 1.11133C6.66656 1.11133 5.67878 2.97688 5.67878 5.27799C5.67878 5.40188 5.68711 5.52133 5.69822 5.63911C4.91489 6.45966 4.44434 7.50799 4.44434 8.65077Z" fill="#D9B981"/>
<path d="M8.88905 5.55545C9.19588 5.55545 9.44461 5.30672 9.44461 4.99989C9.44461 4.69307 9.19588 4.44434 8.88905 4.44434C8.58223 4.44434 8.3335 4.69307 8.3335 4.99989C8.3335 5.30672 8.58223 5.55545 8.88905 5.55545Z" fill="#292F33"/>
<path d="M11.1112 5.55545C11.418 5.55545 11.6668 5.30672 11.6668 4.99989C11.6668 4.69307 11.418 4.44434 11.1112 4.44434C10.8044 4.44434 10.5557 4.69307 10.5557 4.99989C10.5557 5.30672 10.8044 5.55545 11.1112 5.55545Z" fill="#292F33"/>
<path d="M7.03876 5.04088C7.01543 5.04088 6.9921 5.0381 6.96821 5.03199C6.81988 4.9931 6.73099 4.84143 6.76988 4.6931C7.04099 3.65588 8.10599 3.0331 9.14265 3.30254C9.29099 3.34143 9.37988 3.4931 9.34099 3.64143C9.3021 3.78977 9.15043 3.87699 9.0021 3.83977C8.2621 3.64699 7.50099 4.09254 7.30765 4.8331C7.27488 4.9581 7.1621 5.04088 7.03876 5.04088ZM12.961 5.04088C12.8371 5.04088 12.7249 4.9581 12.6927 4.8331C12.5988 4.47421 12.371 4.1731 12.051 3.98588C11.731 3.79754 11.3571 3.74588 10.9977 3.84032C10.8482 3.87865 10.6977 3.78977 10.6593 3.64199C10.6204 3.4931 10.7093 3.34143 10.8577 3.3031C11.3582 3.17199 11.8832 3.24421 12.3315 3.50699C12.7799 3.76977 13.0988 4.19088 13.2293 4.69365C13.2682 4.84199 13.1793 4.99365 13.031 5.03254C13.0077 5.03754 12.9838 5.04088 12.961 5.04088Z" fill="#FFE8B6"/>
<path d="M7.22217 1.66688L8.33328 3.33355L8.88883 2.77799L9.99995 4.44466L11.1111 2.77799L11.6666 3.33355L12.7777 1.66688C12.7777 1.66688 11.6666 1.11133 9.99995 1.11133C8.33328 1.11133 7.22217 1.66688 7.22217 1.66688Z" fill="#C09154"/>
<path d="M7.22217 1.66678L8.33328 2.77789L8.88883 1.66678L9.99995 3.33344L11.1111 1.66678L11.6666 2.77789L12.7777 1.66678C12.7777 1.66678 11.6666 0.555664 9.99995 0.555664C8.33328 0.555664 7.22217 1.66678 7.22217 1.66678Z" fill="#E26000"/>
<path d="M9.72211 6.66688C9.87553 6.66688 9.99989 6.54252 9.99989 6.38911C9.99989 6.23569 9.87553 6.11133 9.72211 6.11133C9.5687 6.11133 9.44434 6.23569 9.44434 6.38911C9.44434 6.54252 9.5687 6.66688 9.72211 6.66688Z" fill="#C09154"/>
<path d="M10.2778 6.66688C10.4312 6.66688 10.5556 6.54252 10.5556 6.38911C10.5556 6.23569 10.4312 6.11133 10.2778 6.11133C10.1244 6.11133 10 6.23569 10 6.38911C10 6.54252 10.1244 6.66688 10.2778 6.66688Z" fill="#C09154"/>
<path d="M10 10.5554C7.96392 10.5554 7.06336 9.67817 7.02559 9.64095C6.91725 9.53262 6.91725 9.35651 7.02559 9.24817C7.13392 9.1404 7.30892 9.13984 7.41725 9.24706C7.42503 9.25429 8.21281 9.99984 10 9.99984C11.7878 9.99984 12.575 9.25428 12.5823 9.24651C12.6917 9.1404 12.8678 9.14151 12.9745 9.24984C13.0817 9.35817 13.0817 9.53262 12.9739 9.6404C12.9367 9.67817 12.0361 10.5554 10 10.5554Z" fill="#292F33"/>
<path d="M9.60826 17.2227C9.47771 18.4583 6.83049 19.4449 6.27493 18.3338C6.13771 18.0594 4.97437 15.5916 4.8666 15.3044C4.75882 15.0172 4.90437 14.6966 5.19215 14.5894C5.47993 14.4822 5.79993 14.6272 5.90715 14.9149C5.79937 14.6277 5.94493 14.3072 6.23271 14.1999C6.51993 14.0922 6.84049 14.2377 6.94771 14.5255C6.83993 14.2383 6.98549 13.9177 7.27326 13.8105C7.56049 13.7027 7.88104 13.8483 7.98826 14.1361C7.88049 13.8488 8.02604 13.5283 8.31382 13.4211C8.6016 13.3138 8.9216 13.4588 9.02882 13.7466C9.13604 14.0322 9.6666 16.6705 9.60826 17.2227ZM10.3916 17.2227C10.5222 18.4583 13.1694 19.4449 13.7249 18.3338C13.8622 18.0594 15.0255 15.5916 15.1333 15.3044C15.241 15.0172 15.0955 14.6966 14.8077 14.5894C14.5199 14.4822 14.1999 14.6272 14.0927 14.9149C14.2005 14.6277 14.0549 14.3072 13.7672 14.1999C13.4799 14.0922 13.1594 14.2377 13.0522 14.5255C13.1599 14.2383 13.0144 13.9177 12.7266 13.8105C12.4394 13.7027 12.1188 13.8483 12.0116 14.1361C12.1194 13.8488 11.9738 13.5283 11.686 13.4211C11.3983 13.3138 11.0783 13.4588 10.971 13.7466C10.8638 14.0322 10.3333 16.6705 10.3916 17.2227Z" fill="#D9B981"/>
</svg>
