<svg width="14" height="22" viewBox="0 0 14 22" fill="none" xmlns="http://www.w3.org/2000/svg">
<path d="M14 20.3333C14 20.9773 13.4773 21.5 12.8333 21.5H1.16667C0.522667 21.5 0 20.9773 0 20.3333V1.66667C0 1.02267 0.522667 0.5 1.16667 0.5H12.8333C13.4773 0.5 14 1.02267 14 1.66667V20.3333Z" fill="#292F33"/>
<path d="M12.8332 9.83366C12.8332 10.1557 12.5724 10.417 12.2498 10.417H1.74984C1.42784 10.417 1.1665 10.1557 1.1665 9.83366V2.25033C1.1665 1.92833 1.42784 1.66699 1.74984 1.66699H12.2498C12.5724 1.66699 12.8332 1.92833 12.8332 2.25033V9.83366ZM12.8332 19.7503C12.8332 20.0729 12.5724 20.3337 12.2498 20.3337H1.74984C1.42784 20.3337 1.1665 20.0729 1.1665 19.7503V12.167C1.1665 11.8444 1.42784 11.5837 1.74984 11.5837H12.2498C12.5724 11.5837 12.8332 11.8444 12.8332 12.167V19.7503Z" fill="#66757F"/>
<path d="M9.33317 5.16634C9.33317 5.48834 9.07242 5.74967 8.74984 5.74967H5.24984C4.92784 5.74967 4.6665 5.48834 4.6665 5.16634V3.41634C4.6665 3.09434 4.92784 2.83301 5.24984 2.83301H8.74984C9.07242 2.83301 9.33317 3.09434 9.33317 3.41634V5.16634ZM9.33317 15.083C9.33317 15.4056 9.07242 15.6663 8.74984 15.6663H5.24984C4.92784 15.6663 4.6665 15.4056 4.6665 15.083V13.333C4.6665 13.0104 4.92784 12.7497 5.24984 12.7497H8.74984C9.07242 12.7497 9.33317 13.0104 9.33317 13.333V15.083Z" fill="#292F33"/>
<path d="M5.25 3.41699H8.75V5.16699H5.25V3.41699ZM5.25 13.3337H8.75V15.0837H5.25V13.3337ZM10.5 8.10116C10.5 8.41383 10.2463 8.66699 9.93417 8.66699H4.06583C3.75317 8.66699 3.5 8.41324 3.5 8.10116V8.06616C3.5 7.75349 3.75317 7.50033 4.06583 7.50033H9.93417C10.2463 7.50033 10.5 7.75408 10.5 8.06616V8.10116ZM10.5 18.0172C10.5 18.3299 10.2463 18.5837 9.93417 18.5837H4.06583C3.75317 18.5837 3.5 18.3299 3.5 18.0172V17.9828C3.5 17.6707 3.75317 17.417 4.06583 17.417H9.93417C10.2463 17.417 10.5 17.6707 10.5 17.9834V18.0172Z" fill="#E1E8ED"/>
</svg>
