<svg width="20" height="20" viewBox="0 0 20 20" fill="none" xmlns="http://www.w3.org/2000/svg">
<path d="M10 20C15.5228 20 20 15.5228 20 10C20 4.47715 15.5228 0 10 0C4.47715 0 0 4.47715 0 10C0 15.5228 4.47715 20 10 20Z" fill="#CCD6DD"/>
<path d="M9.99995 17.7782C14.2955 17.7782 17.7777 14.296 17.7777 10.0004C17.7777 5.70489 14.2955 2.22266 9.99995 2.22266C5.7044 2.22266 2.22217 5.70489 2.22217 10.0004C2.22217 14.296 5.7044 17.7782 9.99995 17.7782Z" fill="#3B88C3"/>
<path d="M9.99989 15.5554C13.0681 15.5554 15.5554 13.0681 15.5554 9.99989C15.5554 6.93164 13.0681 4.44434 9.99989 4.44434C6.93164 4.44434 4.44434 6.93164 4.44434 9.99989C4.44434 13.0681 6.93164 15.5554 9.99989 15.5554Z" fill="#DD2E44"/>
<path d="M9.99984 13.3337C11.8408 13.3337 13.3332 11.8413 13.3332 10.0003C13.3332 8.15938 11.8408 6.66699 9.99984 6.66699C8.15889 6.66699 6.6665 8.15938 6.6665 10.0003C6.6665 11.8413 8.15889 13.3337 9.99984 13.3337Z" fill="#FFAC33"/>
<path d="M19.3691 16.2221C19.1357 16.3921 18.6707 16.551 18.2946 16.551C17.2029 16.551 15.7091 16.1527 14.7757 15.2254L13.1346 13.0743C12.9824 12.9215 12.9363 12.7549 13.0179 12.5565C13.1002 12.3571 12.6124 12.2227 12.8279 12.2227H15.6379C16.6752 12.2227 18.0313 12.9204 18.9296 13.8993L19.1357 14.0943C19.5646 14.5627 19.7929 14.9993 19.7924 15.4199C19.7924 15.7649 19.6413 16.0238 19.3691 16.2221Z" fill="black"/>
<path d="M15.7249 19.5582C15.2966 19.5582 14.8183 19.3265 14.3416 18.8893L14.0705 18.6793C13.0733 17.7654 12.2222 16.3843 12.2222 15.3282V12.4593C12.2222 12.2393 12.4999 12.7448 12.7027 12.6609C12.9044 12.5776 13.2111 12.6243 13.3666 12.7798L15.1255 14.5154C16.0694 15.4659 16.8261 17.0815 16.8261 18.1932C16.8261 18.5759 16.7466 18.8904 16.5749 19.1276C16.3727 19.4048 16.0766 19.5582 15.7249 19.5582Z" fill="black"/>
<path d="M17.4139 17.7582C17.2717 17.7582 17.1433 17.6904 17.0344 17.5821L9.25667 9.80429C9.03944 9.58707 9.03944 9.23595 9.25667 9.01818C9.47389 8.80095 9.825 8.80151 10.0422 9.01818L17.82 16.796C18.0372 17.0132 18.03 17.3715 17.8128 17.5887C17.705 17.6971 17.5567 17.7582 17.4139 17.7582Z" fill="#C1694F"/>
</svg>
