<svg width="16" height="20" viewBox="0 0 16 20" fill="none" xmlns="http://www.w3.org/2000/svg">
<path d="M6.85693 2.57227H9.14265V4.28655H6.85693V2.57227Z" fill="#292F33"/>
<path d="M10.2856 0.286133H5.71415C5.08557 0.286133 4.57129 0.800419 4.57129 1.42899C4.57129 2.05756 5.08557 2.57185 5.71415 2.57185H10.2856C10.9141 2.57185 11.4284 2.05756 11.4284 1.42899C11.4284 0.800419 10.9141 0.286133 10.2856 0.286133ZM13.8193 6.29013L12.9599 5.53699C12.4873 5.1227 12.4393 4.39699 12.8536 3.92442C13.2679 3.45185 13.9936 3.40385 14.4661 3.81813L15.3256 4.57128C15.7981 4.98556 15.8461 5.71128 15.4319 6.18385C15.0176 6.65642 14.2919 6.70442 13.8193 6.29013Z" fill="#8899A6"/>
<path d="M8.00007 18.0001C11.4716 18.0001 14.2858 15.1859 14.2858 11.7144C14.2858 8.24292 11.4716 5.42871 8.00007 5.42871C4.52857 5.42871 1.71436 8.24292 1.71436 11.7144C1.71436 15.1859 4.52857 18.0001 8.00007 18.0001Z" fill="#F5F8FA"/>
<path d="M8 3.71484C3.58171 3.71484 0 7.29656 0 11.7148C0 16.1331 3.58171 19.7148 8 19.7148C12.4183 19.7148 16 16.1331 16 11.7148C16 7.29656 12.4183 3.71484 8 3.71484ZM8 18.0006C4.53429 18.0006 1.71429 15.1806 1.71429 11.7148C1.71429 8.24913 4.53429 5.42913 8 5.42913C11.4657 5.42913 14.2857 8.24913 14.2857 11.7148C14.2857 15.1806 11.4657 18.0006 8 18.0006Z" fill="#66757F"/>
<path d="M13.1426 12.2864H7.42836C7.11293 12.2864 6.85693 12.031 6.85693 11.715C6.85693 11.399 7.11293 11.1436 7.42836 11.1436H13.1426C13.4586 11.1436 13.7141 11.399 13.7141 11.715C13.7141 12.031 13.4586 12.2864 13.1426 12.2864Z" fill="#292F33"/>
<path d="M8.00014 7.14286C8.31573 7.14286 8.57157 6.88702 8.57157 6.57143C8.57157 6.25584 8.31573 6 8.00014 6C7.68455 6 7.42871 6.25584 7.42871 6.57143C7.42871 6.88702 7.68455 7.14286 8.00014 7.14286Z" fill="#292F33"/>
<path d="M8.00014 17.429C8.31573 17.429 8.57157 17.1732 8.57157 16.8576C8.57157 16.542 8.31573 16.2861 8.00014 16.2861C7.68455 16.2861 7.42871 16.542 7.42871 16.8576C7.42871 17.1732 7.68455 17.429 8.00014 17.429Z" fill="#292F33"/>
<path d="M4.57143 8.8577C4.88702 8.8577 5.14286 8.60186 5.14286 8.28627C5.14286 7.97068 4.88702 7.71484 4.57143 7.71484C4.25584 7.71484 4 7.97068 4 8.28627C4 8.60186 4.25584 8.8577 4.57143 8.8577Z" fill="#292F33"/>
<path d="M11.4284 15.7151C11.744 15.7151 11.9998 15.4593 11.9998 15.1437C11.9998 14.8281 11.744 14.5723 11.4284 14.5723C11.1128 14.5723 10.8569 14.8281 10.8569 15.1437C10.8569 15.4593 11.1128 15.7151 11.4284 15.7151Z" fill="#292F33"/>
<path d="M2.85707 12.2864C3.17266 12.2864 3.4285 12.0306 3.4285 11.715C3.4285 11.3994 3.17266 11.1436 2.85707 11.1436C2.54148 11.1436 2.28564 11.3994 2.28564 11.715C2.28564 12.0306 2.54148 12.2864 2.85707 12.2864Z" fill="#292F33"/>
<path d="M11.4284 8.8577C11.744 8.8577 11.9998 8.60186 11.9998 8.28627C11.9998 7.97068 11.744 7.71484 11.4284 7.71484C11.1128 7.71484 10.8569 7.97068 10.8569 8.28627C10.8569 8.60186 11.1128 8.8577 11.4284 8.8577Z" fill="#292F33"/>
<path d="M4.57157 15.7143C4.42529 15.7143 4.279 15.6583 4.16757 15.5469C3.94414 15.3234 3.94414 14.9623 4.16757 14.7389L8.16757 10.7389C8.391 10.5154 8.75214 10.5154 8.97557 10.7389C9.199 10.9623 9.199 11.3234 8.97557 11.5469L4.97557 15.5469C4.86414 15.6583 4.71786 15.7143 4.57157 15.7143Z" fill="#DD2E44"/>
</svg>
