<svg width="20" height="20" viewBox="0 0 20 20" fill="none" xmlns="http://www.w3.org/2000/svg">
<path d="M1.6665 8.88867H18.3332V18.8887H1.6665V8.88867Z" fill="#66757F"/>
<path d="M1.11111 18.8887H18.8889C19.5022 18.8887 20 19.3864 20 19.9998H0C0 19.3864 0.497778 18.8887 1.11111 18.8887Z" fill="#CCD6DD"/>
<path d="M10.0002 12.7773C9.07961 12.7773 8.3335 13.5235 8.3335 14.444V17.7773H11.6668V14.444C11.6668 13.5235 10.9207 12.7773 10.0002 12.7773Z" fill="#292F33"/>
<path d="M1.6665 11.667H3.88873V17.7781H1.6665V11.667ZM4.99984 11.667H7.22206V17.7781H4.99984V11.667ZM16.1109 11.667H18.3332V17.7781H16.1109V11.667ZM12.7776 11.667H14.9998V17.7781H12.7776V11.667Z" fill="#CCD6DD"/>
<path d="M1.11133 17.7773H18.8891V18.8885H1.11133V17.7773Z" fill="#AAB8C2"/>
<path d="M20 6.11111L10 0L0 6.11111H20Z" fill="#66757F"/>
<path d="M10.0002 1.33301L1.11133 6.66634V8.88856H18.8891V6.66634L10.0002 1.33301Z" fill="#CCD6DD"/>
<path d="M1.6665 10.5557H3.88873V11.6668H1.6665V10.5557ZM4.99984 10.5557H7.22206V11.6668H4.99984V10.5557ZM12.7776 10.5557H14.9998V11.6668H12.7776V10.5557ZM16.1109 10.5557H18.3332V11.6668H16.1109V10.5557Z" fill="#8899A6"/>
<path d="M0.555664 6.66699H19.4446V9.44477H0.555664V6.66699Z" fill="#CCD6DD"/>
<path d="M20 6.66678C20 6.97344 19.7517 7.22233 19.4444 7.22233H0.555556C0.248889 7.22233 0 6.97344 0 6.66678V6.11122C0 5.80455 0.248889 5.55566 0.555556 5.55566H19.4444C19.7517 5.55566 20 5.80455 20 6.11122V6.66678ZM20 10.0001C20 10.3068 19.7517 10.5557 19.4444 10.5557H0.555556C0.248889 10.5557 0 10.3068 0 10.0001V9.44455C0 9.13789 0.248889 8.889 0.555556 8.889H19.4444C19.7517 8.889 20 9.13789 20 9.44455V10.0001Z" fill="#AAB8C2"/>
<path d="M7.22217 17.7773H12.7777V18.8885H7.22217V17.7773Z" fill="#E1E8ED"/>
<path d="M6.11133 18.8887H13.8891V19.9998H6.11133V18.8887Z" fill="#F5F8FA"/>
</svg>
