<svg width="21" height="21" viewBox="0 0 21 21" fill="none" xmlns="http://www.w3.org/2000/svg">
<path d="M18.9466 14.4959C18.5589 13.9326 18.7754 13.1183 18.6789 12.2191C18.5796 10.7522 17.9493 9.33102 16.7267 8.19429L12.5624 4.32227C12.5624 4.32227 11.7419 3.55869 10.9778 4.37972C10.2148 5.2002 11.0358 5.96378 11.0358 5.96378L12.795 7.60027L14.3199 9.01811C14.3199 9.01811 13.9378 9.42863 12.25 7.85907L6.54967 2.55694C6.54967 2.55694 5.72808 1.79392 4.9645 2.61495C4.20148 3.43542 5.02195 4.19901 5.02195 4.19901L10.4122 9.21277C10.4005 9.20162 10.0045 9.59875 9.99723 9.59205L4.22992 4.22801C4.22992 4.22801 3.40889 3.46443 2.64531 4.28546C1.88172 5.10649 2.70276 5.86952 2.70276 5.86952L8.47062 11.2347C8.47731 11.2414 8.10584 11.6608 8.117 11.6714L3.14172 7.04306C3.14172 7.04306 2.32069 6.27948 1.5571 7.10051C0.793522 7.92154 1.61455 8.68512 1.61455 8.68512L6.90441 13.6046C6.95294 13.6498 6.62553 14.1111 6.68633 14.1674L2.87455 10.6222C2.87455 10.6222 2.05352 9.85867 1.28993 10.6803C0.526351 11.5013 1.34738 12.2649 1.34738 12.2649L7.56481 18.045C8.60281 19.0105 9.6687 19.4991 10.9538 19.6781C11.2154 19.7144 11.5501 19.7144 11.6873 19.7317C12.1206 19.7864 12.501 19.9403 13.0103 20.2526C13.6657 20.6542 14.649 20.8216 15.214 20.2175L17.1405 18.1566L18.9193 16.2535C19.4837 15.65 19.3828 15.129 18.9466 14.4959Z" fill="#EF9645"/>
<path d="M2.02067 20.4519C1.87788 20.4519 1.73509 20.3972 1.62632 20.2885C1.40824 20.0704 1.40824 19.7179 1.62632 19.4998L3.60695 17.5203C3.82504 17.3022 4.17755 17.3022 4.39564 17.5203C4.61372 17.7384 4.61372 18.0909 4.39564 18.3089L2.41501 20.289C2.30624 20.3978 2.16345 20.4519 2.02067 20.4519ZM5.78336 20.9662C5.72256 20.9662 5.66009 20.9561 5.59874 20.9349C5.30814 20.8334 5.15476 20.5155 5.25683 20.2243L5.79842 18.6776C5.89993 18.387 6.21842 18.2342 6.50901 18.3352C6.79961 18.4372 6.953 18.7552 6.85092 19.0458L6.30933 20.5924C6.22902 20.8222 6.01372 20.9662 5.78336 20.9662ZM1.50696 16.6898C1.27716 16.6898 1.06187 16.5464 0.980989 16.3177C0.87836 16.0271 1.03063 15.7086 1.32123 15.606L2.71285 15.1146C3.00457 15.0142 3.32194 15.1654 3.42456 15.4549C3.52719 15.7455 3.37492 16.0639 3.08433 16.1666L1.6927 16.658C1.63079 16.6797 1.56832 16.6898 1.50696 16.6898ZM17.9388 4.54885C17.796 4.54885 17.6532 4.49419 17.5444 4.38542C17.3263 4.16733 17.3263 3.81427 17.5444 3.59618L19.5256 1.61611C19.7437 1.39858 20.0962 1.39858 20.3143 1.61611C20.5324 1.83364 20.5324 2.18726 20.3143 2.40535L18.3331 4.38542C18.2243 4.49474 18.0816 4.54885 17.9388 4.54885ZM15.6162 3.60232C15.5554 3.60232 15.493 3.59172 15.4322 3.57052C15.1416 3.46901 14.9882 3.15108 15.0897 2.85993L15.6307 1.31324C15.7328 1.02265 16.0502 0.86926 16.3413 0.970774C16.6319 1.07229 16.7853 1.39021 16.6838 1.68137L16.1428 3.22806C16.0624 3.45841 15.8466 3.60232 15.6162 3.60232ZM19.0426 6.82286C18.8128 6.82286 18.5975 6.67951 18.5166 6.45083C18.414 6.16023 18.5668 5.84175 18.8568 5.73912L20.2479 5.24773C20.5391 5.14454 20.857 5.29793 20.9596 5.58797C21.0623 5.87856 20.9094 6.19705 20.6194 6.29968L19.2283 6.79107C19.1664 6.81282 19.1039 6.82286 19.0426 6.82286Z" fill="#FA743E"/>
<path d="M20.6692 14.2024C20.3005 13.6268 20.5443 12.8197 20.4784 11.9178C20.4282 10.4486 19.8465 9.0068 18.6629 7.82935L14.6314 3.81957C14.6314 3.81957 13.8371 3.02921 13.0457 3.82403C12.2553 4.61829 13.0501 5.4092 13.0501 5.4092L14.7535 7.10425L16.2294 8.5723C16.2294 8.5723 15.8334 8.96943 14.1997 7.34409C12.5649 5.7182 8.68113 1.85288 8.68113 1.85288C8.68113 1.85288 7.88631 1.06253 7.0954 1.85734C6.30448 2.6516 7.0993 3.44196 7.0993 3.44196L12.3178 8.63477C12.3066 8.62361 11.8972 9.0068 11.89 8.99955L6.30671 3.44419C6.30671 3.44419 5.5119 2.65328 4.72098 3.44809C3.93063 4.24291 4.72489 5.03327 4.72489 5.03327L10.3087 10.5897C10.3154 10.5964 9.92941 11.003 9.94056 11.0142L5.12425 6.22131C5.12425 6.22131 4.32943 5.43095 3.53852 6.22577C2.7476 7.02059 3.54242 7.8115 3.54242 7.8115L8.66328 12.9067C8.71013 12.953 8.36766 13.4037 8.42623 13.4622L4.73604 9.79046C4.73604 9.79046 3.94123 9.0001 3.15031 9.79492C2.3594 10.5897 3.15422 11.3807 3.15422 11.3807L9.17252 17.3666C10.1776 18.3667 11.2262 18.8904 12.5046 19.113C12.7651 19.1581 13.0998 19.1693 13.2358 19.1911C13.667 19.2602 14.0418 19.427 14.541 19.7566C15.1825 20.18 16.1597 20.3802 16.7448 19.7957L18.7399 17.8011L20.5816 15.9594C21.1667 15.3737 21.0836 14.8494 20.6692 14.2024Z" fill="#FFDB5E"/>
</svg>
