<svg width="22" height="19" viewBox="0 0 22 19" fill="none" xmlns="http://www.w3.org/2000/svg">
<path d="M19.0414 5.10779C20.2602 3.88895 21.9133 13.3284 17.3182 17.1698C15.7347 18.4938 13.8719 18.8752 12.7232 18.8752C11.3613 18.8752 6.96268 18.893 5.25619 18.893C1.13213 18.893 0.661133 16.0641 0.661133 12.5748C0.661133 9.08539 1.13213 6.25656 5.25619 6.25656C8.70249 6.25656 11 7.40532 12.7232 8.55179C15.5819 10.4541 16.1649 10.7695 17.3182 9.70285C19.1637 7.99694 17.8926 6.25656 19.0414 5.10779Z" fill="#3B88C3"/>
<path d="M20.192 11.4268C19.9249 13.5675 19.0197 15.7478 17.3183 17.1706C15.7348 18.4945 13.8721 18.8759 12.7233 18.8759C11.3614 18.8759 6.9628 18.8937 5.25631 18.8937C2.93868 18.8937 1.7744 18.0006 1.20002 16.5985C0.751429 15.506 2.95878 17.1706 9.27699 17.1706C17.3183 17.1706 19.0415 14.2987 20.192 11.4268Z" fill="#55ACEE"/>
<path d="M19.0413 6.25672C21.4095 6.25672 21.3388 3.3848 21.3388 2.23604C21.3388 1.08727 20.1901 2.81042 18.4669 3.3848C16.7438 3.95918 14.4462 2.23604 15.0206 3.3848C15.595 4.53357 16.7438 6.25672 19.0413 6.25672Z" fill="#3B88C3"/>
<path d="M6.40495 2.23677C6.40495 3.50558 5.89031 5.68306 5.25619 5.68306C4.62207 5.68306 4.10742 3.50558 4.10742 2.23677C4.10742 0.967954 4.62207 1.088 5.25619 1.088C5.89031 1.088 6.40495 0.967954 6.40495 2.23677Z" fill="#55ACEE"/>
<path d="M5.25635 1.08753C5.25635 -0.635617 1.81006 -0.0612344 1.81006 1.08753C1.81006 2.2363 3.53321 1.66191 4.10759 2.81068C4.68197 3.95944 5.25635 1.08753 5.25635 1.08753ZM5.25635 1.08753C5.25635 -0.635617 8.70265 -0.0612344 8.70265 1.08753C8.70265 2.2363 6.9795 1.66191 6.40512 2.81068C5.83074 3.95944 5.25635 1.08753 5.25635 1.08753Z" fill="#55ACEE"/>
<path d="M4.39478 13.7241C4.87061 13.7241 5.25635 13.3384 5.25635 12.8626C5.25635 12.3867 4.87061 12.001 4.39478 12.001C3.91894 12.001 3.5332 12.3867 3.5332 12.8626C3.5332 13.3384 3.91894 13.7241 4.39478 13.7241Z" fill="#292F33"/>
</svg>
