<svg width="21" height="21" viewBox="0 0 21 21" fill="none" xmlns="http://www.w3.org/2000/svg">
<path d="M9.79165 12.8997C10.779 12.8997 11.5794 12.0993 11.5794 11.112C11.5794 10.1246 10.779 9.32422 9.79165 9.32422C8.80431 9.32422 8.00391 10.1246 8.00391 11.112C8.00391 12.0993 8.80431 12.8997 9.79165 12.8997Z" fill="#9AAAB4"/>
<path d="M11.1237 9.3593C10.9693 9.64832 10.6064 9.75916 10.3174 9.60481L2.95605 5.67893C2.66703 5.52458 2.55679 5.16167 2.71054 4.87265L4.3928 1.71728C4.54715 1.42827 4.91006 1.31802 5.19908 1.47177L12.5604 5.39765C12.8494 5.552 12.9603 5.91491 12.8059 6.20393L11.1237 9.3593Z" fill="#DA2F47"/>
<path d="M18.2399 12.4778C18.0856 12.7668 17.7226 12.8777 17.433 12.7233L11.6497 9.63886C11.3607 9.48451 11.2498 9.1216 11.4042 8.83199L12.5257 6.729C12.68 6.43998 13.0429 6.32974 13.3325 6.48349L19.1159 9.56794C19.4049 9.72228 19.5158 10.0852 19.3614 10.3748L18.2399 12.4778Z" fill="#DA2F47"/>
<path d="M11.1235 9.35828L12.8064 6.2041L13.8582 6.76486L12.1747 9.91963L11.1235 9.35828Z" fill="#BB1A34"/>
<path d="M16.9082 12.4438L18.5905 9.28906L20.694 10.4106L19.0112 13.5653L16.9082 12.4438Z" fill="#9D0522"/>
<path d="M4.60381 3.85567L5.72532 1.75209L5.20032 1.47201V1.47141L2.57055 0.0698209C2.28153 -0.0845211 1.91862 0.0257232 1.76428 0.314742L0.0820107 3.47011C-0.0723313 3.75973 0.037913 4.12204 0.327528 4.27638L2.43051 5.3979L3.4829 5.95865L3.76298 5.43305L4.60381 3.85567ZM13.3673 14.0911C13.3673 14.749 12.8334 15.2829 12.1755 15.2829H7.40819C6.7503 15.2829 6.21636 14.749 6.21636 14.0911C6.21636 13.4332 6.7503 12.8993 7.40819 12.8993H12.1755C12.8334 12.8993 13.3673 13.4332 13.3673 14.0911Z" fill="#292F33"/>
<path d="M5.30284 20.6459L7.29558 16.3839C7.57447 15.788 7.31703 15.0783 6.72052 14.8C6.12461 14.5205 5.41487 14.7779 5.13658 15.375L2.67188 20.6459H5.30284ZM14.2803 20.6459H16.9119L14.4466 15.3744C14.1683 14.7773 13.4585 14.5199 12.8626 14.7994C12.2661 15.0777 12.0087 15.7874 12.2876 16.3833L14.2803 20.6459ZM10.9837 20.6459V15.8786C10.9837 15.2207 10.4498 14.6868 9.79187 14.6868C9.13398 14.6868 8.60004 15.2207 8.60004 15.8786V20.6459H10.9837Z" fill="#9AAAB4"/>
</svg>
