<svg width="20" height="22" viewBox="0 0 20 22" fill="none" xmlns="http://www.w3.org/2000/svg">
<path d="M20 15.7062C20 17.0056 18.9465 18.0592 17.6471 18.0592H2.35294C1.05353 18.0592 0 17.0056 0 15.7062V4.12564C0 2.82623 3.40647 0.412109 4.70588 0.412109H16.8382C18.6582 0.412109 20 1.77211 20 3.57387V15.7062Z" fill="#F4900C"/>
<path d="M18.8233 18.0597C18.8233 19.3591 17.7698 20.4126 16.4704 20.4126H3.52921C2.2298 20.4126 1.17627 19.3591 1.17627 18.0597V3.94202C1.17627 1.51908 1.16392 1.58908 4.11745 1.58908H16.4704C17.7698 1.58908 18.8233 2.64261 18.8233 3.94202V18.0597Z" fill="#CCD6DD"/>
<path d="M17.6471 18.647C17.6471 19.6217 16.8571 20.4117 15.8824 20.4117H1.76471C0.79 20.4117 0 19.6217 0 18.647V4.52935C0 3.55465 0.79 2.76465 1.76471 2.76465H15.8824C16.8571 2.76465 17.6471 3.55465 17.6471 4.52935V18.647Z" fill="#E1E8ED"/>
<path d="M17.6472 19.2355C17.6472 20.5349 16.5937 21.5885 15.2943 21.5885H2.94132C1.64191 21.5885 0.588379 20.5349 0.588379 19.2355V6.29435C0.588379 4.99494 1.64191 3.94141 2.94132 3.94141H15.2943C16.5937 3.94141 17.6472 4.99494 17.6472 6.29435V19.2355Z" fill="#F4900C"/>
<path d="M16.4707 19.2358C16.4707 20.5352 15.4172 21.5888 14.1178 21.5888H2.94132C1.64191 21.5888 0.588379 20.5352 0.588379 19.2358V7.47111C0.588379 6.17169 1.64191 5.11816 2.94132 5.11816H14.3148C15.6143 5.11816 16.4707 5.97463 16.4707 7.27405V19.2358Z" fill="#FFAC33"/>
<path d="M2.94118 3.94152C1.94824 3.94152 1.92294 2.81093 2.35294 2.32387C2.84235 1.77034 3.60294 1.58858 4.96353 1.58858H5.88235V0.412109H4.28294C1.94824 0.412109 0 1.8827 0 3.57387V19.2356C0 20.535 1.05353 21.5886 2.35294 21.5886H3.52941V3.94152H2.94118Z" fill="#F4900C"/>
</svg>
