<svg width="20" height="20" viewBox="0 0 20 20" fill="none" xmlns="http://www.w3.org/2000/svg">
<path d="M17.6472 0.587891H2.35308C1.37838 0.587891 0.588379 1.37789 0.588379 2.3526V17.6467C0.588379 18.6214 1.37838 19.4114 2.35308 19.4114H17.6472C18.6219 19.4114 19.4119 18.6214 19.4119 17.6467V2.3526C19.4119 1.37789 18.6219 0.587891 17.6472 0.587891Z" fill="#CCD6DD"/>
<path d="M17.6471 0H2.35294C1.05353 0 0 1.05353 0 2.35294V17.6471C0 18.9465 1.05353 20 2.35294 20H17.6471C18.9465 20 20 18.9465 20 17.6471V2.35294C20 1.05353 18.9465 0 17.6471 0ZM17.6471 1.17647C18.2959 1.17647 18.8235 1.70412 18.8235 2.35294V4.70588H15.2941V1.17647H17.6471ZM15.2941 10.5882H18.8235V14.1176H15.2941V10.5882ZM15.2941 9.41177V5.88235H18.8235V9.41177H15.2941ZM14.1176 1.17647V4.70588H10.5882V1.17647H14.1176ZM10.5882 5.88235H14.1176V9.41177H10.5882V5.88235ZM10.5882 10.5882H14.1176V14.1176H10.5882V10.5882ZM9.41177 1.17647V4.70588H5.88235V1.17647H9.41177ZM5.88235 5.88235H9.41177V9.41177H5.88235V5.88235ZM5.88235 10.5882H9.41177V14.1176H5.88235V10.5882ZM1.17647 2.35294C1.17647 1.70412 1.70412 1.17647 2.35294 1.17647H4.70588V4.70588H1.17647V2.35294ZM1.17647 5.88235H4.70588V9.41177H1.17647V5.88235ZM1.17647 10.5882H4.70588V14.1176H1.17647V10.5882ZM2.35294 18.8235C1.70412 18.8235 1.17647 18.2959 1.17647 17.6471V15.2941H4.70588V18.8235H2.35294ZM5.88235 18.8235V15.2941H9.41177V18.8235H5.88235ZM10.5882 18.8235V15.2941H14.1176V18.8235H10.5882ZM17.6471 18.8235H15.2941V15.2941H18.8235V17.6471C18.8235 18.2959 18.2959 18.8235 17.6471 18.8235Z" fill="#E1E8ED"/>
<path d="M2.35167 18.8231C2.16343 18.8231 1.97226 18.7784 1.7952 18.6825C1.22285 18.3749 1.00932 17.6613 1.31696 17.089L5.43461 9.44193C5.61049 9.11428 5.93167 8.88957 6.29932 8.83546C6.66755 8.78134 7.03932 8.90487 7.30226 9.16781L10.8764 12.7419L16.6046 1.80663C16.9058 1.23134 17.617 1.0084 18.1923 1.31075C18.7681 1.61193 18.9899 2.3231 18.6887 2.89899L12.2181 15.2519C12.0446 15.5837 11.7234 15.8125 11.3534 15.8696C10.9846 15.9231 10.6087 15.8031 10.344 15.5384L6.75579 11.9507L3.38873 18.2043C3.17637 18.599 2.77049 18.8231 2.35167 18.8231Z" fill="#0D6EFD"/>
</svg>
