<svg width="21" height="22" viewBox="0 0 21 22" fill="none" xmlns="http://www.w3.org/2000/svg">
<path d="M3.63343 13.6357C4.76997 13.3312 5.33862 11.768 4.90354 10.1441C4.46847 8.52028 3.19442 7.45076 2.05788 7.75527C0.921347 8.05978 0.352699 9.62302 0.787775 11.2469C1.22285 12.8707 2.4969 13.9402 3.63343 13.6357Z" fill="#D79E84"/>
<path d="M19.4121 11.2475C19.8472 9.62364 19.2785 8.0604 18.142 7.75589C17.0054 7.45138 15.7314 8.5209 15.2963 10.1447C14.8612 11.7686 15.4299 13.3318 16.5664 13.6363C17.703 13.9408 18.977 12.8713 19.4121 11.2475Z" fill="#D79E84"/>
<path d="M10.64 21.0445H9.5039C5.75522 21.0445 2.12036 18.1696 2.12036 14.1453C2.12036 11.8458 2.97244 10.6957 2.97244 10.6957C2.97244 10.6957 2.68841 9.54565 2.68841 8.39615C2.68841 4.94712 6.32327 2.07227 10.072 2.07227C13.8206 2.07227 17.4555 5.52186 17.4555 8.39615C17.4555 9.54621 17.1715 10.6957 17.1715 10.6957C17.1715 10.6957 18.0235 11.8458 18.0235 14.1453C18.0235 18.1696 14.3887 21.0445 10.64 21.0445Z" fill="#BF6952"/>
<path d="M16.7679 9.90702C16.7679 7.73693 14.9962 5.97754 12.8111 5.97754C11.7469 5.97754 10.7827 6.39716 10.0718 7.0757C9.36091 6.39716 8.39668 5.97754 7.33256 5.97754C5.1474 5.97754 3.37573 7.73693 3.37573 9.90702C3.37573 11.2234 4.02972 12.3851 5.03022 13.0983C4.74954 13.7891 4.5933 14.5491 4.5933 15.3476C4.5933 18.5193 7.0463 20.4857 10.0718 20.4857C13.0973 20.4857 15.5503 18.5193 15.5503 15.3476C15.5503 14.5491 15.3941 13.7891 15.1134 13.0983C16.1139 12.3851 16.7679 11.2228 16.7679 9.90702Z" fill="#D79E84"/>
<path d="M7.28188 12.255C7.97528 12.255 8.5374 11.443 8.5374 10.4415C8.5374 9.43987 7.97528 8.62793 7.28188 8.62793C6.58848 8.62793 6.02637 9.43987 6.02637 10.4415C6.02637 11.443 6.58848 12.255 7.28188 12.255Z" fill="#292F33"/>
<path d="M12.862 12.255C13.5554 12.255 14.1175 11.443 14.1175 10.4415C14.1175 9.43987 13.5554 8.62793 12.862 8.62793C12.1686 8.62793 11.6064 9.43987 11.6064 10.4415C11.6064 11.443 12.1686 12.255 12.862 12.255Z" fill="#292F33"/>
<path d="M10.0721 19.2172C11.6557 19.2172 13.0039 18.3774 13.5105 17.2028C13.7198 16.7168 13.3643 16.1738 12.8354 16.1738H7.30886C6.77987 16.1738 6.42442 16.7173 6.63367 17.2028C7.14034 18.3774 8.48849 19.2172 10.0721 19.2172Z" fill="#642116"/>
<path d="M9.09536 14.3484C9.40354 14.3484 9.65337 14.0986 9.65337 13.7904C9.65337 13.4822 9.40354 13.2324 9.09536 13.2324C8.78718 13.2324 8.53735 13.4822 8.53735 13.7904C8.53735 14.0986 8.78718 14.3484 9.09536 14.3484Z" fill="#642116"/>
<path d="M11.0485 14.3484C11.3567 14.3484 11.6065 14.0986 11.6065 13.7904C11.6065 13.4822 11.3567 13.2324 11.0485 13.2324C10.7403 13.2324 10.4905 13.4822 10.4905 13.7904C10.4905 14.0986 10.7403 14.3484 11.0485 14.3484Z" fill="#642116"/>
<path d="M12.6723 1.05346C12.6723 1.05346 9.62841 0.444675 8.41139 2.27103C7.19438 4.09739 10.8465 2.87982 10.8465 2.87982C10.8465 2.87982 11.4548 1.05346 12.6723 1.05346Z" fill="#BF6952"/>
</svg>
