<svg width="20" height="20" viewBox="0 0 20 20" fill="none" xmlns="http://www.w3.org/2000/svg">
<path d="M20 10C20 15.5228 15.5228 20 10 20C4.47778 20 0 15.5228 0 10C0 4.47778 4.47778 0 10 0C15.5228 0 20 4.47778 20 10Z" fill="#FFCC4D"/>
<path d="M10.0003 12.2224C7.98749 12.2224 6.65194 11.9879 5.00027 11.6668C4.62305 11.594 3.88916 11.6668 3.88916 12.7779C3.88916 15.0001 6.44194 17.7779 10.0003 17.7779C13.558 17.7779 16.1114 15.0001 16.1114 12.7779C16.1114 11.6668 15.3775 11.5935 15.0003 11.6668C13.3486 11.9879 12.013 12.2224 10.0003 12.2224Z" fill="#664500"/>
<path d="M5 12.7773C5 12.7773 6.66667 13.3329 10 13.3329C13.3333 13.3329 15 12.7773 15 12.7773C15 12.7773 13.8889 14.9996 10 14.9996C6.11111 14.9996 5 12.7773 5 12.7773Z" fill="white"/>
<path d="M17 10.1114C16.9367 10.0642 15.9272 9.31921 14.4189 8.80921C14.4334 8.74533 14.4445 8.67977 14.4445 8.61144C14.4445 8.40644 14.3672 8.22088 14.245 8.07588C15.2461 7.78699 16.0972 7.7781 16.1123 7.7781C16.4184 7.77699 16.6667 7.5281 16.6661 7.22144C16.6656 6.91533 16.4178 6.66699 16.1111 6.66699C15.9884 6.66699 13.0828 6.6881 11.2739 8.49644C11.115 8.65533 11.0672 8.89421 11.1534 9.10199C11.2389 9.30921 11.4422 9.44477 11.6667 9.44477C14.2167 9.44477 16.3128 10.9848 16.3339 11.0009C16.4339 11.0753 16.5506 11.1109 16.6661 11.1109C16.8356 11.1109 17.0022 11.0337 17.1117 10.8887C17.295 10.6425 17.245 10.2953 17 10.1114ZM8.72614 8.49644C6.9178 6.6881 4.01169 6.66699 3.88892 6.66699C3.58225 6.66699 3.33392 6.91533 3.33392 7.22144C3.33336 7.5281 3.58169 7.77699 3.88836 7.7781C3.9028 7.7781 4.75392 7.78699 5.75558 8.07588C5.6328 8.22088 5.55558 8.40644 5.55558 8.61144C5.55558 8.67977 5.56614 8.74533 5.58169 8.80921C4.0728 9.31921 3.06336 10.0642 3.00003 10.1114C2.75447 10.2953 2.70503 10.6437 2.88892 10.8887C2.9978 11.0348 3.16503 11.1114 3.33392 11.1114C3.44947 11.1114 3.56669 11.0753 3.66669 11.0003C3.68725 10.9848 5.77058 9.44477 8.33336 9.44477C8.5578 9.44477 8.76058 9.30921 8.84669 9.10199C8.9328 8.89421 8.88503 8.65533 8.72614 8.49644Z" fill="#664500"/>
</svg>
