<svg width="20" height="21" viewBox="0 0 20 21" fill="none" xmlns="http://www.w3.org/2000/svg">
<path d="M13.5459 8.06543H6.52879C6.52879 8.06543 3.60498 11.574 3.60498 13.9131C3.60498 16.2521 10.0374 20.3454 10.0374 20.3454C10.0374 20.3454 16.4698 16.2521 16.4698 13.9131C16.4698 11.574 13.5459 8.06543 13.5459 8.06543Z" fill="#31373D"/>
<path d="M10.9962 0.627114C10.4693 0.215441 9.60619 0.215441 9.07932 0.627114L0.46986 7.34955C-0.0570108 7.76122 -0.0570108 8.43487 0.46986 8.84654L9.07874 15.5684C9.60619 15.9801 10.4687 15.9801 10.9956 15.5684L19.6045 8.84654C20.1319 8.43487 20.1319 7.76122 19.6045 7.34955L10.9962 0.627114Z" fill="#292F33"/>
<path d="M10.9962 0.627114C10.4693 0.215441 9.60619 0.215441 9.07932 0.627114L0.46986 7.34955C-0.0570108 7.76122 -0.0570108 8.43487 0.46986 8.84654L9.07874 15.5684C9.60561 15.9801 10.4687 15.9801 10.9956 15.5684L19.6051 8.84654C20.1319 8.43487 20.1319 7.76122 19.6051 7.34955L10.9962 0.627114Z" fill="#394146"/>
<path d="M4.18955 14.498C4.18955 14.498 3.02002 15.6676 3.02002 16.2523V19.7609C3.02002 19.7609 3.02002 20.9304 4.18955 20.9304C5.35907 20.9304 5.35907 19.7609 5.35907 19.7609V16.2523C5.35907 15.6676 4.18955 14.498 4.18955 14.498Z" fill="#FCAB40"/>
<path d="M4.18984 16.8367C5.1587 16.8367 5.94412 16.0513 5.94412 15.0824C5.94412 14.1135 5.1587 13.3281 4.18984 13.3281C3.22097 13.3281 2.43555 14.1135 2.43555 15.0824C2.43555 16.0513 3.22097 16.8367 4.18984 16.8367Z" fill="#FDD888"/>
<path d="M4.19001 15.6671C3.86722 15.6671 3.60524 15.4057 3.60524 15.0823V12.7678C3.58068 12.3971 3.71459 11.5772 4.37537 11.0814L9.6511 6.4559C9.89437 6.24246 10.2639 6.26702 10.4762 6.51028C10.6891 6.75295 10.6645 7.12253 10.4218 7.33538L5.11218 11.9889C4.75898 12.2556 4.77418 12.7327 4.77418 12.7374L4.77535 15.0823C4.77535 15.4057 4.51338 15.6671 4.19001 15.6671Z" fill="#FCAB40"/>
<path d="M10.0375 9.23514C11.0064 9.23514 11.7918 8.44972 11.7918 7.48085C11.7918 6.51198 11.0064 5.72656 10.0375 5.72656C9.06862 5.72656 8.2832 6.51198 8.2832 7.48085C8.2832 8.44972 9.06862 9.23514 10.0375 9.23514Z" fill="#31373D"/>
</svg>
