<svg width="14" height="23" viewBox="0 0 14 23" fill="none" xmlns="http://www.w3.org/2000/svg">
<path d="M14 7.28698C14 11.3845 10.8182 12.0209 10.8182 15.8397C10.8182 17.8112 8.83082 17.9773 7.31818 17.9773C6.01173 17.9773 3.12709 17.4815 3.12709 15.8384C3.12709 12.0215 0 11.3852 0 7.28698C0 3.44907 3.36318 0.337891 7.05282 0.337891C10.7437 0.337891 14 3.44907 14 7.28698Z" fill="#FFD983"/>
<path d="M9.6516 20.9303C9.6516 21.4572 8.22996 22.5212 6.99987 22.5212C5.76978 22.5212 4.34814 21.4572 4.34814 20.9303C4.34814 20.4033 5.76914 20.6121 6.99987 20.6121C8.22996 20.6121 9.6516 20.4033 9.6516 20.9303Z" fill="#CCD6DD"/>
<path d="M9.99521 6.79892C9.74639 6.5501 9.34421 6.5501 9.09539 6.79892L6.99985 8.89446L4.9043 6.79892C4.65548 6.5501 4.2533 6.5501 4.00448 6.79892C3.75567 7.04774 3.75567 7.44992 4.00448 7.69874L6.36348 10.0577V16.7943C6.36348 17.1462 6.64858 17.4306 6.99985 17.4306C7.35112 17.4306 7.63621 17.1462 7.63621 16.7943V10.0577L9.99521 7.69874C10.244 7.44992 10.244 7.04774 9.99521 6.79892Z" fill="#FFCC4D"/>
<path d="M10.818 19.9764C10.818 20.6789 10.2478 21.2491 9.54528 21.2491H4.45437C3.75182 21.2491 3.18164 20.6789 3.18164 19.9764V16.1582H10.818V19.9764Z" fill="#99AAB5"/>
<path d="M3.18102 20.6123C2.87557 20.6123 2.60575 20.3914 2.5542 20.0803C2.4963 19.7341 2.73048 19.4057 3.0773 19.3484L10.7137 18.0757C11.0598 18.0134 11.3882 18.252 11.4455 18.5988C11.5034 18.945 11.2692 19.2734 10.9224 19.3306L3.28602 20.6034C3.25102 20.6097 3.21539 20.6123 3.18102 20.6123ZM3.18102 18.0668C2.87557 18.0668 2.60575 17.846 2.5542 17.5348C2.4963 17.1886 2.73048 16.8603 3.0773 16.803L10.7137 15.5303C11.0598 15.4685 11.3882 15.7065 11.4455 16.0534C11.5034 16.3995 11.2692 16.7279 10.9224 16.7852L3.28602 18.0579C3.25102 18.0643 3.21539 18.0668 3.18102 18.0668Z" fill="#CCD6DD"/>
</svg>
