<svg width="22" height="19" viewBox="0 0 22 19" fill="none" xmlns="http://www.w3.org/2000/svg">
<path d="M20.3956 7.18022C19.9022 3.01126 17.1238 1.21404 12.4403 1.21404C12.217 1.21404 12.0046 1.22375 11.7898 1.23175C11.7824 1.22604 11.7773 1.21976 11.7698 1.21404C9.08915 -0.796761 3.05616 -0.126302 1.71638 1.8845C-0.142513 4.67313 1.04592 14.6198 1.71638 15.9596C2.38627 17.3016 4.39708 17.9704 5.06754 17.3016C5.738 16.63 5.06754 16.63 4.39765 15.2908C3.91222 14.3194 4.13152 11.9448 4.54328 10.4531C4.55927 10.5491 4.58211 10.637 4.60039 10.7307C4.82311 12.3703 5.73857 14.9636 5.73857 16.2954C5.73857 18.3307 6.939 18.6408 8.41926 18.6408C9.9001 18.6408 11.1005 18.3307 11.1005 16.2954C11.1005 16.1583 11.096 16.031 11.0937 15.8985C11.526 15.935 11.9703 15.9596 12.4409 15.9596C12.7247 15.9596 12.9988 15.9504 13.2678 15.9373C13.2655 16.0567 13.2604 16.1714 13.2604 16.2954C13.2604 18.3307 14.4614 18.6408 15.9411 18.6408C17.4219 18.6408 18.6223 18.3307 18.6223 16.2954C18.6223 15.2668 19.3031 13.6541 19.7868 12.308C19.8776 12.1059 19.953 11.89 20.0267 11.6701C20.094 12.4165 20.1369 13.2155 20.1369 14.0721C20.1369 14.3879 20.3922 14.6432 20.708 14.6432C21.0238 14.6432 21.2791 14.3879 21.2791 14.0721C21.2791 11.1293 20.8387 8.79069 20.3956 7.18022Z" fill="#99AAB5"/>
<path d="M11.7704 1.21387C11.7704 1.21387 13.8549 4.36343 12.1416 7.21887C10.4283 10.0743 7.66542 10.0743 5.85963 10.0743C4.71745 10.0743 5.28854 11.2165 5.85963 11.2165C6.66715 11.2165 10.6539 11.9081 12.7127 7.78996C14.426 4.36343 11.7704 1.21387 11.7704 1.21387Z" fill="#66757F"/>
<path d="M4.43183 7.21913C4.90494 7.21913 5.28846 6.8356 5.28846 6.36249C5.28846 5.88939 4.90494 5.50586 4.43183 5.50586C3.95872 5.50586 3.5752 5.88939 3.5752 6.36249C3.5752 6.8356 3.95872 7.21913 4.43183 7.21913Z" fill="#292F33"/>
</svg>
