<svg width="20" height="20" viewBox="0 0 20 20" fill="none" xmlns="http://www.w3.org/2000/svg">
<path d="M5.58773 6.61719C7.24194 9.37421 5.58773 12.5128 3.93351 11.9614C2.2793 11.41 1.72789 13.0642 3.38211 13.6156C5.03632 14.167 8.60115 13.3592 10.5504 11.41C11.1018 10.8586 11.6532 10.8586 11.6532 10.8586L5.58773 6.61719Z" fill="#553788"/>
<path d="M14.4107 6.61719C12.7565 9.37421 14.4107 12.5128 16.0649 11.9614C17.7191 11.41 18.2705 13.0642 16.6163 13.6156C14.9621 14.167 11.3972 13.3592 9.44802 11.41C8.89662 10.8586 8.34521 10.8586 8.34521 10.8586L14.4107 6.61719Z" fill="#553788"/>
<path d="M16.7197 8.82227C15.0655 11.5793 16.7197 14.7179 18.3739 14.1665C20.0281 13.6151 20.5795 15.2693 18.9253 15.8207C17.2711 16.3721 13.7063 15.5643 11.757 13.6151C11.2056 13.0637 10.6542 13.0637 10.6542 13.0637L16.7197 8.82227ZM3.27864 8.82227C4.93286 11.5793 3.27865 14.7179 1.62443 14.1665C-0.0297826 13.6151 -0.581187 15.2693 1.07303 15.8207C2.72724 16.3721 6.29207 15.5643 8.24129 13.6151C8.79269 13.0637 9.3441 13.0637 9.3441 13.0637L3.27864 8.82227Z" fill="#744EAA"/>
<path d="M18.3749 17.3003C16.8701 17.8021 14.8321 14.1981 15.7215 11.4676C16.6291 9.67936 17.1684 7.68658 17.1684 6.06545C17.1684 2.10637 13.9592 0 10.0001 0C6.04106 0 2.83188 2.10637 2.83188 6.06545C2.83188 7.68658 3.37115 9.67936 4.27877 11.4676C5.16818 14.1981 3.13019 17.8021 1.62541 17.3003C-0.0288061 16.7489 -0.580211 18.9545 1.074 19.5059C2.72822 20.0573 5.65618 19.1602 7.69086 17.3003C8.89788 16.1975 10.0007 16.1975 10.0007 16.1975C10.0007 16.1975 11.1035 16.1975 12.31 17.3003C14.3447 19.1602 17.2726 20.0573 18.9268 19.5059C20.581 18.9545 20.0291 16.7489 18.3749 17.3003Z" fill="#9266CC"/>
<path d="M7.79373 12.6822C8.40279 12.6822 8.89654 12.1884 8.89654 11.5794C8.89654 10.9703 8.40279 10.4766 7.79373 10.4766C7.18466 10.4766 6.69092 10.9703 6.69092 11.5794C6.69092 12.1884 7.18466 12.6822 7.79373 12.6822Z" fill="#292F33"/>
<path d="M12.2049 12.6822C12.8139 12.6822 13.3077 12.1884 13.3077 11.5794C13.3077 10.9703 12.8139 10.4766 12.2049 10.4766C11.5958 10.4766 11.1021 10.9703 11.1021 11.5794C11.1021 12.1884 11.5958 12.6822 12.2049 12.6822Z" fill="#292F33"/>
</svg>
