<svg width="20" height="20" viewBox="0 0 20 20" fill="none" xmlns="http://www.w3.org/2000/svg">
<path d="M20 11.1764C20 12.4758 18.9465 12.3529 17.6471 12.3529H2.35294C1.05353 12.3529 0 12.4758 0 11.1764L1.17647 4.11759C1.25 2.98994 2.23 1.76465 3.52941 1.76465H16.4706C17.77 1.76465 18.7006 3.06347 18.8235 4.11759L20 11.1764Z" fill="#67757F"/>
<path d="M15.8824 7.05911C15.8824 7.70852 15.3553 8.23558 14.7059 8.23558H5.29415C4.64473 8.23558 4.11768 7.70852 4.11768 7.05911V2.35323C4.11768 1.70323 4.64473 1.17676 5.29415 1.17676H14.7059C15.3553 1.17676 15.8824 1.70323 15.8824 2.35323V7.05911Z" fill="#CCD6DD"/>
<path d="M17.0591 9.41165C17.0591 10.0611 16.532 10.5881 15.8826 10.5881H4.11788C3.46847 10.5881 2.94141 10.0611 2.94141 9.41165V4.70577C2.94141 4.05636 3.46847 3.5293 4.11788 3.5293H15.8826C16.532 3.5293 17.0591 4.05636 17.0591 4.70577V9.41165Z" fill="#E1E8ED"/>
<path d="M18.2352 11.7652C18.2352 12.4146 17.7082 12.9416 17.0588 12.9416H2.94112C2.29171 12.9416 1.76465 12.4146 1.76465 11.7652V7.05928C1.76465 6.40987 2.29171 5.88281 2.94112 5.88281H17.0588C17.7082 5.88281 18.2352 6.40987 18.2352 7.05928V11.7652Z" fill="#F5F8FA"/>
<path d="M20 17.6468C20 18.9462 18.9465 19.9997 17.6471 19.9997H2.35294C1.05353 19.9997 0 18.9462 0 17.6468V11.1762C0 9.87677 1.05353 8.82324 2.35294 8.82324H17.6471C18.9465 8.82324 20 9.87677 20 11.1762V17.6468Z" fill="#9AAAB4"/>
<path d="M12.353 0H9.41182C8.76241 0 8.23535 0.526471 8.23535 1.17647V1.76471H10.5883C11.2377 1.76471 11.7648 2.29176 11.7648 2.94118H12.353C13.0024 2.94118 13.5295 2.41412 13.5295 1.76471V1.17647C13.5295 0.526471 13.0024 0 12.353 0Z" fill="#FCAB40"/>
<path d="M9.99997 2.35254H7.05879C6.40938 2.35254 5.88232 2.8796 5.88232 3.52901V4.11724H8.23527C8.88468 4.11724 9.41174 4.6443 9.41174 5.29372H9.99997C10.6494 5.29372 11.1764 4.76666 11.1764 4.11724V3.52901C11.1764 2.8796 10.6494 2.35254 9.99997 2.35254Z" fill="#5DADEC"/>
<path d="M8.82341 6.47076C8.82341 7.12017 8.29636 7.64723 7.64694 7.64723H4.70577C4.05636 7.64723 3.5293 7.12017 3.5293 6.47076V5.88253C3.5293 5.23311 4.05636 4.70605 4.70577 4.70605H7.64694C8.29636 4.70605 8.82341 5.23311 8.82341 5.88253V6.47076Z" fill="#E75A70"/>
<path d="M14.1176 15.8823C14.1176 16.5317 13.5906 17.0588 12.9411 17.0588H7.05879C6.40938 17.0588 5.88232 16.5317 5.88232 15.8823V12.9411C5.88232 12.2917 6.40938 11.7646 7.05879 11.7646H12.9411C13.5906 11.7646 14.1176 12.2917 14.1176 12.9411V15.8823Z" fill="#67757F"/>
<path d="M12.9409 15.2943C12.9409 15.6196 12.678 15.8826 12.3527 15.8826H7.64683C7.32212 15.8826 7.05859 15.6196 7.05859 15.2943V13.5296C7.05859 13.2043 7.32212 12.9414 7.64683 12.9414H12.3527C12.678 12.9414 12.9409 13.2043 12.9409 13.5296V15.2943Z" fill="#E1E8ED"/>
</svg>
