<svg width="20" height="24" viewBox="0 0 20 24" fill="none" xmlns="http://www.w3.org/2000/svg">
<path d="M10.691 13.375C10.691 13.375 18.2312 6.10919 18.9715 5.4748C19.7118 4.84042 18.5056 3.99414 17.0256 3.99414H2.22092C1.48058 3.99414 -0.729224 4.47388 0.380945 5.5847C1.17326 6.37636 8.71675 13.375 8.71675 13.375V20.0366C8.71675 20.0366 5.70015 21.5765 5.09867 21.9339C4.45113 22.3037 4.88151 22.896 5.14013 22.998C5.57182 23.1678 6.62277 23.7232 9.60186 23.7232C12.656 23.7232 13.6832 23.1217 14.0537 22.998C14.1965 22.9506 14.9401 22.3846 14.061 21.8641C12.4961 20.9375 10.691 20.0366 10.691 20.0366V13.375Z" fill="#8899A6"/>
<path d="M19.246 4.94316C19.246 3.87577 14.9376 3.01172 9.623 3.01172C4.3084 3.01172 0 3.87577 0 4.94316C0 5.44067 0.944993 5.89276 2.48423 6.23496C4.29129 7.77551 7.28684 10.2479 8.81949 11.5081C9.41176 11.9957 10.2245 11.9181 10.6628 11.589C10.9938 11.3409 15.01 7.87554 16.9605 6.19087C18.3839 5.85459 19.246 5.41961 19.246 4.94316Z" fill="#CCD6DD"/>
<path d="M9.28805 10.9254C9.13209 10.8431 9.25515 10.3989 9.45125 10.0515L14.3526 0.49756C14.55 0.149439 14.9909 0.0270378 15.3384 0.223802C15.6865 0.420565 15.8082 0.861474 15.6121 1.20959L9.90861 10.3469C9.8099 10.5207 9.46507 11.0182 9.28805 10.9254Z" fill="#662113"/>
<path d="M12.4973 5.21555C13.2429 5.63606 13.8108 6.95023 13.287 7.87812C12.7625 8.80666 11.3431 8.99618 10.5975 8.57502C9.85252 8.15385 9.23854 6.91996 9.80843 5.91245C10.3777 4.90494 11.7517 4.79439 12.4973 5.21555Z" fill="#5C913B"/>
<path d="M9.24131 7.12722C6.75708 7.12722 4.39723 6.80476 2.17558 6.15919L2.09069 6.13485C1.74125 6.03416 1.54054 5.66893 1.64122 5.32015C1.74125 4.97072 2.10516 4.76934 2.45592 4.87003L2.54278 4.89569C6.84197 6.14472 11.7176 6.11642 17.0322 4.80883C17.3896 4.72328 17.7423 4.93781 17.8285 5.29054C17.9154 5.64327 17.7002 5.99994 17.3474 6.08681C14.525 6.78042 11.817 7.12722 9.24131 7.12722Z" fill="white"/>
</svg>
