<svg width="20" height="18" viewBox="0 0 20 18" fill="none" xmlns="http://www.w3.org/2000/svg">
<path d="M1.11111 3.44434C0 3.44434 0 4.55545 0 4.55545V16.2221C0 16.2221 0 17.3332 1.11111 17.3332H18.8889C20 17.3332 20 16.2221 20 16.2221V4.55545C20 4.55545 20 3.44434 18.8889 3.44434H1.11111Z" fill="#5C913B"/>
<path d="M1.11111 0.666992C0 0.666992 0 1.7781 0 1.7781V12.8892C0 12.8892 0 14.0003 1.11111 14.0003H18.8889C20 14.0003 20 12.8892 20 12.8892V1.7781C20 1.7781 20 0.666992 18.8889 0.666992H1.11111Z" fill="#A7D28B"/>
<path d="M13.8889 10.9449C15.8833 10.9449 17.5001 9.32813 17.5001 7.33377C17.5001 5.33941 15.8833 3.72266 13.8889 3.72266C11.8946 3.72266 10.2778 5.33941 10.2778 7.33377C10.2778 9.32813 11.8946 10.9449 13.8889 10.9449Z" fill="#77B255"/>
<path d="M18.3335 13.1667H1.66683C1.20738 13.1667 0.833496 12.7928 0.833496 12.3333V2.33333C0.833496 1.87389 1.20738 1.5 1.66683 1.5H18.3335C18.7929 1.5 19.1668 1.87389 19.1668 2.33333V12.3333C19.1668 12.7928 18.7929 13.1667 18.3335 13.1667ZM1.66683 2.05556C1.51405 2.05556 1.38905 2.18 1.38905 2.33333V12.3333C1.38905 12.4861 1.51405 12.6111 1.66683 12.6111H18.3335C18.4863 12.6111 18.6113 12.4861 18.6113 12.3333V2.33333C18.6113 2.18 18.4863 2.05556 18.3335 2.05556H1.66683Z" fill="#5C913B"/>
<path d="M7.77783 0.666992H12.2223V14.0348H7.77783V0.666992Z" fill="#FFE8B6"/>
<path d="M7.77783 14H12.2223V17.3333H7.77783V14Z" fill="#FFAC33"/>
<path d="M6.56097 8.45755C6.56097 6.80255 3.5093 6.91033 3.5093 5.91089C3.5093 5.427 3.97208 5.19088 4.50875 5.19088C5.41153 5.19088 5.57208 5.77089 5.98097 5.77089C6.27041 5.77089 6.40986 5.58866 6.40986 5.38422C6.40986 4.90866 5.68986 4.54977 4.9993 4.42533V3.967C4.9993 3.68088 4.76764 3.44922 4.48153 3.44922C4.19541 3.44922 3.96375 3.68144 3.96375 3.967V4.44089C3.21153 4.61311 2.56319 5.13533 2.56319 5.98589C2.56319 7.57589 5.61486 7.51144 5.61486 8.62922C5.61486 9.01533 5.19597 9.402 4.50819 9.402C3.47653 9.402 3.13264 8.70366 2.7143 8.70366C2.50986 8.70366 2.32764 8.87533 2.32764 9.13422C2.32764 9.54588 3.01653 10.0403 3.96486 10.1792L3.9643 10.1814V10.7003C3.9643 10.9859 4.19653 11.2181 4.48264 11.2181C4.76819 11.2176 4.99986 10.9853 4.99986 10.7003V10.1814C4.99986 10.1759 4.99708 10.1709 4.99653 10.1659C5.8493 10.0064 6.56097 9.45144 6.56097 8.45755Z" fill="#5C913B"/>
</svg>
