<svg width="22" height="21" viewBox="0 0 22 21" fill="none" xmlns="http://www.w3.org/2000/svg">
<path d="M20.7777 6.52843C20.7777 7.2031 20.2302 7.75065 19.5555 7.75065H15.8888C15.2142 7.75065 14.6666 7.2031 14.6666 6.52843V5.30621C14.6666 4.63154 15.2142 4.08398 15.8888 4.08398H19.5555C20.2302 4.08398 20.7777 4.63154 20.7777 5.30621V6.52843ZM7.33328 6.52843C7.33328 7.2031 6.78572 7.75065 6.11106 7.75065H2.44439C1.76972 7.75065 1.22217 7.2031 1.22217 6.52843V5.30621C1.22217 4.63154 1.76972 4.08398 2.44439 4.08398H6.11106C6.78572 4.08398 7.33328 4.63154 7.33328 5.30621V6.52843Z" fill="#DAC8B1"/>
<path d="M22 19.3612C22 20.0359 21.4524 20.5834 20.7778 20.5834H1.22222C0.547556 20.5834 0 20.0359 0 19.3612V6.52789C0 5.85322 0.547556 5.30566 1.22222 5.30566H20.7778C21.4524 5.30566 22 5.85322 22 6.52789V19.3612Z" fill="#F1DCC1"/>
<path d="M13.4443 4.08366V2.86144C13.4443 2.41044 13.1974 2.02055 12.8332 1.80849V1.63921C12.8332 0.964548 12.2857 0.416992 11.611 0.416992H10.3888C9.71411 0.416992 9.16656 0.964548 9.16656 1.63921V1.80849C8.80295 2.02055 8.55545 2.41044 8.55545 2.86144V4.08366H7.94434V20.5837H14.0554V4.08366H13.4443Z" fill="#DAC8B1"/>
<path d="M8.55566 2.86133H9.77789V4.08355H8.55566V2.86133ZM12.2223 2.86133H13.4446V4.08355H12.2223V2.86133ZM10.389 2.86133H11.6112V4.08355H10.389V2.86133Z" fill="#55ACEE"/>
<path d="M9.1665 7.75H10.3887V16.3056H9.1665V7.75ZM11.6109 7.75H12.8332V16.3056H11.6109V7.75Z" fill="#3B88C3"/>
<path d="M14.6666 8.97266H15.8888V16.306H14.6666V8.97266ZM17.1111 8.97266H18.3333V16.306H17.1111V8.97266ZM19.5555 8.97266H20.7777V16.306H19.5555V8.97266ZM1.22217 8.97266H2.44439V16.306H1.22217V8.97266ZM3.66661 8.97266H4.88883V16.306H3.66661V8.97266ZM6.11106 8.97266H7.33328V16.306H6.11106V8.97266ZM1.22217 16.9171H2.44439V18.1393H1.22217V16.9171ZM3.66661 16.9171H4.88883V18.1393H3.66661V16.9171ZM6.11106 16.9171H7.33328V18.1393H6.11106V16.9171Z" fill="#55ACEE"/>
<path d="M9.1665 16.917H10.3887V18.1392H9.1665V16.917ZM11.6109 16.917H12.8332V18.1392H11.6109V16.917Z" fill="#3B88C3"/>
<path d="M14.6665 16.917H15.8887V18.1392H14.6665V16.917ZM17.1109 16.917H18.3332V18.1392H17.1109V16.917ZM19.5554 16.917H20.7776V18.1392H19.5554V16.917Z" fill="#55ACEE"/>
<path d="M1.22217 18.75H2.44439V20.5833H1.22217V18.75ZM3.66661 18.75H4.88883V20.5833H3.66661V18.75ZM6.11106 18.75H7.33328V20.5833H6.11106V18.75ZM9.16661 18.75H10.3888V20.5833H9.16661V18.75ZM11.6111 18.75H12.8333V20.5833H11.6111V18.75ZM14.6666 18.75H15.8888V20.5833H14.6666V18.75ZM17.1111 18.75H18.3333V20.5833H17.1111V18.75ZM19.5555 18.75H20.7777V20.5833H19.5555V18.75Z" fill="#66757F"/>
</svg>
