<svg width="21" height="22" viewBox="0 0 21 22" fill="none" xmlns="http://www.w3.org/2000/svg">
<path d="M2.73007 21.2646H18.8519C20.0034 21.2646 21.0001 20.113 21.0001 18.9615C21.0001 16.454 18.3319 12.6279 10.791 12.6279C3.02257 12.6279 0.538086 16.3469 0.538086 18.9615C0.538086 20.113 1.57852 21.2646 2.73007 21.2646Z" fill="#77B255"/>
<path d="M6.92871 17.5224C6.92871 17.5224 7.48031 17.9065 8.05608 17.9065C9.3274 15.0995 15.5412 13.5881 16.117 13.5881C16.2033 13.5881 16.307 13.5778 16.4118 13.5611C15.9995 13.3999 15.547 13.2611 15.0702 13.1367C12.4067 13.173 7.56725 15.392 6.92871 17.5224Z" fill="#5C913B"/>
<path d="M7.62391 19.5381C9.69086 19.5381 11.3665 18.8936 11.3665 18.0986C11.3665 17.3036 9.69086 16.6592 7.62391 16.6592C5.55695 16.6592 3.88135 17.3036 3.88135 18.0986C3.88135 18.8936 5.55695 19.5381 7.62391 19.5381Z" fill="#292F33"/>
<path d="M6.18457 2.83984V17.8101C6.18457 18.1285 6.44252 18.296 6.76035 18.296C7.07818 18.296 7.33613 18.1285 7.33613 17.8101V2.83984H6.18457Z" fill="#FFAC33"/>
<path d="M6.18457 2.2643C6.18457 0.99759 7.16051 0.309535 8.35353 0.735611L13.8038 2.68232C14.9963 3.10839 14.9963 3.80566 13.8038 4.23116L8.35353 6.17787C7.16051 6.60452 6.18457 5.91646 6.18457 4.64975V2.2643Z" fill="#DD2E44"/>
</svg>
