<svg width="18" height="18" viewBox="0 0 18 18" fill="none" xmlns="http://www.w3.org/2000/svg">
<path d="M0.124512 8.74598L4.18488 5.19043L12.3056 5.69837L12.8132 13.8253L9.26035 17.8888C9.26035 17.8888 9.26086 14.8417 6.21507 11.7936C3.16928 8.74547 0.124512 8.74598 0.124512 8.74598Z" fill="#A0041E"/>
<path d="M0.11085 17.8888C0.11085 17.8888 0.0925781 13.8359 1.62588 12.3015C3.15917 10.767 7.23021 10.8726 7.23021 10.8726C7.23021 10.8726 7.2297 14.8411 5.70706 16.3649C4.18442 17.8888 0.11085 17.8888 0.11085 17.8888Z" fill="#FFAC33"/>
<path d="M4.18424 15.8574C5.30548 15.8574 6.21443 14.9478 6.21443 13.8257C6.21443 12.7036 5.30548 11.7939 4.18424 11.7939C3.063 11.7939 2.15405 12.7036 2.15405 13.8257C2.15405 14.9478 3.063 15.8574 4.18424 15.8574Z" fill="#FFCC4D"/>
<path d="M17.8888 0.111328C17.8888 0.111328 12.8133 0.111328 6.72274 5.19068C3.67746 7.73036 3.67746 12.3018 4.69255 13.3176C5.70765 14.3335 10.2756 14.3335 12.8133 11.2859C17.8888 5.19068 17.8888 0.111328 17.8888 0.111328Z" fill="#55ACEE"/>
<path d="M13.3206 2.65039C12.4969 2.65039 11.7914 3.1436 11.4727 3.84912C11.7274 3.73382 12.0081 3.66626 12.3055 3.66626C13.4267 3.66626 14.3357 4.57597 14.3357 5.698C14.3357 5.99565 14.2682 6.27654 14.1535 6.53102C14.8585 6.21254 15.3508 5.50651 15.3508 4.68213C15.3508 3.5601 14.4418 2.65039 13.3206 2.65039Z" fill="black"/>
<path d="M3.67749 14.3333C3.67749 14.3333 3.67749 12.3016 4.18504 11.7937C4.69258 11.2857 10.7836 6.20687 11.2907 6.7143C11.7977 7.22172 6.72226 13.3175 6.21472 13.8254C5.70717 14.3333 3.67749 14.3333 3.67749 14.3333Z" fill="#A0041E"/>
</svg>
