<svg width="21" height="23" viewBox="0 0 21 23" fill="none" xmlns="http://www.w3.org/2000/svg">
<path d="M3.60108 14.0388C3.55395 14.5958 3.79503 14.7626 4.17265 15.0272C4.54604 15.2889 6.82082 13.295 7.56458 12.9917C8.30834 12.6884 15.2904 11.21 14.9877 9.86019C14.685 8.51042 12.5751 8.31104 10.9499 8.58655C9.32459 8.86206 6.21421 10.2916 5.30551 11.0631C4.3968 11.8341 3.60108 14.0388 3.60108 14.0388ZM8.81043 14.9433C8.81043 14.9433 6.66131 15.6411 6.66131 17.4537C6.66131 19.2663 7.18455 20.2885 7.43226 20.7846C7.68059 21.28 8.45214 21.761 9.51975 21.2988C10.7596 20.7616 9.22309 17.6712 13.1449 19.0898C14.9418 19.7393 16.8057 20.6172 18.6183 20.013C20.3378 19.4397 21 17.2766 21 16.0683C21 13.5947 19.1874 14.2557 18.5832 14.8599C17.979 15.4641 13.1455 16.6725 12.5413 16.6725C11.9371 16.6725 8.81043 14.9433 8.81043 14.9433Z" fill="#EF9645"/>
<path d="M11.5215 17.9944C11.5215 17.9944 11.449 17.1992 10.6908 17.1068C10.0679 17.0313 9.08604 17.2391 8.5761 18.2584C8.06616 19.2783 7.15988 19.1079 7.19794 19.9574C7.2354 20.8069 7.50004 21.4679 8.04743 21.6376C8.59544 21.808 9.36941 21.5059 9.46366 20.5996C9.55792 19.6934 9.6715 18.8626 10.2564 18.5037C10.8424 18.1454 11.5215 17.9944 11.5215 17.9944Z" fill="#F9CA55"/>
<path d="M10.7289 16.6716C10.7289 16.6716 10.1247 16.0674 8.91634 16.0674C7.70796 16.0674 4.89 17.3561 5.74433 19.9191C6.34852 21.7317 8.06685 20.8822 8.31215 19.0883C8.55806 17.2921 10.7289 16.6716 10.7289 16.6716Z" fill="#EF9645"/>
<path d="M10.1245 16.6716C10.1245 16.6716 9.52034 16.0674 8.31196 16.0674C7.10357 16.0674 5.36048 16.9918 5.291 19.6925C5.2342 21.9015 7.7265 20.9009 7.70777 19.0883C7.68903 17.2758 10.1245 16.6716 10.1245 16.6716Z" fill="#F9CA55"/>
<path d="M2.87427 17.2761C2.87427 19.2681 3.15038 20.4699 4.34125 20.2651C6.31635 19.9255 5.56655 17.4773 7.29514 16.7885C8.55005 16.2889 10.3771 16.4079 12.1408 17.455C13.3026 18.1449 12.5413 15.4635 11.333 14.8594C10.1246 14.2552 6.49942 14.8594 5.89523 14.8594C5.29104 14.8594 2.87427 17.2761 2.87427 17.2761Z" fill="#EF9645"/>
<path d="M2.77871 17.3818C1.81744 18.992 2.4023 20.6566 4.08255 20.2977C5.70844 19.9509 4.89399 17.8386 6.49932 16.6725C7.39897 16.0188 9.33782 15.7995 10.5462 16.4036C11.7546 17.0078 11.9371 15.4641 10.7287 14.8599C9.52029 14.2557 5.56887 14.8448 4.96588 14.8823C3.81248 14.9542 2.77871 17.3818 2.77871 17.3818Z" fill="#F9CA55"/>
<path d="M5.54359 18.5535C5.13334 19.0236 4.41979 19.0725 3.94912 18.6622L3.8307 18.5589C3.36004 18.1487 3.3117 17.4357 3.72195 16.9651L17.3302 1.36663C17.7404 0.896568 18.454 0.847629 18.9246 1.25788L19.0425 1.36119C19.5131 1.77144 19.5615 2.48499 19.1518 2.95505L5.54359 18.5535Z" fill="#3B88C3"/>
<path d="M6.19131 17.8118C4.76542 19.4462 1.16866 22.6508 0.713099 22.2538C0.258142 21.8569 2.94438 17.8583 4.37028 16.2234C5.79617 14.5885 5.37384 15.8959 5.87653 16.3352C6.37922 16.7738 7.61721 16.1781 6.19131 17.8118Z" fill="#3B88C3"/>
<path d="M3.88452 16.0834C3.88452 16.6876 5.34727 17.2405 5.95146 16.6363C6.55566 16.0321 7.97007 15.2901 9.82978 16.0677C14.1824 17.8864 12.5414 15.4635 10.7288 14.8594C8.91624 14.2552 5.89527 14.8594 5.29108 14.8594C4.68689 14.8594 3.88452 16.0834 3.88452 16.0834Z" fill="#EF9645"/>
<path d="M3.59619 14.2816C3.37989 13.6092 4.91817 9.8837 5.6148 9.3067C6.49209 8.58046 9.88584 7.45605 11.0942 7.45605C12.3026 7.45605 21 11.8389 21 14.8598C21 17.8808 19.7916 18.2584 18.0545 18.7303C16.6655 19.1079 13.7557 18.8765 12.4845 17.6917C11.3703 16.6537 10.5964 15.9359 9.5203 15.464C7.52526 14.5892 6.19543 15.7202 5.59124 16.3244C4.38285 17.5328 2.10626 16.2283 4.00523 14.1614C5.36406 12.6817 6.56097 12.2207 7.70772 11.8389C11.3329 10.6305 13.7496 10.6305 12.5413 9.4221C12.1141 8.99493 11.8815 9.63115 11.287 9.7393C10.0907 9.95681 9.13845 10.103 7.56211 10.6287C7.01713 10.8099 4.43723 12.4551 3.59619 14.2816Z" fill="#FFDC5D"/>
<path d="M7.82607 10.7967C8.46893 10.5622 11.2712 10.0523 12.7291 9.54719C13.9067 9.13875 14.9398 9.93145 12.7049 10.7725C10.548 11.5839 8.30701 11.5175 6.67267 12.1664C6.05458 12.4117 5.51866 11.6377 7.82607 10.7967Z" fill="#EF9645"/>
<path d="M13.4397 5.81055C13.4397 5.81055 9.85803 9.91603 8.33667 11.6477C9.69852 11.0882 10.9172 11.1945 12.0815 10.5094C13.2457 9.8248 13.7768 9.09433 15.5435 7.06848C16.1996 6.31686 13.4397 5.81055 13.4397 5.81055Z" fill="#3B88C3"/>
</svg>
