<svg width="20" height="21" viewBox="0 0 20 21" fill="none" xmlns="http://www.w3.org/2000/svg">
<path d="M12.3933 8.44585C11.8014 8.83915 11.2735 9.29864 10.8179 9.7707C10.7484 7.44865 10.1904 4.44557 7.11352 2.97521C6.5047 -0.336924 -0.594924 1.34568 0.0401531 1.66732C1.30593 2.30732 1.9793 3.93631 2.7938 4.79347C4.24501 6.32072 5.85869 6.41481 6.66169 5.21904C8.55872 6.452 8.68344 8.79046 8.62546 11.2903C8.61889 11.5665 8.61287 11.8236 8.61287 12.0572V19.7153C8.61287 20.3192 10.8009 20.3192 10.8009 19.7153V13.4302C11.0974 12.9083 11.9617 11.5129 13.2242 10.5343C14.0917 11.2963 15.4899 11.0529 16.7595 9.71655C17.574 8.85939 18.0138 7.23094 19.2795 6.59039C19.9474 6.25234 12.2773 4.40564 12.3933 8.44585Z" fill="#77B255"/>
</svg>
