<svg width="20" height="20" viewBox="0 0 20 20" fill="none" xmlns="http://www.w3.org/2000/svg">
<path d="M20 10C20 15.5228 15.5228 20 10 20C4.47722 20 0 15.5228 0 10C0 4.47722 4.47722 0 10 0C15.5228 0 20 4.47722 20 10Z" fill="#E1E8ED"/>
<path d="M16.6668 9.99967C16.6668 13.6819 13.6824 16.6663 10.0002 16.6663C6.31794 16.6663 3.3335 13.6819 3.3335 9.99967C3.3335 6.31745 6.31794 3.33301 10.0002 3.33301C13.6824 3.33301 16.6668 6.31745 16.6668 9.99967Z" fill="#CCD6DD"/>
<path d="M16.1109 9.99978C16.1109 13.3748 13.3748 16.1109 9.99978 16.1109C6.62423 16.1109 3.88867 13.3748 3.88867 9.99978C3.88867 6.62423 6.62478 3.88867 9.99978 3.88867C13.3748 3.88867 16.1109 6.62423 16.1109 9.99978Z" fill="#E1E8ED"/>
<path d="M0.555556 1.11111C0.86238 1.11111 1.11111 0.86238 1.11111 0.555556C1.11111 0.248731 0.86238 0 0.555556 0C0.248731 0 0 0.248731 0 0.555556C0 0.86238 0.248731 1.11111 0.555556 1.11111Z" fill="#99AAB5"/>
<path d="M0 0.555664H1.11111V4.44455H0V0.555664Z" fill="#99AAB5"/>
<path d="M2.77772 1.11111C3.08455 1.11111 3.33328 0.86238 3.33328 0.555556C3.33328 0.248731 3.08455 0 2.77772 0C2.4709 0 2.22217 0.248731 2.22217 0.555556C2.22217 0.86238 2.4709 1.11111 2.77772 1.11111Z" fill="#99AAB5"/>
<path d="M2.22217 0.555664H3.33328V4.44455H2.22217V0.555664Z" fill="#99AAB5"/>
<path d="M4.99989 1.11111C5.30672 1.11111 5.55545 0.86238 5.55545 0.555556C5.55545 0.248731 5.30672 0 4.99989 0C4.69307 0 4.44434 0.248731 4.44434 0.555556C4.44434 0.86238 4.69307 1.11111 4.99989 1.11111Z" fill="#99AAB5"/>
<path d="M4.44428 0.555664H5.55539V4.44455H4.44428V0.555664ZM1.6665 7.77789H3.88873V18.889H1.6665V7.77789Z" fill="#99AAB5"/>
<path d="M2.77762 19.9996C3.39126 19.9996 3.88873 19.5021 3.88873 18.8885C3.88873 18.2748 3.39126 17.7773 2.77762 17.7773C2.16397 17.7773 1.6665 18.2748 1.6665 18.8885C1.6665 19.5021 2.16397 19.9996 2.77762 19.9996Z" fill="#99AAB5"/>
<path d="M4.44444 4.44434C4.44444 4.751 4.19556 4.99989 3.88889 4.99989C3.58222 4.99989 3.33333 4.751 3.33333 4.44434H2.22222C2.22222 4.751 1.97333 4.99989 1.66667 4.99989C1.36 4.99989 1.11111 4.751 1.11111 4.44434H0C0 6.59211 0.555556 8.33322 2.77778 8.33322C5 8.33322 5.55556 6.59211 5.55556 4.44434H4.44444Z" fill="#99AAB5"/>
<path d="M0.555556 4.99978C0.86238 4.99978 1.11111 4.75105 1.11111 4.44423C1.11111 4.1374 0.86238 3.88867 0.555556 3.88867C0.248731 3.88867 0 4.1374 0 4.44423C0 4.75105 0.248731 4.99978 0.555556 4.99978Z" fill="#99AAB5"/>
<path d="M2.77772 4.99978C3.08455 4.99978 3.33328 4.75105 3.33328 4.44423C3.33328 4.1374 3.08455 3.88867 2.77772 3.88867C2.4709 3.88867 2.22217 4.1374 2.22217 4.44423C2.22217 4.75105 2.4709 4.99978 2.77772 4.99978Z" fill="#99AAB5"/>
<path d="M4.99989 4.99978C5.30672 4.99978 5.55545 4.75105 5.55545 4.44423C5.55545 4.1374 5.30672 3.88867 4.99989 3.88867C4.69307 3.88867 4.44434 4.1374 4.44434 4.44423C4.44434 4.75105 4.69307 4.99978 4.99989 4.99978Z" fill="#99AAB5"/>
<path d="M16.6665 7.77734H18.8887V18.8885H16.6665V7.77734Z" fill="#99AAB5"/>
<path d="M17.7776 19.9996C18.3913 19.9996 18.8887 19.5021 18.8887 18.8885C18.8887 18.2748 18.3913 17.7773 17.7776 17.7773C17.164 17.7773 16.6665 18.2748 16.6665 18.8885C16.6665 19.5021 17.164 19.9996 17.7776 19.9996Z" fill="#99AAB5"/>
<path d="M17.7778 0C18.3333 0 18.8889 0.555556 18.8889 1.66667V10.5556C18.8889 10.5556 15 11.6667 15 6.11111C15 2.77778 16.6667 0 17.7778 0Z" fill="#99AAB5"/>
</svg>
