<svg width="20" height="26" viewBox="0 0 20 26" fill="none" xmlns="http://www.w3.org/2000/svg">
<path d="M20 24.4282C20 25.2167 19.36 25.8567 18.5714 25.8567H1.42857C0.64 25.8567 0 25.2167 0 24.4282V5.14244C0 4.35387 0.64 3.71387 1.42857 3.71387H18.5714C19.36 3.71387 20 4.35387 20 5.14244V24.4282Z" fill="#C1694F"/>
<path d="M17.8574 22.9993C17.8574 23.3943 17.5381 23.7136 17.1431 23.7136H2.85735C2.46307 23.7136 2.14307 23.3943 2.14307 22.9993V6.57073C2.14307 6.17645 2.46307 5.85645 2.85735 5.85645H17.1431C17.5381 5.85645 17.8574 6.17645 17.8574 6.57073V22.9993Z" fill="white"/>
<path d="M14.9999 2.28544H12.1427C12.1427 1.10186 11.1834 0.142578 9.99986 0.142578C8.81629 0.142578 7.857 1.10186 7.857 2.28544H4.99986C4.21129 2.28544 3.57129 2.92544 3.57129 3.71401V7.28544H16.4284V3.71401C16.4284 2.92544 15.7884 2.28544 14.9999 2.28544Z" fill="#CCD6DD"/>
<path d="M9.99986 3.71359C10.7888 3.71359 11.4284 3.074 11.4284 2.28502C11.4284 1.49604 10.7888 0.856445 9.99986 0.856445C9.21088 0.856445 8.57129 1.49604 8.57129 2.28502C8.57129 3.074 9.21088 3.71359 9.99986 3.71359Z" fill="#292F33"/>
<path d="M11.4284 10.143C11.4284 10.5373 11.1091 10.8573 10.7141 10.8573H4.28557C3.89129 10.8573 3.57129 10.5373 3.57129 10.143C3.57129 9.74871 3.89129 9.42871 4.28557 9.42871H10.7141C11.1091 9.42871 11.4284 9.74871 11.4284 10.143ZM16.4284 13.0001C16.4284 13.3944 16.1091 13.7144 15.7141 13.7144H4.28557C3.89129 13.7144 3.57129 13.3944 3.57129 13.0001C3.57129 12.6059 3.89129 12.2859 4.28557 12.2859H15.7141C16.1091 12.2859 16.4284 12.6059 16.4284 13.0001ZM16.4284 15.8573C16.4284 16.2523 16.1091 16.5716 15.7141 16.5716H4.28557C3.89129 16.5716 3.57129 16.2523 3.57129 15.8573C3.57129 15.4623 3.89129 15.143 4.28557 15.143H15.7141C16.1091 15.143 16.4284 15.4623 16.4284 15.8573ZM16.4284 18.7144C16.4284 19.1094 16.1091 19.4287 15.7141 19.4287H4.28557C3.89129 19.4287 3.57129 19.1094 3.57129 18.7144C3.57129 18.3194 3.89129 18.0001 4.28557 18.0001H15.7141C16.1091 18.0001 16.4284 18.3194 16.4284 18.7144ZM16.4284 21.5716C16.4284 21.9666 16.1091 22.2859 15.7141 22.2859H9.28557C8.89129 22.2859 8.57129 21.9666 8.57129 21.5716C8.57129 21.1766 8.89129 20.8573 9.28557 20.8573H15.7141C16.1091 20.8573 16.4284 21.1766 16.4284 21.5716Z" fill="#99AAB5"/>
</svg>
