<svg width="26" height="19" viewBox="0 0 26 19" fill="none" xmlns="http://www.w3.org/2000/svg">
<path d="M22.852 2.11133H3.14831C1.59383 2.11133 0.333496 3.37166 0.333496 4.92614V15.4817C0.333496 17.0362 1.59383 18.2965 3.14831 18.2965H11.1818C11.5477 18.7159 12.2212 19.0002 13.0002 19.0002C13.7792 19.0002 14.4533 18.7159 14.8185 18.2965H22.852C24.4065 18.2965 25.6668 17.0362 25.6668 15.4817V4.92614C25.6668 3.37166 24.4065 2.11133 22.852 2.11133Z" fill="#226699"/>
<path d="M14.4076 16.1854C14.4076 16.9623 13.7771 17.5928 13.0002 17.5928C12.2233 17.5928 11.5928 16.9623 11.5928 16.1854V3.51874C11.5928 2.74185 12.2233 2.11133 13.0002 2.11133C13.7771 2.11133 14.4076 2.74185 14.4076 3.51874V16.1854Z" fill="#292F33"/>
<path d="M13.0005 15.4813C13.0005 16.2582 12.37 16.8887 11.5931 16.8887H3.14862C2.37173 16.8887 1.74121 16.2582 1.74121 15.4813V2.81463C1.74121 2.03775 2.37173 1.40723 3.14862 1.40723H11.5931C12.37 1.40723 13.0005 2.03775 13.0005 2.81463V15.4813Z" fill="#99AAB5"/>
<path d="M13.0003 15.4815C12.2973 14.0755 10.4268 14.0741 10.1855 14.0741C8.77807 14.0741 6.66696 15.4815 4.55584 15.4815C3.85214 15.4815 3.14844 14.851 3.14844 14.0741V2.81481C3.14844 2.03793 3.85214 1.40741 4.55584 1.40741C6.8464 1.40741 8.77807 0 10.1855 0C12.2966 0 13.0003 1.33422 13.0003 2.11111V15.4815Z" fill="#E1E8ED"/>
<path d="M24.2593 15.4813C24.2593 16.2582 23.6287 16.8887 22.8519 16.8887H14.4074C13.6305 16.8887 13 16.2582 13 15.4813V2.81463C13 2.03775 13.6305 1.40723 14.4074 1.40723H22.8519C23.6287 1.40723 24.2593 2.03775 24.2593 2.81463V15.4813Z" fill="#99AAB5"/>
<path d="M13 15.4815C13.703 14.0755 15.5734 14.0741 15.8148 14.0741C17.2222 14.0741 19.3333 15.4815 21.4444 15.4815C22.1481 15.4815 22.8519 14.851 22.8519 14.0741V2.81481C22.8519 2.03793 22.1481 1.40741 21.4444 1.40741C19.1532 1.40741 17.2222 0 15.8148 0C13.7037 0 13 1.33422 13 2.11111V15.4815Z" fill="#CCD6DD"/>
</svg>
