<svg width="18" height="19" viewBox="0 0 18 19" fill="none" xmlns="http://www.w3.org/2000/svg">
<path d="M17.7102 1.14356C17.8904 1.34249 18 1.60615 18 1.89545C18 1.9736 17.992 2.04987 17.9768 2.1235L17.9766 6.90289C17.9919 6.97679 18 7.05336 18 7.13182C18 7.21028 17.9919 7.28684 17.9766 7.36075V12.1393C17.9919 12.2132 18 12.2897 18 12.3682C18 12.4466 17.9919 12.5232 17.9766 12.5971L17.9768 17.3765C17.992 17.4501 18 17.5264 18 17.6045C18 17.8939 17.8904 18.1575 17.7102 18.3564L17.6064 18.4602C17.4075 18.6404 17.1439 18.75 16.8545 18.75C16.7764 18.75 16.7001 18.742 16.6265 18.7268L9.22893 18.7266C9.15503 18.7419 9.07846 18.75 9 18.75C8.92154 18.75 8.84497 18.7419 8.77107 18.7266L1.3735 18.7268C1.29987 18.742 1.2236 18.75 1.14545 18.75C0.856145 18.75 0.592495 18.6404 0.393559 18.4602L0.289753 18.3564C0.109637 18.1575 0 17.8939 0 17.6045C0 17.5264 0.00799858 17.4501 0.0232248 17.3765L0.0234079 12.5971C0.00806297 12.5232 0 12.4466 0 12.3682C0 12.2897 0.00806297 12.2132 0.0234079 12.1393V7.36075C0.00806297 7.28684 0 7.21028 0 7.13182C0 7.05336 0.00806297 6.97679 0.0234079 6.90289L0.0232248 2.1235C0.00799858 2.04987 0 1.9736 0 1.89545C0 1.60615 0.109637 1.34249 0.289753 1.14356L0.393559 1.03975C0.592495 0.859637 0.856145 0.75 1.14545 0.75C1.2236 0.75 1.29987 0.757999 1.3735 0.773225L8.77107 0.773408C8.84497 0.758063 8.92154 0.75 9 0.75C9.07846 0.75 9.15503 0.758063 9.22893 0.773408L16.6265 0.773225C16.7001 0.757999 16.7764 0.75 16.8545 0.75C17.1439 0.75 17.4075 0.859637 17.6064 1.03975L17.7102 1.14356ZM7.877 13.49H2.267V16.482H7.877V13.49ZM15.732 13.49H10.122V16.482H15.732V13.49ZM7.877 8.253H2.267V11.246H7.877V8.253ZM15.732 8.253H10.122V11.246H15.732V8.253ZM7.877 3.017H2.267V6.009H7.877V3.017ZM15.732 3.017H10.122V6.009H15.732V3.017Z" fill="#28A745"/>
</svg>
