<svg width="18" height="15" viewBox="0 0 18 15" fill="none" xmlns="http://www.w3.org/2000/svg">
<path fill-rule="evenodd" clip-rule="evenodd" d="M1.45946 6C0.651892 6 0 6.67 0 7.5C0 8.33 0.651892 9 1.45946 9C2.26703 9 2.91892 8.33 2.91892 7.5C2.91892 6.67 2.26703 6 1.45946 6ZM1.45946 0C0.651892 0 0 0.67 0 1.5C0 2.33 0.651892 3 1.45946 3C2.26703 3 2.91892 2.33 2.91892 1.5C2.91892 0.67 2.26703 0 1.45946 0ZM1.45946 12C0.651892 12 0 12.68 0 13.5C0 14.32 0.661621 15 1.45946 15C2.2573 15 2.91892 14.32 2.91892 13.5C2.91892 12.68 2.26703 12 1.45946 12ZM5.35135 14.5H17.027C17.5622 14.5 18 14.05 18 13.5C18 12.95 17.5622 12.5 17.027 12.5H5.35135C4.81622 12.5 4.37838 12.95 4.37838 13.5C4.37838 14.05 4.81622 14.5 5.35135 14.5ZM5.35135 8.5H17.027C17.5622 8.5 18 8.05 18 7.5C18 6.95 17.5622 6.5 17.027 6.5H5.35135C4.81622 6.5 4.37838 6.95 4.37838 7.5C4.37838 8.05 4.81622 8.5 5.35135 8.5ZM4.37838 1.5C4.37838 2.05 4.81622 2.5 5.35135 2.5H17.027C17.5622 2.5 18 2.05 18 1.5C18 0.95 17.5622 0.5 17.027 0.5H5.35135C4.81622 0.5 4.37838 0.95 4.37838 1.5Z" fill="#0D6EFD"/>
</svg>
