<svg width="18" height="19" viewBox="0 0 18 19" fill="none" xmlns="http://www.w3.org/2000/svg">
<path fill-rule="evenodd" clip-rule="evenodd" d="M9 0.75C9.11846 0.75 9.23638 0.752288 9.35373 0.756824C9.39065 0.758188 9.42772 0.759839 9.46472 0.761712C9.54811 0.766034 9.63103 0.771399 9.71364 0.77788C9.77146 0.782285 9.82845 0.787303 9.88528 0.792852C9.96266 0.800538 10.0404 0.809147 10.1178 0.81874C10.1655 0.824566 10.2132 0.830878 10.2607 0.837565C10.4884 0.869524 10.7133 0.909938 10.935 0.95853C10.947 0.961803 10.9596 0.964621 10.9723 0.967466C14.7101 1.80276 17.5698 4.96271 17.9556 8.85034C17.9562 8.86367 17.9575 8.87733 17.9587 8.891C17.9863 9.17403 18 9.46042 18 9.75C18 14.4543 14.3907 18.3156 9.79026 18.7158L9.52856 18.7347C9.35366 18.7449 9.17743 18.75 9 18.75C4.02944 18.75 0 14.7206 0 9.75C0 4.77944 4.02944 0.75 9 0.75ZM1.989 8.139C1.872 8.661 1.8 9.192 1.8 9.75C1.8 9.97924 1.8107 10.206 1.83163 10.4297C1.85148 10.6414 1.88048 10.8505 1.91825 11.0566C1.92657 11.1025 1.93536 11.148 1.94457 11.1933L1.91825 11.0566C1.96469 11.3099 2.02439 11.5586 2.09659 11.8019C2.10297 11.824 2.10971 11.8463 2.11655 11.8685L2.09659 11.8019C2.117 11.8706 2.1384 11.939 2.16079 12.0068L2.11655 11.8685C2.13999 11.9448 2.16467 12.0205 2.19056 12.0957L2.16079 12.0068C2.1848 12.0796 2.20993 12.1519 2.23618 12.2236L2.19056 12.0957C2.21553 12.1682 2.24162 12.2402 2.26881 12.3116L2.23618 12.2236C2.25768 12.2824 2.27993 12.3409 2.30291 12.3989L2.26881 12.3116C2.29802 12.3883 2.32849 12.4643 2.36022 12.5397L2.30291 12.3989C2.36483 12.5553 2.43207 12.709 2.5044 12.8599C2.55444 12.9644 2.60705 13.0675 2.66204 13.1691C2.67722 13.1972 2.69281 13.2256 2.70858 13.2538L2.66204 13.1691C2.69498 13.23 2.72876 13.2904 2.76339 13.3502L2.70858 13.2538C2.74659 13.3219 2.78567 13.3893 2.82579 13.456L2.76339 13.3502C2.8045 13.4212 2.84678 13.4914 2.89022 13.5608L2.82579 13.456C2.86332 13.5184 2.90176 13.5802 2.9411 13.6413L2.89022 13.5608C2.92969 13.6239 2.9701 13.6863 3.01145 13.7481L2.9411 13.6413C2.97894 13.7001 3.0176 13.7583 3.05709 13.8159L3.01145 13.7481C3.06095 13.822 3.11179 13.8949 3.16392 13.9669L3.05709 13.8159C3.1048 13.8855 3.1537 13.9542 3.20376 14.022L3.16392 13.9669C3.20825 14.028 3.25351 14.0885 3.2997 14.1481L3.20376 14.022C3.23805 14.0685 3.27289 14.1145 3.30826 14.1601L3.2997 14.1481C4.44293 15.6256 6.14955 16.645 8.1 16.887V15.15C7.11 15.15 6.3 14.34 6.3 13.35V12.45L1.989 8.139ZM11.7009 3.07373L11.7 3.45C11.7 4.44 10.89 5.25 9.9 5.25H8.1V7.05C8.1 7.545 7.695 7.95 7.2 7.95H5.4V9.75H10.8C11.295 9.75 11.7 10.155 11.7 10.65V13.35H12.6C13.41 13.35 14.076 13.872 14.31 14.601C15.2809 13.5405 15.9419 12.1888 16.1388 10.6897C16.1421 10.6676 16.1449 10.6456 16.1475 10.6237L16.1388 10.6897C16.1635 10.5016 16.1809 10.3111 16.1907 10.1186C16.1925 10.0836 16.194 10.0481 16.1953 10.0126L16.2 9.75C16.2 9.444 16.164 9.147 16.128 8.85L16.1443 8.85038C15.8168 6.22247 14.073 4.03433 11.7009 3.07373Z" fill="#7027E5"/>
</svg>
