<svg width="26" height="26" viewBox="0 0 26 26" fill="none" xmlns="http://www.w3.org/2000/svg">
<rect width="26" height="26" rx="13" fill="#7027E5"/>
<path fill-rule="evenodd" clip-rule="evenodd" d="M8.81379 7.12981C7.20487 8.41663 6.25 10.3535 6.25 12.4452C6.25 16.2143 9.32833 19.2679 13.1233 19.2679C16.2015 19.2679 18.8803 17.2414 19.7251 14.3488C19.8841 13.8043 19.2481 13.3783 18.8051 13.7326C17.797 14.5389 16.5443 14.9856 15.2209 14.9856C12.0651 14.9856 9.50875 12.4498 9.50875 9.3241C9.50875 8.78362 9.585 8.25409 9.73364 7.74633C9.89306 7.20174 9.25694 6.77539 8.81379 7.12981ZM8.34738 9.33691L8.34757 9.3241C8.34757 13.0932 11.4259 16.1468 15.2209 16.1468L15.385 16.1449C16.2039 16.1258 16.9992 15.9638 17.7411 15.6735L17.8466 15.6305L17.8175 15.6735C16.7758 17.1594 15.0435 18.1067 13.1233 18.1067C9.96754 18.1067 7.41118 15.5709 7.41118 12.4452C7.41118 11.3712 7.71451 10.3469 8.26283 9.46876L8.34738 9.33691Z" fill="white"/>
</svg>
