<svg width="24" height="25" viewBox="0 0 24 25" fill="none" xmlns="http://www.w3.org/2000/svg">
<path d="M11.1923 2.46875V12.1611H12.8077V2.46875H11.1923ZM9.57692 2.75902C4.95162 3.86328 1.5 8.01532 1.5 12.9688C1.5 18.7614 6.20733 23.4688 12 23.4688C17.7927 23.4688 22.5 18.7614 22.5 12.9688C22.5 8.01532 19.0484 3.86328 14.4231 2.75902V4.43119C18.146 5.49129 20.8846 8.91136 20.8846 12.9688C20.8846 17.8717 16.8966 21.8534 12 21.8534C7.10337 21.8534 3.11538 17.8654 3.11538 12.9688C3.11538 8.91136 5.85397 5.48498 9.57692 4.42488V2.75902Z" fill="#202124"/>
</svg>
