<svg width="316" height="41" viewBox="0 0 316 41" fill="none" xmlns="http://www.w3.org/2000/svg">
<path d="M3.41622 1.38367H312.584C313.454 1.38367 314.218 1.59127 314.747 1.90095C315.288 2.21763 315.5 2.58214 315.5 2.88367V38.8837C315.5 39.1852 315.288 39.5497 314.747 39.8664C314.218 40.1761 313.454 40.3837 312.584 40.3837H3.41622C2.54577 40.3837 1.78216 40.1761 1.2532 39.8664C0.712281 39.5497 0.5 39.1852 0.5 38.8837V2.88367C0.5 2.58214 0.712281 2.21762 1.2532 1.90095C1.78216 1.59127 2.54577 1.38367 3.41622 1.38367Z" fill="white" stroke="#E4E5E7"/>
<path fill-rule="evenodd" clip-rule="evenodd" d="M30.4916 21.0882C30.4916 20.45 30.4343 19.8364 30.3279 19.2473H21.8516V22.7287H26.6952C26.4866 23.8537 25.8525 24.8069 24.8993 25.445V27.7032H27.8079C29.5097 26.1364 30.4916 23.8291 30.4916 21.0882Z" fill="#4285F4"/>
<path fill-rule="evenodd" clip-rule="evenodd" d="M21.8516 29.8836C24.2816 29.8836 26.3188 29.0777 27.8079 27.7032L24.8993 25.445C24.0934 25.985 23.0625 26.3041 21.8516 26.3041C19.5075 26.3041 17.5234 24.7209 16.8157 22.5936H13.8088V24.9254C15.2897 27.8668 18.3334 29.8836 21.8516 29.8836Z" fill="#34A853"/>
<path fill-rule="evenodd" clip-rule="evenodd" d="M16.8157 22.5936C16.6357 22.0536 16.5334 21.4768 16.5334 20.8836C16.5334 20.2904 16.6357 19.7136 16.8157 19.1736V16.8418H13.8088C13.1993 18.0568 12.8516 19.4313 12.8516 20.8836C12.8516 22.3359 13.1993 23.7104 13.8088 24.9254L16.8157 22.5936Z" fill="#FBBC05"/>
<path fill-rule="evenodd" clip-rule="evenodd" d="M21.8516 15.4632C23.1729 15.4632 24.3593 15.9173 25.292 16.8091L27.8734 14.2278C26.3147 12.7755 24.2775 11.8837 21.8516 11.8837C18.3334 11.8837 15.2897 13.9005 13.8088 16.8418L16.8157 19.1737C17.5234 17.0464 19.5075 15.4632 21.8516 15.4632Z" fill="#EA4335"/>
<path d="M57.7727 18.1564C57.7045 17.5806 57.428 17.1337 56.9432 16.8155C56.4583 16.4973 55.8636 16.3382 55.1591 16.3382C54.6439 16.3382 54.1932 16.4215 53.8068 16.5882C53.4242 16.7549 53.125 16.984 52.9091 17.2757C52.697 17.5674 52.5909 17.8988 52.5909 18.27C52.5909 18.5806 52.6648 18.8477 52.8125 19.0712C52.964 19.2909 53.1572 19.4746 53.392 19.6223C53.6269 19.7662 53.8731 19.8856 54.1307 19.9803C54.3883 20.0712 54.625 20.145 54.8409 20.2018L56.0227 20.52C56.3258 20.5996 56.6629 20.7094 57.0341 20.8496C57.4091 20.9897 57.767 21.181 58.108 21.4234C58.4527 21.6621 58.7367 21.9689 58.9602 22.3439C59.1837 22.7189 59.2955 23.1791 59.2955 23.7246C59.2955 24.3534 59.1307 24.9215 58.8011 25.4291C58.4754 25.9367 57.9981 26.3401 57.3693 26.6393C56.7443 26.9386 55.9848 27.0882 55.0909 27.0882C54.2576 27.0882 53.536 26.9537 52.9261 26.6848C52.3201 26.4159 51.8428 26.0409 51.4943 25.5598C51.1496 25.0787 50.9545 24.52 50.9091 23.8837H52.3636C52.4015 24.3231 52.5492 24.6867 52.8068 24.9746C53.0682 25.2587 53.3977 25.4708 53.7955 25.6109C54.197 25.7473 54.6288 25.8155 55.0909 25.8155C55.6288 25.8155 56.1117 25.7284 56.5398 25.5541C56.9678 25.3761 57.3068 25.1299 57.5568 24.8155C57.8068 24.4973 57.9318 24.1261 57.9318 23.7018C57.9318 23.3155 57.8239 23.0011 57.608 22.7587C57.392 22.5162 57.108 22.3193 56.7557 22.1678C56.4034 22.0162 56.0227 21.8837 55.6136 21.77L54.1818 21.3609C53.2727 21.0996 52.553 20.7265 52.0227 20.2416C51.4924 19.7568 51.2273 19.1223 51.2273 18.3382C51.2273 17.6867 51.4034 17.1185 51.7557 16.6337C52.1117 16.145 52.589 15.7662 53.1875 15.4973C53.7898 15.2246 54.4621 15.0882 55.2045 15.0882C55.9545 15.0882 56.6212 15.2227 57.2045 15.4916C57.7879 15.7568 58.25 16.1204 58.5909 16.5825C58.9356 17.0447 59.1174 17.5693 59.1364 18.1564H57.7727ZM61.4304 26.8837V18.1564H62.7713V26.8837H61.4304ZM62.1122 16.7018C61.8509 16.7018 61.6255 16.6128 61.4361 16.4348C61.2505 16.2568 61.1577 16.0428 61.1577 15.7928C61.1577 15.5428 61.2505 15.3287 61.4361 15.1507C61.6255 14.9727 61.8509 14.8837 62.1122 14.8837C62.3736 14.8837 62.5971 14.9727 62.7827 15.1507C62.9721 15.3287 63.0668 15.5428 63.0668 15.7928C63.0668 16.0428 62.9721 16.2568 62.7827 16.4348C62.5971 16.6128 62.3736 16.7018 62.1122 16.7018ZM68.75 30.3382C68.1023 30.3382 67.5455 30.2549 67.0795 30.0882C66.6136 29.9253 66.2254 29.7094 65.9148 29.4405C65.608 29.1753 65.3636 28.8912 65.1818 28.5882L66.25 27.8382C66.3712 27.9973 66.5246 28.1791 66.7102 28.3837C66.8958 28.592 67.1496 28.7719 67.4716 28.9234C67.7973 29.0787 68.2235 29.1564 68.75 29.1564C69.4545 29.1564 70.036 28.9859 70.4943 28.645C70.9527 28.3041 71.1818 27.77 71.1818 27.0428V25.27H71.0682C70.9697 25.4291 70.8295 25.6261 70.6477 25.8609C70.4697 26.092 70.2121 26.2984 69.875 26.4803C69.5417 26.6583 69.0909 26.7473 68.5227 26.7473C67.8182 26.7473 67.1856 26.5806 66.625 26.2473C66.0682 25.914 65.6269 25.4291 65.3011 24.7928C64.9792 24.1564 64.8182 23.3837 64.8182 22.4746C64.8182 21.5806 64.9754 20.8022 65.2898 20.1393C65.6042 19.4727 66.0417 18.9575 66.6023 18.5939C67.1629 18.2265 67.8106 18.0428 68.5455 18.0428C69.1136 18.0428 69.5644 18.1375 69.8977 18.3268C70.2348 18.5125 70.4924 18.7246 70.6705 18.9632C70.8523 19.1981 70.9924 19.3912 71.0909 19.5428H71.2273V18.1564H72.5227V27.1337C72.5227 27.8837 72.3523 28.4935 72.0114 28.9632C71.6742 29.4367 71.2197 29.7833 70.6477 30.003C70.0795 30.2265 69.447 30.3382 68.75 30.3382ZM68.7045 25.5428C69.2424 25.5428 69.697 25.4197 70.0682 25.1734C70.4394 24.9272 70.7216 24.5731 70.9148 24.1109C71.108 23.6488 71.2045 23.0958 71.2045 22.4518C71.2045 21.8231 71.1098 21.2681 70.9205 20.7871C70.7311 20.306 70.4508 19.9291 70.0795 19.6564C69.7083 19.3837 69.25 19.2473 68.7045 19.2473C68.1364 19.2473 67.6629 19.3912 67.2841 19.6791C66.9091 19.967 66.6269 20.3534 66.4375 20.8382C66.2519 21.3231 66.1591 21.8609 66.1591 22.4518C66.1591 23.0579 66.2538 23.5939 66.4432 24.0598C66.6364 24.5219 66.9205 24.8856 67.2955 25.1507C67.6742 25.4121 68.1439 25.5428 68.7045 25.5428ZM76.3182 21.6337V26.8837H74.9773V18.1564H76.2727V19.52H76.3864C76.5909 19.0768 76.9015 18.7208 77.3182 18.4518C77.7348 18.1791 78.2727 18.0428 78.9318 18.0428C79.5227 18.0428 80.0398 18.164 80.483 18.4064C80.9261 18.645 81.2708 19.0087 81.517 19.4973C81.7633 19.9822 81.8864 20.5958 81.8864 21.3382V26.8837H80.5455V21.4291C80.5455 20.7435 80.3674 20.2094 80.0114 19.8268C79.6553 19.4405 79.1667 19.2473 78.5455 19.2473C78.1174 19.2473 77.7348 19.3401 77.3977 19.5257C77.0644 19.7113 76.8011 19.9822 76.608 20.3382C76.4148 20.6943 76.3182 21.1261 76.3182 21.6337ZM88.8366 26.8837V18.1564H90.1776V26.8837H88.8366ZM89.5185 16.7018C89.2571 16.7018 89.0317 16.6128 88.8423 16.4348C88.6567 16.2568 88.5639 16.0428 88.5639 15.7928C88.5639 15.5428 88.6567 15.3287 88.8423 15.1507C89.0317 14.9727 89.2571 14.8837 89.5185 14.8837C89.7798 14.8837 90.0033 14.9727 90.1889 15.1507C90.3783 15.3287 90.473 15.5428 90.473 15.7928C90.473 16.0428 90.3783 16.2568 90.1889 16.4348C90.0033 16.6128 89.7798 16.7018 89.5185 16.7018ZM93.9744 21.6337V26.8837H92.6335V18.1564H93.929V19.52H94.0426C94.2472 19.0768 94.5578 18.7208 94.9744 18.4518C95.3911 18.1791 95.929 18.0428 96.5881 18.0428C97.179 18.0428 97.696 18.164 98.1392 18.4064C98.5824 18.645 98.9271 19.0087 99.1733 19.4973C99.4195 19.9822 99.5426 20.5958 99.5426 21.3382V26.8837H98.2017V21.4291C98.2017 20.7435 98.0237 20.2094 97.6676 19.8268C97.3116 19.4405 96.8229 19.2473 96.2017 19.2473C95.7737 19.2473 95.3911 19.3401 95.054 19.5257C94.7206 19.7113 94.4574 19.9822 94.2642 20.3382C94.071 20.6943 93.9744 21.1261 93.9744 21.6337ZM108.47 26.8837L105.811 18.1564H107.22L109.107 24.8382H109.197L111.061 18.1564H112.493L114.334 24.8155H114.425L116.311 18.1564H117.72L115.061 26.8837H113.743L111.834 20.1791H111.697L109.788 26.8837H108.47ZM119.493 26.8837V18.1564H120.834V26.8837H119.493ZM120.175 16.7018C119.913 16.7018 119.688 16.6128 119.499 16.4348C119.313 16.2568 119.22 16.0428 119.22 15.7928C119.22 15.5428 119.313 15.3287 119.499 15.1507C119.688 14.9727 119.913 14.8837 120.175 14.8837C120.436 14.8837 120.66 14.9727 120.845 15.1507C121.035 15.3287 121.129 15.5428 121.129 15.7928C121.129 16.0428 121.035 16.2568 120.845 16.4348C120.66 16.6128 120.436 16.7018 120.175 16.7018ZM127.085 18.1564V19.2928H122.562V18.1564H127.085ZM123.881 16.0655H125.222V24.3837C125.222 24.7625 125.277 25.0465 125.386 25.2359C125.5 25.4215 125.644 25.5465 125.818 25.6109C125.996 25.6715 126.184 25.7018 126.381 25.7018C126.528 25.7018 126.65 25.6943 126.744 25.6791C126.839 25.6602 126.915 25.645 126.972 25.6337L127.244 26.8382C127.153 26.8723 127.027 26.9064 126.864 26.9405C126.701 26.9784 126.494 26.9973 126.244 26.9973C125.866 26.9973 125.494 26.9159 125.131 26.753C124.771 26.5901 124.472 26.342 124.233 26.0087C123.998 25.6753 123.881 25.2549 123.881 24.7473V16.0655ZM130.631 21.6337V26.8837H129.29V15.2473H130.631V19.52H130.744C130.949 19.0693 131.256 18.7113 131.665 18.4462C132.078 18.1772 132.627 18.0428 133.312 18.0428C133.907 18.0428 134.428 18.1621 134.875 18.4007C135.322 18.6356 135.669 18.9973 135.915 19.4859C136.165 19.9708 136.29 20.5882 136.29 21.3382V26.8837H134.949V21.4291C134.949 20.7359 134.769 20.2 134.409 19.8212C134.053 19.4386 133.559 19.2473 132.926 19.2473C132.487 19.2473 132.093 19.3401 131.744 19.5257C131.4 19.7113 131.127 19.9822 130.926 20.3382C130.729 20.6943 130.631 21.1261 130.631 21.6337ZM151.379 18.8837C151.254 18.5011 151.089 18.1583 150.885 17.8553C150.684 17.5484 150.444 17.2871 150.163 17.0712C149.887 16.8553 149.572 16.6905 149.22 16.5768C148.868 16.4632 148.482 16.4064 148.061 16.4064C147.372 16.4064 146.745 16.5844 146.18 16.9405C145.616 17.2965 145.167 17.8212 144.834 18.5143C144.5 19.2075 144.334 20.0579 144.334 21.0655C144.334 22.0731 144.502 22.9234 144.839 23.6166C145.177 24.3098 145.633 24.8344 146.209 25.1905C146.785 25.5465 147.432 25.7246 148.152 25.7246C148.819 25.7246 149.406 25.5825 149.913 25.2984C150.425 25.0106 150.822 24.6053 151.107 24.0825C151.394 23.556 151.538 22.9367 151.538 22.2246L151.97 22.3155H148.47V21.0655H152.902V22.3155C152.902 23.2738 152.697 24.1072 152.288 24.8155C151.883 25.5238 151.322 26.0731 150.607 26.4632C149.894 26.8496 149.076 27.0428 148.152 27.0428C147.122 27.0428 146.216 26.8003 145.436 26.3155C144.66 25.8306 144.054 25.1412 143.618 24.2473C143.186 23.3534 142.97 22.2928 142.97 21.0655C142.97 20.145 143.093 19.3174 143.339 18.5825C143.589 17.8439 143.942 17.2151 144.396 16.6962C144.851 16.1772 145.389 15.7795 146.01 15.503C146.631 15.2265 147.315 15.0882 148.061 15.0882C148.675 15.0882 149.247 15.181 149.777 15.3666C150.311 15.5484 150.786 15.8079 151.203 16.145C151.624 16.4784 151.974 16.878 152.254 17.3439C152.535 17.806 152.728 18.3193 152.834 18.8837H151.379ZM158.679 27.0655C157.891 27.0655 157.2 26.878 156.605 26.503C156.014 26.128 155.552 25.6034 155.219 24.9291C154.889 24.2549 154.724 23.467 154.724 22.5655C154.724 21.6564 154.889 20.8628 155.219 20.1848C155.552 19.5068 156.014 18.9803 156.605 18.6053C157.2 18.2303 157.891 18.0428 158.679 18.0428C159.467 18.0428 160.156 18.2303 160.747 18.6053C161.342 18.9803 161.804 19.5068 162.134 20.1848C162.467 20.8628 162.634 21.6564 162.634 22.5655C162.634 23.467 162.467 24.2549 162.134 24.9291C161.804 25.6034 161.342 26.128 160.747 26.503C160.156 26.878 159.467 27.0655 158.679 27.0655ZM158.679 25.8609C159.277 25.8609 159.77 25.7075 160.156 25.4007C160.543 25.0939 160.829 24.6905 161.014 24.1905C161.2 23.6905 161.293 23.1488 161.293 22.5655C161.293 21.9822 161.2 21.4386 161.014 20.9348C160.829 20.431 160.543 20.0238 160.156 19.7132C159.77 19.4026 159.277 19.2473 158.679 19.2473C158.08 19.2473 157.588 19.4026 157.202 19.7132C156.815 20.0238 156.529 20.431 156.344 20.9348C156.158 21.4386 156.065 21.9822 156.065 22.5655C156.065 23.1488 156.158 23.6905 156.344 24.1905C156.529 24.6905 156.815 25.0939 157.202 25.4007C157.588 25.7075 158.08 25.8609 158.679 25.8609ZM168.226 27.0655C167.438 27.0655 166.747 26.878 166.152 26.503C165.561 26.128 165.099 25.6034 164.766 24.9291C164.436 24.2549 164.271 23.467 164.271 22.5655C164.271 21.6564 164.436 20.8628 164.766 20.1848C165.099 19.5068 165.561 18.9803 166.152 18.6053C166.747 18.2303 167.438 18.0428 168.226 18.0428C169.014 18.0428 169.703 18.2303 170.294 18.6053C170.889 18.9803 171.351 19.5068 171.68 20.1848C172.014 20.8628 172.18 21.6564 172.18 22.5655C172.18 23.467 172.014 24.2549 171.68 24.9291C171.351 25.6034 170.889 26.128 170.294 26.503C169.703 26.878 169.014 27.0655 168.226 27.0655ZM168.226 25.8609C168.824 25.8609 169.317 25.7075 169.703 25.4007C170.089 25.0939 170.375 24.6905 170.561 24.1905C170.747 23.6905 170.839 23.1488 170.839 22.5655C170.839 21.9822 170.747 21.4386 170.561 20.9348C170.375 20.431 170.089 20.0238 169.703 19.7132C169.317 19.4026 168.824 19.2473 168.226 19.2473C167.627 19.2473 167.135 19.4026 166.749 19.7132C166.362 20.0238 166.076 20.431 165.891 20.9348C165.705 21.4386 165.612 21.9822 165.612 22.5655C165.612 23.1488 165.705 23.6905 165.891 24.1905C166.076 24.6905 166.362 25.0939 166.749 25.4007C167.135 25.7075 167.627 25.8609 168.226 25.8609ZM177.75 30.3382C177.102 30.3382 176.545 30.2549 176.08 30.0882C175.614 29.9253 175.225 29.7094 174.915 29.4405C174.608 29.1753 174.364 28.8912 174.182 28.5882L175.25 27.8382C175.371 27.9973 175.525 28.1791 175.71 28.3837C175.896 28.592 176.15 28.7719 176.472 28.9234C176.797 29.0787 177.223 29.1564 177.75 29.1564C178.455 29.1564 179.036 28.9859 179.494 28.645C179.953 28.3041 180.182 27.77 180.182 27.0428V25.27H180.068C179.97 25.4291 179.83 25.6261 179.648 25.8609C179.47 26.092 179.212 26.2984 178.875 26.4803C178.542 26.6583 178.091 26.7473 177.523 26.7473C176.818 26.7473 176.186 26.5806 175.625 26.2473C175.068 25.914 174.627 25.4291 174.301 24.7928C173.979 24.1564 173.818 23.3837 173.818 22.4746C173.818 21.5806 173.975 20.8022 174.29 20.1393C174.604 19.4727 175.042 18.9575 175.602 18.5939C176.163 18.2265 176.811 18.0428 177.545 18.0428C178.114 18.0428 178.564 18.1375 178.898 18.3268C179.235 18.5125 179.492 18.7246 179.67 18.9632C179.852 19.1981 179.992 19.3912 180.091 19.5428H180.227V18.1564H181.523V27.1337C181.523 27.8837 181.352 28.4935 181.011 28.9632C180.674 29.4367 180.22 29.7833 179.648 30.003C179.08 30.2265 178.447 30.3382 177.75 30.3382ZM177.705 25.5428C178.242 25.5428 178.697 25.4197 179.068 25.1734C179.439 24.9272 179.722 24.5731 179.915 24.1109C180.108 23.6488 180.205 23.0958 180.205 22.4518C180.205 21.8231 180.11 21.2681 179.92 20.7871C179.731 20.306 179.451 19.9291 179.08 19.6564C178.708 19.3837 178.25 19.2473 177.705 19.2473C177.136 19.2473 176.663 19.3912 176.284 19.6791C175.909 19.967 175.627 20.3534 175.438 20.8382C175.252 21.3231 175.159 21.8609 175.159 22.4518C175.159 23.0579 175.254 23.5939 175.443 24.0598C175.636 24.5219 175.92 24.8856 176.295 25.1507C176.674 25.4121 177.144 25.5428 177.705 25.5428ZM185.318 15.2473V26.8837H183.977V15.2473H185.318ZM191.433 27.0655C190.592 27.0655 189.867 26.8799 189.257 26.5087C188.651 26.1337 188.183 25.6109 187.854 24.9405C187.528 24.2662 187.365 23.4822 187.365 22.5882C187.365 21.6943 187.528 20.9064 187.854 20.2246C188.183 19.539 188.642 19.0049 189.229 18.6223C189.82 18.2359 190.509 18.0428 191.297 18.0428C191.751 18.0428 192.2 18.1185 192.643 18.27C193.087 18.4215 193.49 18.6678 193.854 19.0087C194.217 19.3458 194.507 19.7928 194.723 20.3496C194.939 20.9064 195.047 21.592 195.047 22.4064V22.9746H188.32V21.8155H193.683C193.683 21.3231 193.585 20.8837 193.388 20.4973C193.195 20.1109 192.918 19.806 192.558 19.5825C192.202 19.359 191.782 19.2473 191.297 19.2473C190.763 19.2473 190.301 19.3799 189.911 19.645C189.524 19.9064 189.227 20.2473 189.018 20.6678C188.81 21.0882 188.706 21.539 188.706 22.02V22.7928C188.706 23.4518 188.82 24.0106 189.047 24.4689C189.278 24.9234 189.598 25.27 190.007 25.5087C190.416 25.7435 190.892 25.8609 191.433 25.8609C191.786 25.8609 192.104 25.8117 192.388 25.7132C192.676 25.6109 192.924 25.4594 193.132 25.2587C193.34 25.0541 193.501 24.8003 193.615 24.4973L194.911 24.8609C194.774 25.3003 194.545 25.6867 194.223 26.02C193.901 26.3496 193.503 26.6072 193.03 26.7928C192.556 26.9746 192.024 27.0655 191.433 27.0655Z" fill="#202124"/>
</svg>
