<svg width="316" height="41" viewBox="0 0 316 41" fill="none" xmlns="http://www.w3.org/2000/svg">
<path d="M3.41622 1.38367H312.584C313.454 1.38367 314.218 1.59127 314.747 1.90095C315.288 2.21763 315.5 2.58214 315.5 2.88367V38.8837C315.5 39.1852 315.288 39.5497 314.747 39.8664C314.218 40.1761 313.454 40.3837 312.584 40.3837H3.41622C2.54577 40.3837 1.78216 40.1761 1.2532 39.8664C0.712281 39.5497 0.5 39.1852 0.5 38.8837V2.88367C0.5 2.58214 0.712281 2.21762 1.2532 1.90095C1.78216 1.59127 2.54577 1.38367 3.41622 1.38367Z" fill="white" stroke="#E4E5E7"/>
<path d="M21.8515 11.8837H12.9819V20.8837H21.8515V11.8837Z" fill="#F25022"/>
<path d="M21.8515 21.8837H12.9819V30.8837H21.8515V21.8837Z" fill="#00A4EF"/>
<path d="M31.7067 11.8837H22.8372V20.8837H31.7067V11.8837Z" fill="#7FBA00"/>
<path d="M31.7067 21.8837H22.8372V30.8837H31.7067V21.8837Z" fill="#FFB900"/>
<path d="M57.7727 18.1564C57.7045 17.5806 57.428 17.1337 56.9432 16.8155C56.4583 16.4973 55.8636 16.3382 55.1591 16.3382C54.6439 16.3382 54.1932 16.4215 53.8068 16.5882C53.4242 16.7549 53.125 16.984 52.9091 17.2757C52.697 17.5674 52.5909 17.8988 52.5909 18.27C52.5909 18.5806 52.6648 18.8477 52.8125 19.0712C52.964 19.2909 53.1572 19.4746 53.392 19.6223C53.6269 19.7662 53.8731 19.8856 54.1307 19.9803C54.3883 20.0712 54.625 20.145 54.8409 20.2018L56.0227 20.52C56.3258 20.5996 56.6629 20.7094 57.0341 20.8496C57.4091 20.9897 57.767 21.181 58.108 21.4234C58.4527 21.6621 58.7367 21.9689 58.9602 22.3439C59.1837 22.7189 59.2955 23.1791 59.2955 23.7246C59.2955 24.3534 59.1307 24.9215 58.8011 25.4291C58.4754 25.9367 57.9981 26.3401 57.3693 26.6393C56.7443 26.9386 55.9848 27.0882 55.0909 27.0882C54.2576 27.0882 53.536 26.9537 52.9261 26.6848C52.3201 26.4159 51.8428 26.0409 51.4943 25.5598C51.1496 25.0787 50.9545 24.52 50.9091 23.8837H52.3636C52.4015 24.3231 52.5492 24.6867 52.8068 24.9746C53.0682 25.2587 53.3977 25.4708 53.7955 25.6109C54.197 25.7473 54.6288 25.8155 55.0909 25.8155C55.6288 25.8155 56.1117 25.7284 56.5398 25.5541C56.9678 25.3761 57.3068 25.1299 57.5568 24.8155C57.8068 24.4973 57.9318 24.1261 57.9318 23.7018C57.9318 23.3155 57.8239 23.0011 57.608 22.7587C57.392 22.5162 57.108 22.3193 56.7557 22.1678C56.4034 22.0162 56.0227 21.8837 55.6136 21.77L54.1818 21.3609C53.2727 21.0996 52.553 20.7265 52.0227 20.2416C51.4924 19.7568 51.2273 19.1223 51.2273 18.3382C51.2273 17.6867 51.4034 17.1185 51.7557 16.6337C52.1117 16.145 52.589 15.7662 53.1875 15.4973C53.7898 15.2246 54.4621 15.0882 55.2045 15.0882C55.9545 15.0882 56.6212 15.2227 57.2045 15.4916C57.7879 15.7568 58.25 16.1204 58.5909 16.5825C58.9356 17.0447 59.1174 17.5693 59.1364 18.1564H57.7727ZM61.4304 26.8837V18.1564H62.7713V26.8837H61.4304ZM62.1122 16.7018C61.8509 16.7018 61.6255 16.6128 61.4361 16.4348C61.2505 16.2568 61.1577 16.0428 61.1577 15.7928C61.1577 15.5428 61.2505 15.3287 61.4361 15.1507C61.6255 14.9727 61.8509 14.8837 62.1122 14.8837C62.3736 14.8837 62.5971 14.9727 62.7827 15.1507C62.9721 15.3287 63.0668 15.5428 63.0668 15.7928C63.0668 16.0428 62.9721 16.2568 62.7827 16.4348C62.5971 16.6128 62.3736 16.7018 62.1122 16.7018ZM68.75 30.3382C68.1023 30.3382 67.5455 30.2549 67.0795 30.0882C66.6136 29.9253 66.2254 29.7094 65.9148 29.4405C65.608 29.1753 65.3636 28.8912 65.1818 28.5882L66.25 27.8382C66.3712 27.9973 66.5246 28.1791 66.7102 28.3837C66.8958 28.592 67.1496 28.7719 67.4716 28.9234C67.7973 29.0787 68.2235 29.1564 68.75 29.1564C69.4545 29.1564 70.036 28.9859 70.4943 28.645C70.9527 28.3041 71.1818 27.77 71.1818 27.0428V25.27H71.0682C70.9697 25.4291 70.8295 25.6261 70.6477 25.8609C70.4697 26.092 70.2121 26.2984 69.875 26.4803C69.5417 26.6583 69.0909 26.7473 68.5227 26.7473C67.8182 26.7473 67.1856 26.5806 66.625 26.2473C66.0682 25.914 65.6269 25.4291 65.3011 24.7928C64.9792 24.1564 64.8182 23.3837 64.8182 22.4746C64.8182 21.5806 64.9754 20.8022 65.2898 20.1393C65.6042 19.4727 66.0417 18.9575 66.6023 18.5939C67.1629 18.2265 67.8106 18.0428 68.5455 18.0428C69.1136 18.0428 69.5644 18.1375 69.8977 18.3268C70.2348 18.5125 70.4924 18.7246 70.6705 18.9632C70.8523 19.1981 70.9924 19.3912 71.0909 19.5428H71.2273V18.1564H72.5227V27.1337C72.5227 27.8837 72.3523 28.4935 72.0114 28.9632C71.6742 29.4367 71.2197 29.7833 70.6477 30.003C70.0795 30.2265 69.447 30.3382 68.75 30.3382ZM68.7045 25.5428C69.2424 25.5428 69.697 25.4197 70.0682 25.1734C70.4394 24.9272 70.7216 24.5731 70.9148 24.1109C71.108 23.6488 71.2045 23.0958 71.2045 22.4518C71.2045 21.8231 71.1098 21.2681 70.9205 20.7871C70.7311 20.306 70.4508 19.9291 70.0795 19.6564C69.7083 19.3837 69.25 19.2473 68.7045 19.2473C68.1364 19.2473 67.6629 19.3912 67.2841 19.6791C66.9091 19.967 66.6269 20.3534 66.4375 20.8382C66.2519 21.3231 66.1591 21.8609 66.1591 22.4518C66.1591 23.0579 66.2538 23.5939 66.4432 24.0598C66.6364 24.5219 66.9205 24.8856 67.2955 25.1507C67.6742 25.4121 68.1439 25.5428 68.7045 25.5428ZM76.3182 21.6337V26.8837H74.9773V18.1564H76.2727V19.52H76.3864C76.5909 19.0768 76.9015 18.7208 77.3182 18.4518C77.7348 18.1791 78.2727 18.0428 78.9318 18.0428C79.5227 18.0428 80.0398 18.164 80.483 18.4064C80.9261 18.645 81.2708 19.0087 81.517 19.4973C81.7633 19.9822 81.8864 20.5958 81.8864 21.3382V26.8837H80.5455V21.4291C80.5455 20.7435 80.3674 20.2094 80.0114 19.8268C79.6553 19.4405 79.1667 19.2473 78.5455 19.2473C78.1174 19.2473 77.7348 19.3401 77.3977 19.5257C77.0644 19.7113 76.8011 19.9822 76.608 20.3382C76.4148 20.6943 76.3182 21.1261 76.3182 21.6337ZM88.8366 26.8837V18.1564H90.1776V26.8837H88.8366ZM89.5185 16.7018C89.2571 16.7018 89.0317 16.6128 88.8423 16.4348C88.6567 16.2568 88.5639 16.0428 88.5639 15.7928C88.5639 15.5428 88.6567 15.3287 88.8423 15.1507C89.0317 14.9727 89.2571 14.8837 89.5185 14.8837C89.7798 14.8837 90.0033 14.9727 90.1889 15.1507C90.3783 15.3287 90.473 15.5428 90.473 15.7928C90.473 16.0428 90.3783 16.2568 90.1889 16.4348C90.0033 16.6128 89.7798 16.7018 89.5185 16.7018ZM93.9744 21.6337V26.8837H92.6335V18.1564H93.929V19.52H94.0426C94.2472 19.0768 94.5578 18.7208 94.9744 18.4518C95.3911 18.1791 95.929 18.0428 96.5881 18.0428C97.179 18.0428 97.696 18.164 98.1392 18.4064C98.5824 18.645 98.9271 19.0087 99.1733 19.4973C99.4195 19.9822 99.5426 20.5958 99.5426 21.3382V26.8837H98.2017V21.4291C98.2017 20.7435 98.0237 20.2094 97.6676 19.8268C97.3116 19.4405 96.8229 19.2473 96.2017 19.2473C95.7737 19.2473 95.3911 19.3401 95.054 19.5257C94.7206 19.7113 94.4574 19.9822 94.2642 20.3382C94.071 20.6943 93.9744 21.1261 93.9744 21.6337ZM108.47 26.8837L105.811 18.1564H107.22L109.107 24.8382H109.197L111.061 18.1564H112.493L114.334 24.8155H114.425L116.311 18.1564H117.72L115.061 26.8837H113.743L111.834 20.1791H111.697L109.788 26.8837H108.47ZM119.493 26.8837V18.1564H120.834V26.8837H119.493ZM120.175 16.7018C119.913 16.7018 119.688 16.6128 119.499 16.4348C119.313 16.2568 119.22 16.0428 119.22 15.7928C119.22 15.5428 119.313 15.3287 119.499 15.1507C119.688 14.9727 119.913 14.8837 120.175 14.8837C120.436 14.8837 120.66 14.9727 120.845 15.1507C121.035 15.3287 121.129 15.5428 121.129 15.7928C121.129 16.0428 121.035 16.2568 120.845 16.4348C120.66 16.6128 120.436 16.7018 120.175 16.7018ZM127.085 18.1564V19.2928H122.562V18.1564H127.085ZM123.881 16.0655H125.222V24.3837C125.222 24.7625 125.277 25.0465 125.386 25.2359C125.5 25.4215 125.644 25.5465 125.818 25.6109C125.996 25.6715 126.184 25.7018 126.381 25.7018C126.528 25.7018 126.65 25.6943 126.744 25.6791C126.839 25.6602 126.915 25.645 126.972 25.6337L127.244 26.8382C127.153 26.8723 127.027 26.9064 126.864 26.9405C126.701 26.9784 126.494 26.9973 126.244 26.9973C125.866 26.9973 125.494 26.9159 125.131 26.753C124.771 26.5901 124.472 26.342 124.233 26.0087C123.998 25.6753 123.881 25.2549 123.881 24.7473V16.0655ZM130.631 21.6337V26.8837H129.29V15.2473H130.631V19.52H130.744C130.949 19.0693 131.256 18.7113 131.665 18.4462C132.078 18.1772 132.627 18.0428 133.312 18.0428C133.907 18.0428 134.428 18.1621 134.875 18.4007C135.322 18.6356 135.669 18.9973 135.915 19.4859C136.165 19.9708 136.29 20.5882 136.29 21.3382V26.8837H134.949V21.4291C134.949 20.7359 134.769 20.2 134.409 19.8212C134.053 19.4386 133.559 19.2473 132.926 19.2473C132.487 19.2473 132.093 19.3401 131.744 19.5257C131.4 19.7113 131.127 19.9822 130.926 20.3382C130.729 20.6943 130.631 21.1261 130.631 21.6337ZM143.425 15.2473H145.107L149.061 24.9064H149.197L153.152 15.2473H154.834V26.8837H153.516V18.0428H153.402L149.766 26.8837H148.493L144.857 18.0428H144.743V26.8837H143.425V15.2473ZM157.477 26.8837V18.1564H158.818V26.8837H157.477ZM158.159 16.7018C157.898 16.7018 157.672 16.6128 157.483 16.4348C157.297 16.2568 157.205 16.0428 157.205 15.7928C157.205 15.5428 157.297 15.3287 157.483 15.1507C157.672 14.9727 157.898 14.8837 158.159 14.8837C158.42 14.8837 158.644 14.9727 158.83 15.1507C159.019 15.3287 159.114 15.5428 159.114 15.7928C159.114 16.0428 159.019 16.2568 158.83 16.4348C158.644 16.6128 158.42 16.7018 158.159 16.7018ZM164.82 27.0655C164.001 27.0655 163.297 26.8723 162.706 26.4859C162.115 26.0996 161.661 25.5674 161.342 24.8893C161.024 24.2113 160.865 23.4367 160.865 22.5655C160.865 21.6791 161.028 20.8969 161.354 20.2189C161.683 19.5371 162.142 19.0049 162.729 18.6223C163.32 18.2359 164.009 18.0428 164.797 18.0428C165.411 18.0428 165.964 18.1564 166.456 18.3837C166.948 18.6109 167.352 18.9291 167.666 19.3382C167.981 19.7473 168.176 20.2246 168.251 20.77H166.911C166.808 20.3723 166.581 20.02 166.229 19.7132C165.88 19.4026 165.411 19.2473 164.82 19.2473C164.297 19.2473 163.839 19.3837 163.445 19.6564C163.054 19.9253 162.75 20.306 162.53 20.7984C162.314 21.2871 162.206 21.8609 162.206 22.52C162.206 23.1943 162.312 23.7814 162.524 24.2814C162.74 24.7814 163.043 25.1697 163.433 25.4462C163.827 25.7227 164.289 25.8609 164.82 25.8609C165.168 25.8609 165.484 25.8003 165.768 25.6791C166.053 25.5579 166.293 25.3837 166.49 25.1564C166.687 24.9291 166.827 24.6564 166.911 24.3382H168.251C168.176 24.8534 167.988 25.3174 167.689 25.7303C167.393 26.1393 167.001 26.4651 166.513 26.7075C166.028 26.9462 165.464 27.0655 164.82 27.0655ZM170.212 26.8837V18.1564H171.507V19.4746H171.598C171.757 19.0428 172.045 18.6924 172.462 18.4234C172.878 18.1545 173.348 18.02 173.871 18.02C173.969 18.02 174.092 18.0219 174.24 18.0257C174.388 18.0295 174.5 18.0352 174.575 18.0428V19.4064C174.53 19.395 174.426 19.378 174.263 19.3553C174.104 19.3287 173.935 19.3155 173.757 19.3155C173.333 19.3155 172.954 19.4045 172.621 19.5825C172.291 19.7568 172.03 19.9992 171.837 20.3098C171.647 20.6166 171.553 20.967 171.553 21.3609V26.8837H170.212ZM179.445 27.0655C178.657 27.0655 177.965 26.878 177.371 26.503C176.78 26.128 176.318 25.6034 175.984 24.9291C175.655 24.2549 175.49 23.467 175.49 22.5655C175.49 21.6564 175.655 20.8628 175.984 20.1848C176.318 19.5068 176.78 18.9803 177.371 18.6053C177.965 18.2303 178.657 18.0428 179.445 18.0428C180.232 18.0428 180.922 18.2303 181.513 18.6053C182.107 18.9803 182.57 19.5068 182.899 20.1848C183.232 20.8628 183.399 21.6564 183.399 22.5655C183.399 23.467 183.232 24.2549 182.899 24.9291C182.57 25.6034 182.107 26.128 181.513 26.503C180.922 26.878 180.232 27.0655 179.445 27.0655ZM179.445 25.8609C180.043 25.8609 180.536 25.7075 180.922 25.4007C181.308 25.0939 181.594 24.6905 181.78 24.1905C181.965 23.6905 182.058 23.1488 182.058 22.5655C182.058 21.9822 181.965 21.4386 181.78 20.9348C181.594 20.431 181.308 20.0238 180.922 19.7132C180.536 19.4026 180.043 19.2473 179.445 19.2473C178.846 19.2473 178.354 19.4026 177.967 19.7132C177.581 20.0238 177.295 20.431 177.109 20.9348C176.924 21.4386 176.831 21.9822 176.831 22.5655C176.831 23.1488 176.924 23.6905 177.109 24.1905C177.295 24.6905 177.581 25.0939 177.967 25.4007C178.354 25.7075 178.846 25.8609 179.445 25.8609ZM191.628 20.1109L190.423 20.4518C190.348 20.2511 190.236 20.056 190.088 19.8666C189.944 19.6734 189.747 19.5143 189.497 19.3893C189.247 19.2643 188.927 19.2018 188.537 19.2018C188.003 19.2018 187.558 19.325 187.202 19.5712C186.849 19.8136 186.673 20.1223 186.673 20.4973C186.673 20.8306 186.795 21.0939 187.037 21.2871C187.279 21.4803 187.658 21.6412 188.173 21.77L189.469 22.0882C190.249 22.2776 190.83 22.5674 191.213 22.9575C191.596 23.3439 191.787 23.842 191.787 24.4518C191.787 24.9518 191.643 25.3988 191.355 25.7928C191.071 26.1867 190.673 26.4973 190.162 26.7246C189.651 26.9518 189.056 27.0655 188.378 27.0655C187.488 27.0655 186.751 26.8723 186.168 26.4859C185.584 26.0996 185.215 25.5352 185.06 24.7928L186.332 24.4746C186.454 24.9443 186.683 25.2965 187.02 25.5314C187.361 25.7662 187.806 25.8837 188.355 25.8837C188.98 25.8837 189.476 25.7511 189.844 25.4859C190.215 25.217 190.401 24.895 190.401 24.52C190.401 24.217 190.295 23.9632 190.082 23.7587C189.87 23.5503 189.545 23.395 189.105 23.2928L187.651 22.9518C186.851 22.7625 186.264 22.4689 185.889 22.0712C185.518 21.6697 185.332 21.1678 185.332 20.5655C185.332 20.0731 185.471 19.6375 185.747 19.2587C186.027 18.8799 186.408 18.5825 186.889 18.3666C187.374 18.1507 187.923 18.0428 188.537 18.0428C189.401 18.0428 190.079 18.2322 190.571 18.6109C191.067 18.9897 191.42 19.4897 191.628 20.1109ZM197.351 27.0655C196.563 27.0655 195.872 26.878 195.277 26.503C194.686 26.128 194.224 25.6034 193.891 24.9291C193.561 24.2549 193.396 23.467 193.396 22.5655C193.396 21.6564 193.561 20.8628 193.891 20.1848C194.224 19.5068 194.686 18.9803 195.277 18.6053C195.872 18.2303 196.563 18.0428 197.351 18.0428C198.139 18.0428 198.828 18.2303 199.419 18.6053C200.014 18.9803 200.476 19.5068 200.805 20.1848C201.139 20.8628 201.305 21.6564 201.305 22.5655C201.305 23.467 201.139 24.2549 200.805 24.9291C200.476 25.6034 200.014 26.128 199.419 26.503C198.828 26.878 198.139 27.0655 197.351 27.0655ZM197.351 25.8609C197.949 25.8609 198.442 25.7075 198.828 25.4007C199.214 25.0939 199.5 24.6905 199.686 24.1905C199.872 23.6905 199.964 23.1488 199.964 22.5655C199.964 21.9822 199.872 21.4386 199.686 20.9348C199.5 20.431 199.214 20.0238 198.828 19.7132C198.442 19.4026 197.949 19.2473 197.351 19.2473C196.752 19.2473 196.26 19.4026 195.874 19.7132C195.487 20.0238 195.201 20.431 195.016 20.9348C194.83 21.4386 194.737 21.9822 194.737 22.5655C194.737 23.1488 194.83 23.6905 195.016 24.1905C195.201 24.6905 195.487 25.0939 195.874 25.4007C196.26 25.7075 196.752 25.8609 197.351 25.8609ZM207.239 18.1564V19.2928H202.534V18.1564H207.239ZM203.943 26.8837V16.9518C203.943 16.4518 204.061 16.0352 204.295 15.7018C204.53 15.3685 204.835 15.1185 205.21 14.9518C205.585 14.7852 205.981 14.7018 206.398 14.7018C206.727 14.7018 206.996 14.7284 207.205 14.7814C207.413 14.8344 207.568 14.8837 207.67 14.9291L207.284 16.0882C207.216 16.0655 207.121 16.0371 207 16.003C206.883 15.9689 206.727 15.9518 206.534 15.9518C206.091 15.9518 205.771 16.0636 205.574 16.2871C205.381 16.5106 205.284 16.8382 205.284 17.27V26.8837H203.943ZM212.913 18.1564V19.2928H208.391V18.1564H212.913ZM209.709 16.0655H211.05V24.3837C211.05 24.7625 211.105 25.0465 211.214 25.2359C211.328 25.4215 211.472 25.5465 211.646 25.6109C211.824 25.6715 212.012 25.7018 212.209 25.7018C212.357 25.7018 212.478 25.6943 212.572 25.6791C212.667 25.6602 212.743 25.645 212.8 25.6337L213.072 26.8382C212.982 26.8723 212.855 26.9064 212.692 26.9405C212.529 26.9784 212.322 26.9973 212.072 26.9973C211.694 26.9973 211.322 26.9159 210.959 26.753C210.599 26.5901 210.3 26.342 210.061 26.0087C209.826 25.6753 209.709 25.2549 209.709 24.7473V16.0655Z" fill="#202124"/>
</svg>
