<svg width="189" height="144" viewBox="0 0 189 144" fill="none" xmlns="http://www.w3.org/2000/svg">
<path d="M130.432 119.354C130.437 116.403 130.763 116.403 130.767 113.649C130.771 110.698 130.351 110.697 130.355 107.943C130.36 104.992 130.593 104.992 130.597 102.238C130.601 99.2872 130.507 99.2871 130.511 96.5327C130.491 93.5818 130.491 93.5818 130.473 90.8274C130.453 87.8765 130.454 88.0731 130.434 85.1221C130.439 82.1712 130.532 82.1714 130.536 79.417C130.54 76.4661 130.82 76.4665 130.824 73.7122C130.828 70.7613 130.595 70.7609 130.599 68.0066C130.603 65.0557 130.743 65.0559 130.746 62.3016C130.749 60.8266 130.773 60.0887 130.797 59.375C130.807 59.0186 130.818 58.668 130.831 58.2351C130.836 57.6657 130.841 56.9877 130.849 56.0842C130.849 55.6677 130.851 55.2813 130.851 55.2581C127.874 55.2316 127.653 55.2303 124.656 55.2037C121.696 55.1995 121.696 55.4785 118.934 55.4745C115.975 55.4945 115.975 55.4945 113.212 55.5129C110.253 55.5087 110.253 55.4157 107.491 55.4118C104.532 55.4076 104.532 55.4076 101.77 55.4037C98.8106 55.3995 98.8104 55.5389 96.0484 55.535C93.0891 55.555 93.0891 55.555 90.327 55.5733C87.3677 55.5691 87.368 55.3832 84.6059 55.3793C81.6467 55.3751 81.6465 55.5145 78.8844 55.5106C75.9252 55.5064 75.9252 55.5064 73.1631 55.5025C70.2039 55.4741 70.2039 55.4741 67.4418 55.4479C64.4855 55.4456 64.4859 55.1202 61.7239 55.1163C58.7646 55.1121 58.7642 55.391 56.0021 55.3871C53.0429 55.3828 53.0427 55.5223 50.2806 55.5184C47.3214 55.5142 47.322 55.0958 44.5609 55.0919C41.6016 55.0877 41.6011 55.4596 38.839 55.4556C35.8798 55.4272 35.8798 55.4272 33.1178 55.401C30.1585 55.3968 30.1588 55.1644 27.3968 55.1605C24.4375 55.1563 24.4373 55.2957 21.6752 55.2918C18.7169 55.3118 18.7169 55.3118 15.9548 55.3302C14.5058 55.3281 13.7658 55.2941 13.0578 55.2582C12.7034 55.2432 12.3567 55.2282 11.9342 55.2092C11.6934 55.204 11.4312 55.1978 11.135 55.1916C10.661 55.189 10.1337 55.1853 9.53346 55.1816C9.53346 55.1816 9.53332 55.2852 9.53317 55.3879C9.50417 58.7106 9.50417 58.7106 9.47742 61.8126C9.44895 64.7635 9.44895 64.7635 9.4227 67.5178C9.41851 70.4687 9.83806 70.4693 9.83415 73.2236C9.82996 76.1745 9.59687 76.1742 9.59296 78.9285C9.58876 81.8794 9.72862 81.8796 9.7247 84.6339C9.72051 87.5849 9.81375 87.585 9.80983 90.3393C9.80564 93.2883 9.38608 93.2877 9.38217 96.042C9.37798 98.9929 9.37798 98.9929 9.37406 101.747C9.36987 104.698 9.60296 104.698 9.59904 107.453C9.61913 110.404 9.61913 110.404 9.63756 113.158C9.63336 116.109 9.40028 116.109 9.39636 118.863C9.39217 121.814 9.4854 121.814 9.48149 124.568C9.46272 126.161 9.45068 127.112 9.44398 127.728C10.252 127.744 10.9143 127.757 11.6942 127.771C12.1963 127.777 12.7741 127.785 13.5987 127.794C16.5579 127.823 16.5579 127.823 19.3199 127.849C22.2792 127.853 22.2798 127.436 25.0418 127.44C28.0011 127.444 28.0008 127.676 30.7628 127.68C33.7221 127.684 33.7219 127.824 36.484 127.828C39.4432 127.832 39.4435 127.6 42.2056 127.604C45.1649 127.608 45.1645 127.887 47.9265 127.891C50.8858 127.895 50.8863 127.523 53.6484 127.527C56.6076 127.531 56.6075 127.624 59.3696 127.628C62.3288 127.632 62.3285 127.865 65.0906 127.869C68.0498 127.873 68.0498 127.873 70.8119 127.877C73.7711 127.881 73.7715 127.648 76.5336 127.652C79.4928 127.657 79.4923 127.982 82.2544 127.986C85.2137 127.99 85.2143 127.525 87.9764 127.529C90.9356 127.533 90.935 127.952 93.6971 127.956C96.6564 127.96 96.6566 127.774 99.4187 127.778C102.378 127.782 102.378 127.643 105.14 127.647C108.099 127.651 108.099 127.79 110.861 127.794C113.821 127.798 113.82 127.938 116.582 127.942C119.542 127.946 119.542 127.574 122.304 127.578C125.066 127.582 126.643 128.42 128.617 127.959C129.833 127.674 130.058 127.388 129.674 127.102L129.845 127.102L129.845 127.099C130.121 127.131 130.403 126.642 130.662 125.652C131.125 123.683 130.428 122.108 130.432 119.354Z" fill="#EF9AA3"/>
<path d="M70.9521 103.827C70.9463 103.827 70.9405 103.827 70.9347 103.827C69.8595 103.82 69.5436 103.356 69.2393 102.91C69.0784 102.672 68.9107 102.426 68.5789 102.166C68.0871 101.78 67.8222 101.624 67.5427 101.461C67.2458 101.288 66.9401 101.109 66.3959 100.682C65.84 100.245 65.6044 99.965 65.3746 99.6935C65.169 99.4492 64.9751 99.2184 64.4978 98.8429C63.9546 98.416 63.7092 98.162 63.4706 97.9156C63.2457 97.6829 63.0333 97.4627 62.5424 97.0776C62.0496 96.6914 61.7876 96.5341 61.5081 96.3672C61.2151 96.1924 60.9133 96.0109 60.3719 95.5859C59.8316 95.1619 59.5843 94.9137 59.3438 94.6741C59.1139 94.4443 58.8967 94.228 58.4048 93.8409C57.977 93.5042 57.71 93.4457 57.3741 93.3716C56.9896 93.2868 56.5537 93.1913 55.9512 92.7178C55.4429 92.3181 55.18 92.1279 54.919 91.9387C54.6493 91.7427 54.3786 91.5476 53.8547 91.1362C53.3289 90.7229 53.0767 90.5008 52.8255 90.2796C52.584 90.0662 52.3424 89.8538 51.8351 89.455C51.2394 88.9864 51.0341 88.6036 50.8529 88.2663C50.698 87.9755 50.5633 87.7245 50.1277 87.382C49.633 86.9929 49.371 86.8318 49.0944 86.661C48.8062 86.4833 48.5083 86.2999 47.9709 85.8768C47.4965 85.5043 47.2248 85.3741 46.9394 85.2352C46.6182 85.0808 46.2863 84.9205 45.7294 84.482C45.1697 84.0425 44.937 83.7545 44.7121 83.4762C44.5123 83.229 44.3233 82.9963 43.8508 82.6247C43.3862 82.2599 43.1241 82.1491 42.8203 82.0199C42.499 81.8838 42.1341 81.7293 41.5685 81.284C41.001 80.8387 40.7654 80.5197 40.557 80.2395C40.3612 79.9748 40.1916 79.7451 39.7269 79.3803C39.2457 79.0019 38.9788 78.8611 38.6954 78.7115C38.3878 78.5484 38.0685 78.3794 37.5185 77.9477C37.0101 77.5479 36.7501 77.351 36.4921 77.155C36.2282 76.9541 35.9653 76.7552 35.4443 76.3448C34.8506 75.8781 34.6433 75.5001 34.4602 75.1667C34.3023 74.8779 34.1658 74.6288 33.7292 74.2854C33.3072 73.9545 33.0373 73.9057 32.6965 73.8432C32.2984 73.771 31.8469 73.688 31.2367 73.2087C30.708 72.7935 30.4597 72.5646 30.2114 72.3366C29.9757 72.1203 29.7419 71.905 29.2404 71.5111C28.7446 71.1211 28.4856 70.9561 28.21 70.7813C27.9276 70.6008 27.6356 70.4154 27.102 69.9963C26.4937 69.5189 26.3059 69.1061 26.1404 68.7417C25.998 68.4277 25.8838 68.1787 25.4628 67.8468C24.9408 67.4374 24.6867 67.224 24.4325 67.0115C24.1842 66.803 23.9349 66.5953 23.4256 66.1946C23.0055 65.8648 22.7356 65.8169 22.3938 65.7564C21.9948 65.6851 21.5423 65.6051 20.9311 65.1258C20.3384 64.6601 20.1301 64.284 19.9461 63.9525C19.7872 63.6647 19.6487 63.4166 19.2111 63.0721C18.697 62.6675 18.437 62.4715 18.175 62.2746C17.9131 62.0766 17.6492 61.8777 17.1321 61.4712C16.6121 61.0627 16.357 60.8522 16.1019 60.6417C15.8516 60.4351 15.6004 60.2274 15.0901 59.8267C14.5934 59.4367 14.3256 59.2649 14.0578 59.0951C13.7754 58.9135 13.4834 58.7272 12.9498 58.3071C12.4958 57.95 12.2288 57.8538 11.9182 57.742C11.5785 57.6195 11.195 57.4804 10.6178 57.0273L11.2181 56.267C11.6721 56.623 11.9401 56.7203 12.2497 56.8321C12.5895 56.9546 12.9729 57.0927 13.5501 57.5467C14.0478 57.9377 14.3146 58.1085 14.5814 58.2794C14.8648 58.4599 15.1568 58.6463 15.6904 59.0654C16.2104 59.4748 16.4655 59.6844 16.7206 59.8959C16.9709 60.1025 17.2222 60.3092 17.7324 60.7108C18.2427 61.1115 18.5027 61.3075 18.7618 61.5026C19.0266 61.7025 19.2905 61.9014 19.8114 62.3118C20.4042 62.7765 20.6125 63.1526 20.7965 63.484C20.9554 63.7719 21.0939 64.02 21.5314 64.3645C21.9515 64.6943 22.2214 64.7422 22.5632 64.8027C22.9623 64.874 23.4157 64.954 24.0259 65.4333C24.5478 65.8428 24.8029 66.0562 25.0571 66.2696C25.3054 66.4772 25.5538 66.6858 26.0631 67.0865C26.6713 67.5638 26.8592 67.9767 27.0247 68.341C27.167 68.655 27.2813 68.9041 27.7023 69.2359C28.198 69.625 28.4571 69.7909 28.7327 69.9657C29.016 70.1452 29.3081 70.3316 29.8417 70.7517C30.3723 71.1689 30.6216 71.3968 30.8709 71.6257C31.1046 71.8411 31.3393 72.0574 31.838 72.4494C32.26 72.7802 32.5299 72.829 32.8707 72.8915C33.2688 72.9637 33.7203 73.0467 34.3305 73.526C34.9242 73.9926 35.1315 74.3706 35.3146 74.704C35.4725 74.9929 35.6091 75.242 36.0456 75.5854C36.5607 75.99 36.8207 76.187 37.0807 76.3859C37.3427 76.5838 37.6046 76.7837 38.1188 77.1873C38.6 77.5657 38.8668 77.7065 39.1502 77.856C39.4579 78.0192 39.7771 78.1882 40.3272 78.6199C40.8947 79.0652 41.1303 79.3842 41.3387 79.6644C41.5345 79.9291 41.7041 80.1588 42.1688 80.5236C42.6335 80.8884 42.8955 80.9992 43.1994 81.1284C43.5206 81.2645 43.8856 81.419 44.4512 81.8643C45.0099 82.3038 45.2416 82.5908 45.4675 82.8691C45.6673 83.1163 45.8553 83.35 46.3297 83.7216C46.8041 84.0942 47.0759 84.2253 47.3612 84.3632C47.6824 84.5177 48.0144 84.6779 48.5712 85.1155C49.066 85.5036 49.327 85.6657 49.6045 85.8366C49.8927 86.0142 50.1906 86.1977 50.7281 86.6207C51.3237 87.0893 51.5291 87.4721 51.7102 87.8094C51.8652 88.1002 51.9998 88.3512 52.4354 88.6937C52.9641 89.1089 53.2163 89.3301 53.4675 89.5532C53.7081 89.7656 53.9496 89.9781 54.4541 90.3749C54.9634 90.7746 55.2253 90.9648 55.4873 91.155C55.757 91.3501 56.0277 91.5461 56.5506 91.9575C56.9784 92.2941 57.2454 92.3526 57.5813 92.4267C57.9658 92.5115 58.4017 92.607 59.0042 93.0805C59.5426 93.5035 59.7909 93.7518 60.0304 93.9913C60.2603 94.2212 60.4775 94.4384 60.9713 94.8265C61.4641 95.2137 61.7271 95.3709 62.0056 95.5379C62.2986 95.7126 62.6014 95.8932 63.1417 96.3182C63.685 96.7451 63.9304 96.9991 64.1689 97.2455C64.3939 97.4782 64.6063 97.6984 65.0972 98.0835C65.653 98.5201 65.8886 98.8004 66.1184 99.0719C66.324 99.3162 66.5179 99.547 66.9952 99.9225C67.487 100.309 67.751 100.463 68.0314 100.627C68.3284 100.8 68.634 100.979 69.1783 101.407C69.6284 101.76 69.8678 102.111 70.0423 102.368C70.2981 102.743 70.3747 102.857 70.9409 102.862C71.3585 102.868 71.4101 102.792 71.5913 102.385C71.7384 102.055 71.9401 101.603 72.4554 101.197L74.4758 99.5951C74.995 99.1852 75.2682 98.9987 75.5424 98.8112C75.8029 98.6334 76.0624 98.4565 76.5554 98.0669C77.1213 97.6203 77.4973 97.4804 77.8287 97.3569C78.1319 97.244 78.3932 97.1475 78.8395 96.7947C79.3782 96.3703 79.6882 96.2022 79.9895 96.0399C80.2656 95.8902 80.528 95.7492 80.9995 95.377C81.4692 95.0058 81.6657 94.7823 81.8719 94.5463C82.0986 94.2881 82.333 94.0211 82.8736 93.5938C83.4122 93.1684 83.7223 92.9994 84.0226 92.8362C84.2996 92.6855 84.562 92.5425 85.0356 92.1694C85.5022 91.801 85.6929 91.5747 85.8943 91.3367C86.1181 91.0717 86.3506 90.7979 86.8941 90.3677C87.4386 89.9375 87.7612 89.7772 88.0732 89.6227C88.3531 89.4837 88.6175 89.3523 89.0832 88.985C89.5859 88.5876 89.8338 88.3856 90.0837 88.1835C90.3345 87.9795 90.5854 87.7755 91.0929 87.3753C91.5042 87.0495 91.6133 86.8047 91.7507 86.494C91.9125 86.131 92.0947 85.7187 92.6955 85.245L94.7169 83.6432C95.2352 83.2333 95.5093 83.0467 95.7844 82.8602C96.0449 82.6834 96.3035 82.5065 96.7965 82.1179C97.2797 81.736 97.4917 81.5232 97.7164 81.2969C97.9518 81.06 98.1949 80.8163 98.7238 80.3987C99.281 79.9578 99.6405 79.8063 99.9593 79.6721C100.259 79.5457 100.516 79.4376 100.971 79.078C101.436 78.7106 101.623 78.4833 101.821 78.2414C102.044 77.9716 102.273 77.692 102.82 77.2599C103.327 76.8596 103.583 76.6605 103.84 76.4633C104.095 76.2661 104.348 76.0699 104.855 75.6706C105.425 75.2211 105.807 75.086 106.145 74.9674C106.449 74.8603 106.712 74.7677 107.156 74.4187C107.695 73.9924 108.008 73.8243 108.31 73.6611C108.588 73.5114 108.851 73.3704 109.324 72.9972C109.819 72.6066 110.055 72.3958 110.289 72.1851C110.536 71.9646 110.783 71.7441 111.301 71.3342C111.758 70.9727 111.927 70.7492 112.122 70.4909C112.328 70.2181 112.561 69.9085 113.117 69.4696C113.619 69.0733 113.864 68.8683 114.109 68.6643C114.359 68.4545 114.61 68.2457 115.122 67.8406C115.662 67.4143 115.975 67.2472 116.279 67.0859C116.557 66.9381 116.819 66.799 117.291 66.4268C117.735 66.0749 117.889 65.8427 118.066 65.5737C118.262 65.2776 118.483 64.9419 119.051 64.4933C119.652 64.0196 120.095 63.935 120.487 63.861C120.823 63.7976 121.087 63.7476 121.501 63.4209C121.897 63.1076 121.989 62.8482 122.104 62.5201C122.237 62.1396 122.403 61.6673 123.02 61.18C123.574 60.7421 123.926 60.5838 124.235 60.4438C124.533 60.3096 124.788 60.1937 125.25 59.8303C125.821 59.3788 126.205 59.2437 126.544 59.1251C126.849 59.0171 127.113 58.9245 127.559 58.5736C127.988 58.2342 128.122 57.9875 128.276 57.702C128.456 57.371 128.658 56.9946 129.245 56.5325L129.847 57.2916C129.418 57.631 129.285 57.8768 129.131 58.1623C128.951 58.4942 128.748 58.8697 128.161 59.3337C127.59 59.7852 127.206 59.9202 126.867 60.0388C126.562 60.1469 126.298 60.2395 125.852 60.5904C125.299 61.0283 124.946 61.1866 124.637 61.3266C124.34 61.4608 124.084 61.5767 123.622 61.9402C123.227 62.2534 123.135 62.5128 123.02 62.841C122.886 63.2214 122.721 63.6938 122.103 64.182C121.502 64.6566 121.059 64.7402 120.668 64.8143C120.332 64.8777 120.068 64.9277 119.653 65.2544C119.209 65.6054 119.055 65.8385 118.878 66.1075C118.682 66.4036 118.462 66.7393 117.893 67.1879C117.352 67.6142 117.039 67.7813 116.736 67.9426C116.458 68.0904 116.196 68.2295 115.724 68.6027C115.222 68.999 114.977 69.204 114.732 69.408C114.482 69.6178 114.231 69.8266 113.719 70.2317C113.262 70.5932 113.093 70.8167 112.898 71.075C112.692 71.3478 112.459 71.6574 111.903 72.0963C111.408 72.4869 111.173 72.6977 110.938 72.9085C110.692 73.1289 110.445 73.3494 109.926 73.7583C109.387 74.1846 109.074 74.3527 108.771 74.5159C108.494 74.6657 108.231 74.8067 107.758 75.1798C107.188 75.6294 106.806 75.7644 106.468 75.8831C106.164 75.9901 105.9 76.0827 105.457 76.4317C104.948 76.8339 104.692 77.032 104.434 77.2312C104.18 77.4274 103.927 77.6237 103.422 78.0219C102.957 78.3893 102.77 78.6166 102.572 78.8585C102.349 79.1283 102.121 79.4079 101.573 79.84C101.016 80.2809 100.656 80.4324 100.338 80.5666C100.038 80.693 99.7809 80.8011 99.3268 81.1607C98.8436 81.5426 98.6306 81.7554 98.406 81.9817C98.1716 82.2186 97.9284 82.4633 97.3985 82.8799C96.8803 83.2898 96.6061 83.4764 96.331 83.6629C96.0705 83.8397 95.8119 84.0166 95.319 84.4052L93.2976 86.0071C92.8863 86.3319 92.7772 86.5778 92.6398 86.8885C92.478 87.2514 92.2958 87.6637 91.695 88.1374C91.1933 88.5338 90.9453 88.7358 90.6964 88.9379C90.4446 89.1419 90.1937 89.3458 89.6852 89.748C89.1407 90.1782 88.8181 90.3385 88.5061 90.493C88.2262 90.6321 87.9618 90.7634 87.4961 91.1308C87.0294 91.4991 86.8387 91.7255 86.6374 91.9634C86.4136 92.2284 86.1811 92.5022 85.6376 92.9324C85.0989 93.3578 84.7889 93.5268 84.4886 93.69C84.2115 93.8407 83.9491 93.9827 83.4756 94.3568C83.006 94.7281 82.8095 94.9515 82.6033 95.1875C82.3766 95.4458 82.1422 95.7127 81.6016 96.14C81.0639 96.5644 80.7529 96.7325 80.4516 96.8948C80.1755 97.0445 79.9141 97.1855 79.4416 97.5577C78.8757 98.0043 78.4996 98.1442 78.1683 98.2677C77.8651 98.3806 77.6037 98.4771 77.1574 98.8299C76.6392 99.2398 76.3651 99.4264 76.0909 99.6139C75.8304 99.7917 75.5718 99.9695 75.0779 100.358L73.0574 101.959C72.7307 102.217 72.609 102.491 72.4784 102.781C72.2699 103.245 72.0098 103.829 70.9521 103.827Z" fill="black"/>
<path d="M137.089 29.5634C137.482 29.3618 137.114 29.06 137.198 28.6286C137.325 28.2017 137.476 28.2392 137.603 27.8123C137.73 27.3854 137.73 27.3854 137.834 26.978C137.961 26.5511 137.874 26.5422 138.002 26.1153C138.129 25.6884 137.935 25.6464 138.063 25.2195C138.19 24.7926 138.234 24.7971 138.337 24.3898C138.464 23.9629 138.571 23.9958 138.699 23.5689C138.826 23.142 138.846 23.1661 138.953 22.7151C139.081 22.2882 139.081 22.2882 139.208 21.8613C139.336 21.4344 139.122 21.3685 139.249 20.9416C139.377 20.5147 139.396 20.5387 139.504 20.0878C139.632 19.6609 139.588 19.6564 139.696 19.2055C139.823 18.7786 139.823 18.7786 139.95 18.3517C140.078 17.9248 140.141 17.9533 140.249 17.5024C140.376 17.0755 140.376 17.0755 140.48 16.6681C140.607 16.2412 140.564 16.2367 140.691 15.8098C140.818 15.3829 140.862 15.3874 140.965 14.9801C141.093 14.5532 141.03 14.5247 141.133 14.1173C141.26 13.6904 141.11 13.653 141.237 13.2261C141.365 12.7992 141.579 12.8651 141.706 12.4382C141.833 12.0113 142.012 11.9856 141.763 11.5861C141.514 11.1865 141.344 11.125 140.928 11.3462C140.536 11.5479 140.698 11.6966 140.59 12.1475C140.463 12.5744 140.463 12.5744 140.335 13.0013C140.208 13.4282 140.251 13.4327 140.124 13.8596C139.997 14.2865 140.21 14.3524 140.107 14.7598C139.979 15.1867 139.892 15.1777 139.789 15.5851C139.661 16.012 139.554 15.979 139.427 16.4059C139.3 16.8328 139.513 16.8988 139.41 17.3061C139.282 17.733 139.195 17.7241 139.092 18.1314C138.964 18.5583 138.964 18.5583 138.837 18.9852C138.709 19.4121 138.646 19.3836 138.519 19.8105C138.391 20.2374 138.649 20.3078 138.521 20.7347C138.394 21.1616 138.2 21.1197 138.096 21.527C137.969 21.9539 137.969 21.9539 137.885 22.3853C137.801 22.8167 137.995 22.8586 137.888 23.3096C137.76 23.7365 137.59 23.675 137.482 24.1259C137.355 24.5528 137.442 24.5617 137.334 25.0127C137.207 25.4396 137.294 25.4485 137.187 25.8995C137.059 26.3264 136.996 26.2979 136.868 26.7248C136.741 27.1516 136.891 27.1891 136.808 27.6205C136.68 28.0474 136.554 27.9904 136.446 28.4413C136.338 28.8922 136.212 28.8352 136.302 29.2845C136.349 29.7293 136.697 29.7651 137.089 29.5634Z" fill="#202124"/>
<path d="M178.731 58.1544C178.965 57.7604 178.894 57.5771 178.499 57.3385C178.127 57.0803 178.13 57.5206 177.707 57.587C177.279 57.6971 177.247 57.5618 176.82 57.6719C176.392 57.7819 176.38 57.6707 175.933 57.7567C175.505 57.8667 175.485 57.8427 175.057 57.9527C174.63 58.0627 174.697 58.2896 174.269 58.3996C173.841 58.5096 173.798 58.2632 173.35 58.3492C172.923 58.4592 172.974 58.6185 172.526 58.7045C172.099 58.8145 172.087 58.7033 171.659 58.8133C171.231 58.9233 171.247 58.991 170.819 59.101C170.392 59.211 170.411 59.235 169.964 59.321C169.536 59.431 169.536 59.431 169.108 59.5411C168.681 59.6511 168.669 59.5399 168.241 59.6499C167.813 59.7599 167.813 59.7599 167.386 59.87C166.958 59.98 166.97 60.0912 166.542 60.2012C166.114 60.3112 166.087 60.1324 165.639 60.2184C165.211 60.3284 165.259 60.5313 164.831 60.6413C164.403 60.7513 164.372 60.6161 163.944 60.7261C163.516 60.8361 163.52 60.7926 163.073 60.8786C162.645 60.9886 162.625 60.9645 162.197 61.0746C161.77 61.1846 161.801 61.3198 161.373 61.4298C160.946 61.5399 160.756 61.2124 160.522 61.6063C160.288 62.0002 160.363 62.1399 160.778 62.4026C161.15 62.6608 161.15 62.4189 161.578 62.3089C162.006 62.1988 162.037 62.3341 162.465 62.224C162.893 62.114 162.83 61.8436 163.257 61.7335C163.685 61.6235 163.681 61.6671 164.109 61.5571C164.537 61.447 164.584 61.6499 165.012 61.5399C165.439 61.4298 165.439 61.4298 165.867 61.3198C166.295 61.2098 166.244 61.0505 166.671 60.9405C167.099 60.8305 167.099 60.8305 167.527 60.7205C167.955 60.6104 167.986 60.7457 168.414 60.6357C168.842 60.5256 168.826 60.458 169.254 60.348C169.681 60.238 169.677 60.2815 170.125 60.1956C170.553 60.0855 170.541 59.9743 170.969 59.8643C171.396 59.7543 171.463 59.9812 171.891 59.8711C172.319 59.7611 172.319 59.7611 172.747 59.6511C173.174 59.5411 173.143 59.4058 173.59 59.3198C174.018 59.2098 173.998 59.1858 174.426 59.0758C174.854 58.9657 174.921 59.1926 175.349 59.0826C175.776 58.9726 175.745 58.8373 176.173 58.7273C176.6 58.6173 176.585 58.5497 177.012 58.4397C177.44 58.3296 177.452 58.4408 177.915 58.4225C178.37 58.4915 178.521 58.5287 178.731 58.1544Z" fill="#202124"/>
<path d="M166.921 29.2427C166.985 28.7873 166.946 28.4972 166.491 28.4284C166.06 28.3401 166.051 28.6692 165.675 28.9385C165.322 29.1882 165.377 29.3039 165.024 29.5536C164.672 29.8034 164.632 29.7553 164.279 30.005C163.927 30.2548 163.966 30.3028 163.609 30.5962C163.257 30.8459 163.178 30.7498 162.825 30.9995C162.472 31.2492 162.472 31.2492 162.096 31.5185C161.743 31.7682 161.802 31.8403 161.426 32.1096C161.073 32.3594 161.152 32.4555 160.775 32.7248C160.422 32.9745 160.403 32.9505 160.026 33.2198C159.673 33.4695 159.693 33.4935 159.317 33.7628C158.964 34.0125 159.019 34.1282 158.666 34.3779C158.314 34.6277 158.195 34.4835 157.842 34.7332C157.49 34.9829 157.584 35.1467 157.232 35.3964C156.879 35.6461 156.819 35.5741 156.467 35.8238C156.114 36.0735 156.035 35.9774 155.682 36.2271C155.329 36.4769 155.385 36.5925 155.052 36.8663C154.699 37.116 154.6 36.9959 154.247 37.2456C153.895 37.4953 153.989 37.6591 153.637 37.9088C153.284 38.1585 153.146 37.9903 152.793 38.2401C152.44 38.4898 152.48 38.5379 152.103 38.8071C151.75 39.0569 151.454 38.9384 151.389 39.3938C151.325 39.8492 151.495 40.1526 151.95 40.2214C152.382 40.3098 152.311 39.8845 152.668 39.5912C153.021 39.3415 152.961 39.2694 153.338 39.0001C153.691 38.7504 153.691 38.7504 154.047 38.457C154.4 38.2073 154.42 38.2313 154.773 37.9816C155.125 37.7319 155.086 37.6838 155.463 37.4145C155.815 37.1648 155.993 37.3811 156.346 37.1313C156.699 36.8816 156.584 36.6938 156.937 36.4441C157.29 36.1944 157.25 36.1463 157.627 35.877C157.979 35.6273 158.118 35.7955 158.47 35.5458C158.823 35.2961 158.803 35.272 159.18 35.0027C159.533 34.753 159.438 34.5893 159.791 34.3395C160.144 34.0898 160.203 34.1619 160.556 33.9122C160.908 33.6624 160.928 33.6865 161.281 33.4367C161.634 33.187 161.614 33.163 161.99 32.8937C162.367 32.6244 162.363 32.668 162.739 32.3987C163.092 32.149 163.112 32.173 163.465 31.9233C163.817 31.6735 163.798 31.6495 164.174 31.3802C164.527 31.1305 164.527 31.1305 164.904 30.8612C165.256 30.6115 165.197 30.5394 165.554 30.2461C165.907 29.9963 165.926 30.0204 166.319 29.8187C166.75 29.6651 166.857 29.6981 166.921 29.2427Z" fill="#202124"/>
</svg>
