<svg width="315" height="42" viewBox="0 0 315 42" fill="none" xmlns="http://www.w3.org/2000/svg">
<path d="M0 2.11121C0 1.00664 0.895431 0.111206 2 0.111206H313C314.105 0.111206 315 1.00664 315 2.11121V39.1112C315 40.2158 314.105 41.1112 313 41.1112H2C0.89543 41.1112 0 40.2158 0 39.1112V2.11121Z" fill="white"/>
<path d="M23 13.6112C21.2969 13.6112 20.0742 14.1073 19.5 15.6112C19.4934 15.627 19.4604 15.7071 19.4189 15.8086C19.3002 16.0987 19.4462 16.4074 19.744 16.5055C19.9906 16.5866 20.2635 16.4966 20.4056 16.2794C20.4834 16.1604 20.4923 16.1381 20.4994 16.1168C20.4998 16.1157 20.5 16.1145 20.5 16.1133C20.5 16.1119 20.5003 16.1105 20.5008 16.1092C20.9345 14.9858 21.7156 14.6112 23 14.6112C24.6641 14.6112 26 15.9471 26 17.6112V18.6112H18.5C17.6758 18.6112 17 19.287 17 20.1112V25.1112C17 25.9354 17.6758 26.6112 18.5 26.6112H27.5C28.3242 26.6112 29 25.9354 29 25.1112V20.1112C29 19.287 28.3242 18.6112 27.5 18.6112H27V17.6112C27 15.4081 25.2031 13.6112 23 13.6112ZM18.5 19.6112H27.5C27.7812 19.6112 28 19.83 28 20.1112V25.1112C28 25.3925 27.7812 25.6112 27.5 25.6112H18.5C18.2188 25.6112 18 25.3925 18 25.1112V20.1112C18 19.83 18.2188 19.6112 18.5 19.6112Z" fill="#202124"/>
<path d="M50.4091 26.6112V14.9748H51.8182V25.3612H57.2273V26.6112H50.4091ZM62.7727 26.793C61.9848 26.793 61.2936 26.6055 60.6989 26.2305C60.108 25.8555 59.6458 25.3309 59.3125 24.6567C58.983 23.9824 58.8182 23.1945 58.8182 22.293C58.8182 21.3839 58.983 20.5904 59.3125 19.9123C59.6458 19.2343 60.108 18.7078 60.6989 18.3328C61.2936 17.9578 61.9848 17.7703 62.7727 17.7703C63.5606 17.7703 64.25 17.9578 64.8409 18.3328C65.4356 18.7078 65.8977 19.2343 66.2273 19.9123C66.5606 20.5904 66.7273 21.3839 66.7273 22.293C66.7273 23.1945 66.5606 23.9824 66.2273 24.6567C65.8977 25.3309 65.4356 25.8555 64.8409 26.2305C64.25 26.6055 63.5606 26.793 62.7727 26.793ZM62.7727 25.5885C63.3712 25.5885 63.8636 25.4351 64.25 25.1283C64.6364 24.8214 64.9223 24.418 65.108 23.918C65.2936 23.418 65.3864 22.8764 65.3864 22.293C65.3864 21.7097 65.2936 21.1661 65.108 20.6623C64.9223 20.1586 64.6364 19.7514 64.25 19.4408C63.8636 19.1301 63.3712 18.9748 62.7727 18.9748C62.1742 18.9748 61.6818 19.1301 61.2955 19.4408C60.9091 19.7514 60.6231 20.1586 60.4375 20.6623C60.2519 21.1661 60.1591 21.7097 60.1591 22.293C60.1591 22.8764 60.2519 23.418 60.4375 23.918C60.6231 24.418 60.9091 24.8214 61.2955 25.1283C61.6818 25.4351 62.1742 25.5885 62.7727 25.5885ZM72.2969 30.0658C71.6491 30.0658 71.0923 29.9824 70.6264 29.8158C70.1605 29.6529 69.7723 29.437 69.4616 29.168C69.1548 28.9029 68.9105 28.6188 68.7287 28.3158L69.7969 27.5658C69.9181 27.7248 70.0715 27.9067 70.2571 28.1112C70.4427 28.3195 70.6965 28.4995 71.0185 28.651C71.3442 28.8063 71.7704 28.8839 72.2969 28.8839C73.0014 28.8839 73.5829 28.7135 74.0412 28.3726C74.4995 28.0317 74.7287 27.4976 74.7287 26.7703V24.9976H74.6151C74.5166 25.1567 74.3764 25.3536 74.1946 25.5885C74.0166 25.8195 73.759 26.026 73.4219 26.2078C73.0885 26.3858 72.6378 26.4748 72.0696 26.4748C71.3651 26.4748 70.7325 26.3082 70.1719 25.9748C69.6151 25.6415 69.1738 25.1567 68.848 24.5203C68.526 23.8839 68.3651 23.1112 68.3651 22.2021C68.3651 21.3082 68.5223 20.5298 68.8366 19.8669C69.151 19.2002 69.5885 18.6851 70.1491 18.3214C70.7098 17.954 71.3575 17.7703 72.0923 17.7703C72.6605 17.7703 73.1113 17.865 73.4446 18.0544C73.7817 18.24 74.0393 18.4521 74.2173 18.6908C74.3991 18.9256 74.5393 19.1188 74.6378 19.2703H74.7741V17.8839H76.0696V26.8612C76.0696 27.6112 75.8991 28.2211 75.5582 28.6908C75.2211 29.1642 74.7666 29.5108 74.1946 29.7305C73.6264 29.954 72.9938 30.0658 72.2969 30.0658ZM72.2514 25.2703C72.7893 25.2703 73.2438 25.1472 73.6151 24.901C73.9863 24.6548 74.2685 24.3006 74.4616 23.8385C74.6548 23.3764 74.7514 22.8233 74.7514 22.1794C74.7514 21.5506 74.6567 20.9957 74.4673 20.5146C74.2779 20.0336 73.9976 19.6567 73.6264 19.3839C73.2552 19.1112 72.7969 18.9748 72.2514 18.9748C71.6832 18.9748 71.2098 19.1188 70.831 19.4067C70.456 19.6945 70.1738 20.0809 69.9844 20.5658C69.7988 21.0506 69.706 21.5885 69.706 22.1794C69.706 22.7854 69.8007 23.3214 69.9901 23.7873C70.1832 24.2495 70.4673 24.6131 70.8423 24.8783C71.2211 25.1396 71.6908 25.2703 72.2514 25.2703ZM78.5241 26.6112V17.8839H79.8651V26.6112H78.5241ZM79.206 16.4294C78.9446 16.4294 78.7192 16.3404 78.5298 16.1623C78.3442 15.9843 78.2514 15.7703 78.2514 15.5203C78.2514 15.2703 78.3442 15.0563 78.5298 14.8783C78.7192 14.7002 78.9446 14.6112 79.206 14.6112C79.4673 14.6112 79.6908 14.7002 79.8764 14.8783C80.0658 15.0563 80.1605 15.2703 80.1605 15.5203C80.1605 15.7703 80.0658 15.9843 79.8764 16.1623C79.6908 16.3404 79.4673 16.4294 79.206 16.4294ZM83.6619 21.3612V26.6112H82.321V17.8839H83.6165V19.2476H83.7301C83.9347 18.8044 84.2453 18.4483 84.6619 18.1794C85.0786 17.9067 85.6165 17.7703 86.2756 17.7703C86.8665 17.7703 87.3835 17.8915 87.8267 18.1339C88.2699 18.3726 88.6146 18.7362 88.8608 19.2248C89.107 19.7097 89.2301 20.3233 89.2301 21.0658V26.6112H87.8892V21.1567C87.8892 20.4711 87.7112 19.937 87.3551 19.5544C86.9991 19.168 86.5104 18.9748 85.8892 18.9748C85.4612 18.9748 85.0786 19.0676 84.7415 19.2533C84.4081 19.4389 84.1449 19.7097 83.9517 20.0658C83.7585 20.4218 83.6619 20.8536 83.6619 21.3612ZM98.1577 26.6112L95.4986 17.8839H96.9077L98.794 24.5658H98.8849L100.749 17.8839H102.18L104.021 24.543H104.112L105.999 17.8839H107.408L104.749 26.6112H103.43L101.521 19.9067H101.385L99.4759 26.6112H98.1577ZM109.18 26.6112V17.8839H110.521V26.6112H109.18ZM109.862 16.4294C109.601 16.4294 109.375 16.3404 109.186 16.1623C109 15.9843 108.908 15.7703 108.908 15.5203C108.908 15.2703 109 15.0563 109.186 14.8783C109.375 14.7002 109.601 14.6112 109.862 14.6112C110.124 14.6112 110.347 14.7002 110.533 14.8783C110.722 15.0563 110.817 15.2703 110.817 15.5203C110.817 15.7703 110.722 15.9843 110.533 16.1623C110.347 16.3404 110.124 16.4294 109.862 16.4294ZM116.773 17.8839V19.0203H112.25V17.8839H116.773ZM113.568 15.793H114.909V24.1112C114.909 24.49 114.964 24.7741 115.074 24.9635C115.188 25.1491 115.331 25.2741 115.506 25.3385C115.684 25.3991 115.871 25.4294 116.068 25.4294C116.216 25.4294 116.337 25.4218 116.432 25.4067C116.527 25.3877 116.602 25.3726 116.659 25.3612L116.932 26.5658C116.841 26.5998 116.714 26.6339 116.551 26.668C116.388 26.7059 116.182 26.7248 115.932 26.7248C115.553 26.7248 115.182 26.6434 114.818 26.4805C114.458 26.3176 114.159 26.0695 113.92 25.7362C113.686 25.4029 113.568 24.9824 113.568 24.4748V15.793ZM120.318 21.3612V26.6112H118.977V14.9748H120.318V19.2476H120.432C120.636 18.7968 120.943 18.4389 121.352 18.1737C121.765 17.9048 122.314 17.7703 123 17.7703C123.595 17.7703 124.116 17.8896 124.562 18.1283C125.009 18.3631 125.356 18.7248 125.602 19.2135C125.852 19.6983 125.977 20.3158 125.977 21.0658V26.6112H124.636V21.1567C124.636 20.4635 124.456 19.9275 124.097 19.5487C123.741 19.1661 123.246 18.9748 122.614 18.9748C122.174 18.9748 121.78 19.0676 121.432 19.2533C121.087 19.4389 120.814 19.7097 120.614 20.0658C120.417 20.4218 120.318 20.8536 120.318 21.3612ZM139.476 17.8839C139.408 17.3082 139.131 16.8612 138.646 16.543C138.161 16.2248 137.567 16.0658 136.862 16.0658C136.347 16.0658 135.896 16.1491 135.51 16.3158C135.127 16.4824 134.828 16.7116 134.612 17.0033C134.4 17.2949 134.294 17.6264 134.294 17.9976C134.294 18.3082 134.368 18.5752 134.516 18.7987C134.667 19.0184 134.86 19.2021 135.095 19.3498C135.33 19.4938 135.576 19.6131 135.834 19.7078C136.091 19.7987 136.328 19.8726 136.544 19.9294L137.726 20.2476C138.029 20.3271 138.366 20.437 138.737 20.5771C139.112 20.7173 139.47 20.9086 139.811 21.151C140.156 21.3896 140.44 21.6964 140.663 22.0714C140.887 22.4464 140.999 22.9067 140.999 23.4521C140.999 24.0809 140.834 24.6491 140.504 25.1567C140.179 25.6642 139.701 26.0676 139.072 26.3669C138.447 26.6661 137.688 26.8158 136.794 26.8158C135.961 26.8158 135.239 26.6813 134.629 26.4123C134.023 26.1434 133.546 25.7684 133.197 25.2873C132.853 24.8063 132.658 24.2476 132.612 23.6112H134.067C134.105 24.0506 134.252 24.4142 134.51 24.7021C134.771 24.9862 135.101 25.1983 135.499 25.3385C135.9 25.4748 136.332 25.543 136.794 25.543C137.332 25.543 137.815 25.4559 138.243 25.2817C138.671 25.1036 139.01 24.8574 139.26 24.543C139.51 24.2248 139.635 23.8536 139.635 23.4294C139.635 23.043 139.527 22.7286 139.311 22.4862C139.095 22.2438 138.811 22.0468 138.459 21.8953C138.107 21.7438 137.726 21.6112 137.317 21.4976L135.885 21.0885C134.976 20.8271 134.256 20.454 133.726 19.9692C133.196 19.4843 132.93 18.8498 132.93 18.0658C132.93 17.4142 133.107 16.8461 133.459 16.3612C133.815 15.8726 134.292 15.4938 134.891 15.2248C135.493 14.9521 136.165 14.8158 136.908 14.8158C137.658 14.8158 138.324 14.9502 138.908 15.2192C139.491 15.4843 139.953 15.8479 140.294 16.3101C140.639 16.7722 140.821 17.2968 140.839 17.8839H139.476ZM149.679 17.8839C149.611 17.3082 149.334 16.8612 148.849 16.543C148.365 16.2248 147.77 16.0658 147.065 16.0658C146.55 16.0658 146.099 16.1491 145.713 16.3158C145.33 16.4824 145.031 16.7116 144.815 17.0033C144.603 17.2949 144.497 17.6264 144.497 17.9976C144.497 18.3082 144.571 18.5752 144.719 18.7987C144.87 19.0184 145.063 19.2021 145.298 19.3498C145.533 19.4938 145.779 19.6131 146.037 19.7078C146.295 19.7987 146.531 19.8726 146.747 19.9294L147.929 20.2476C148.232 20.3271 148.569 20.437 148.94 20.5771C149.315 20.7173 149.673 20.9086 150.014 21.151C150.359 21.3896 150.643 21.6964 150.866 22.0714C151.09 22.4464 151.202 22.9067 151.202 23.4521C151.202 24.0809 151.037 24.6491 150.707 25.1567C150.382 25.6642 149.904 26.0676 149.276 26.3669C148.651 26.6661 147.891 26.8158 146.997 26.8158C146.164 26.8158 145.442 26.6813 144.832 26.4123C144.226 26.1434 143.749 25.7684 143.401 25.2873C143.056 24.8063 142.861 24.2476 142.815 23.6112H144.27C144.308 24.0506 144.455 24.4142 144.713 24.7021C144.974 24.9862 145.304 25.1983 145.702 25.3385C146.103 25.4748 146.535 25.543 146.997 25.543C147.535 25.543 148.018 25.4559 148.446 25.2817C148.874 25.1036 149.213 24.8574 149.463 24.543C149.713 24.2248 149.838 23.8536 149.838 23.4294C149.838 23.043 149.73 22.7286 149.514 22.4862C149.298 22.2438 149.014 22.0468 148.662 21.8953C148.31 21.7438 147.929 21.6112 147.52 21.4976L146.088 21.0885C145.179 20.8271 144.459 20.454 143.929 19.9692C143.399 19.4843 143.134 18.8498 143.134 18.0658C143.134 17.4142 143.31 16.8461 143.662 16.3612C144.018 15.8726 144.495 15.4938 145.094 15.2248C145.696 14.9521 146.368 14.8158 147.111 14.8158C147.861 14.8158 148.527 14.9502 149.111 15.2192C149.694 15.4843 150.156 15.8479 150.497 16.3101C150.842 16.7722 151.024 17.2968 151.043 17.8839H149.679ZM163.337 20.793C163.337 22.0203 163.115 23.0809 162.672 23.9748C162.229 24.8688 161.621 25.5582 160.848 26.043C160.075 26.5279 159.193 26.7703 158.2 26.7703C157.208 26.7703 156.325 26.5279 155.553 26.043C154.78 25.5582 154.172 24.8688 153.729 23.9748C153.286 23.0809 153.064 22.0203 153.064 20.793C153.064 19.5658 153.286 18.5051 153.729 17.6112C154.172 16.7173 154.78 16.0279 155.553 15.543C156.325 15.0582 157.208 14.8158 158.2 14.8158C159.193 14.8158 160.075 15.0582 160.848 15.543C161.621 16.0279 162.229 16.7173 162.672 17.6112C163.115 18.5051 163.337 19.5658 163.337 20.793ZM161.973 20.793C161.973 19.7854 161.804 18.9351 161.467 18.2419C161.134 17.5487 160.681 17.0241 160.109 16.668C159.541 16.312 158.905 16.1339 158.2 16.1339C157.496 16.1339 156.857 16.312 156.286 16.668C155.717 17.0241 155.265 17.5487 154.928 18.2419C154.594 18.9351 154.428 19.7854 154.428 20.793C154.428 21.8006 154.594 22.651 154.928 23.3442C155.265 24.0373 155.717 24.562 156.286 24.918C156.857 25.2741 157.496 25.4521 158.2 25.4521C158.905 25.4521 159.541 25.2741 160.109 24.918C160.681 24.562 161.134 24.0373 161.467 23.3442C161.804 22.651 161.973 21.8006 161.973 20.793Z" fill="#202124"/>
<path d="M2 1.11121H313V-0.888794H2V1.11121ZM314 2.11121V39.1112H316V2.11121H314ZM313 40.1112H2V42.1112H313V40.1112ZM1 39.1112V2.11121H-1V39.1112H1ZM2 40.1112C1.44772 40.1112 1 39.6635 1 39.1112H-1C-1 40.7681 0.343146 42.1112 2 42.1112V40.1112ZM314 39.1112C314 39.6635 313.552 40.1112 313 40.1112V42.1112C314.657 42.1112 316 40.7681 316 39.1112H314ZM313 1.11121C313.552 1.11121 314 1.55892 314 2.11121H316C316 0.454352 314.657 -0.888794 313 -0.888794V1.11121ZM2 -0.888794C0.343145 -0.888794 -1 0.454353 -1 2.11121H1C1 1.55892 1.44772 1.11121 2 1.11121V-0.888794Z" fill="#E4E5E7"/>
</svg>
