<svg width="14" height="14" viewBox="0 0 12 13" fill="none" xmlns="http://www.w3.org/2000/svg">
<path fill-rule="evenodd" clip-rule="evenodd" d="M10.6042 21.5231C4.87343 21.5231 0.227722 16.8774 0.227722 11.1466C0.227722 5.41584 4.87343 0.770136 10.6042 0.770136C16.335 0.770136 20.9807 5.41584 20.9807 11.1466C20.9807 16.8774 16.335 21.5231 10.6042 21.5231ZM10.6038 3.47709C6.36807 3.47709 2.93429 6.91087 2.93429 11.1466C2.93429 15.3824 6.36807 18.8162 10.6038 18.8162C14.8396 18.8162 18.2734 15.3824 18.2734 11.1466C18.2734 6.91087 14.8396 3.47709 10.6038 3.47709Z" fill="#28A745"/>
<path fill-rule="evenodd" clip-rule="evenodd" d="M10.604 19.217C6.14677 19.217 2.53345 15.6037 2.53345 11.1465C2.53345 6.68919 6.14677 3.07587 10.604 3.07587C15.0613 3.07587 18.6746 6.68919 18.6746 11.1465C18.6746 15.6037 15.0613 19.217 10.604 19.217ZM10.6044 5.73702C7.61654 5.73702 5.19442 8.15913 5.19442 11.147C5.19442 14.1348 7.61654 16.5569 10.6044 16.5569C13.5922 16.5569 16.0143 14.1348 16.0143 11.147C16.0143 8.15913 13.5922 5.73702 10.6044 5.73702Z" fill="#FFDA2D"/>
<path fill-rule="evenodd" clip-rule="evenodd" d="M10.6042 16.9115C7.42042 16.9115 4.83948 14.3306 4.83948 11.1468C4.83948 7.96304 7.42042 5.38209 10.6042 5.38209C13.7879 5.38209 16.3689 7.96304 16.3689 11.1468C16.3689 14.3306 13.7879 16.9115 10.6042 16.9115ZM10.6044 7.9635C8.84616 7.9635 7.42086 9.38879 7.42086 11.147C7.42086 12.9052 8.84616 14.3305 10.6044 14.3305C12.3626 14.3305 13.7879 12.9052 13.7879 11.147C13.7879 9.38879 12.3626 7.9635 10.6044 7.9635Z" fill="#DD3646"/>
</svg>
