<svg width="274" height="48" viewBox="0 0 274 48" fill="none" xmlns="http://www.w3.org/2000/svg">
<path d="M50.4987 38H56.4151L61.8689 19.2274H62.0932L67.5609 38H73.4773L81.693 9.28727H75.0616L70.3088 29.2796H70.0565L64.8271 9.28727H59.149L53.9056 29.2376H53.6672L48.9145 9.28727H42.2831L50.4987 38Z" fill="#292929"/>
<path d="M94.6532 38.4206C101.186 38.4206 105.252 33.9483 105.252 27.3168C105.252 20.6434 101.186 16.1851 94.6532 16.1851C88.12 16.1851 84.0542 20.6434 84.0542 27.3168C84.0542 33.9483 88.12 38.4206 94.6532 38.4206ZM94.6813 33.794C91.667 33.794 90.1248 31.0321 90.1248 27.2748C90.1248 23.5175 91.667 20.7415 94.6813 20.7415C97.6395 20.7415 99.1816 23.5175 99.1816 27.2748C99.1816 31.0321 97.6395 33.794 94.6813 33.794Z" fill="#292929"/>
<path d="M109.923 38H115.896V25.8167C115.896 23.167 117.831 21.3444 120.466 21.3444C121.294 21.3444 122.429 21.4846 122.99 21.6668V16.3673C122.457 16.2411 121.714 16.157 121.111 16.157C118.7 16.157 116.723 17.559 115.938 20.2228H115.714V16.4655H109.923V38Z" fill="#292929"/>
<path d="M126.923 38H132.896V31.1583L134.508 29.3217L140.383 38H147.378L138.981 25.7887L146.972 16.4655H140.116L133.218 24.639H132.896V9.28727H126.923V38Z" fill="#292929"/>
<path d="M154.985 38L157.116 31.4527H167.476L169.607 38H176.113L166.215 9.28727H158.391L148.479 38H154.985ZM158.658 26.714L162.191 15.8486H162.415L165.948 26.714H158.658Z" fill="#292929"/>
<path d="M197.841 22.6062C197.308 18.6385 194.112 16.1851 188.672 16.1851C183.162 16.1851 179.531 18.7367 179.545 22.8866C179.531 26.1111 181.564 28.2001 185.77 29.0413L189.499 29.7843C191.378 30.1629 192.233 30.8499 192.261 31.9294C192.233 33.2052 190.845 34.1165 188.756 34.1165C186.625 34.1165 185.209 33.2052 184.844 31.4527L178.97 31.7612C179.531 35.883 183.036 38.4206 188.742 38.4206C194.322 38.4206 198.318 35.5746 198.332 31.3265C198.318 28.2141 196.285 26.3495 192.107 25.4943L188.209 24.7091C186.204 24.2745 185.461 23.5876 185.475 22.5501C185.461 21.2603 186.919 20.4191 188.77 20.4191C190.845 20.4191 192.079 21.5547 192.373 22.9426L197.841 22.6062Z" fill="#292929"/>
<path d="M220.841 22.6062C220.308 18.6385 217.112 16.1851 211.672 16.1851C206.162 16.1851 202.531 18.7367 202.545 22.8866C202.531 26.1111 204.564 28.2001 208.77 29.0413L212.499 29.7843C214.378 30.1629 215.233 30.8499 215.261 31.9294C215.233 33.2052 213.845 34.1165 211.756 34.1165C209.625 34.1165 208.209 33.2052 207.844 31.4527L201.97 31.7612C202.531 35.883 206.036 38.4206 211.742 38.4206C217.322 38.4206 221.318 35.5746 221.332 31.3265C221.318 28.2141 219.285 26.3495 215.107 25.4943L211.209 24.7091C209.204 24.2745 208.461 23.5876 208.475 22.5501C208.461 21.2603 209.919 20.4191 211.77 20.4191C213.845 20.4191 215.079 21.5547 215.373 22.9426L220.841 22.6062Z" fill="#292929"/>
<path d="M225.923 38H231.896V16.4655H225.923V38ZM228.924 13.6895C230.704 13.6895 232.162 12.3296 232.162 10.6612C232.162 9.00688 230.704 7.64694 228.924 7.64694C227.157 7.64694 225.699 9.00688 225.699 10.6612C225.699 12.3296 227.157 13.6895 228.924 13.6895Z" fill="#292929"/>
<path d="M254.841 22.6062C254.308 18.6385 251.112 16.1851 245.672 16.1851C240.162 16.1851 236.531 18.7367 236.545 22.8866C236.531 26.1111 238.564 28.2001 242.77 29.0413L246.499 29.7843C248.378 30.1629 249.233 30.8499 249.261 31.9294C249.233 33.2052 247.845 34.1165 245.756 34.1165C243.625 34.1165 242.209 33.2052 241.844 31.4527L235.97 31.7612C236.531 35.883 240.036 38.4206 245.742 38.4206C251.322 38.4206 255.318 35.5746 255.332 31.3265C255.318 28.2141 253.285 26.3495 249.107 25.4943L245.209 24.7091C243.204 24.2745 242.461 23.5876 242.475 22.5501C242.461 21.2603 243.919 20.4191 245.77 20.4191C247.845 20.4191 249.079 21.5547 249.373 22.9426L254.841 22.6062Z" fill="#292929"/>
<path d="M271.378 16.4655H267.326V11.3061H261.353V16.4655H258.409V20.9518H261.353V32.1677C261.325 36.3877 264.199 38.4767 268.532 38.2944C270.074 38.2383 271.167 37.9299 271.77 37.7336L270.831 33.2893C270.536 33.3454 269.906 33.4856 269.345 33.4856C268.153 33.4856 267.326 33.037 267.326 31.3826V20.9518H271.378V16.4655Z" fill="#292929"/>
<mask id="mask0" mask-type="alpha" maskUnits="userSpaceOnUse" x="0" y="7" width="31" height="33">
<rect y="39.48" width="31.96" height="30.4381" transform="rotate(-90 0 39.48)" fill="white"/>
</mask>
<g mask="url(#mask0)">
<path fill-rule="evenodd" clip-rule="evenodd" d="M27.9958 64.0703C12.8664 64.0703 0.601563 51.8055 0.601563 36.676C0.601563 21.5466 12.8664 9.28174 27.9958 9.28174C43.1253 9.28174 55.3901 21.5466 55.3901 36.676C55.3901 51.8055 43.1253 64.0703 27.9958 64.0703ZM27.9943 16.4283C16.8116 16.4283 7.74633 25.4936 7.74633 36.6762C7.74633 47.8588 16.8116 56.9242 27.9943 56.9242C39.1769 56.9242 48.2422 47.8588 48.2422 36.6762C48.2422 25.4936 39.1769 16.4283 27.9943 16.4283Z" fill="#28A745"/>
<path fill-rule="evenodd" clip-rule="evenodd" d="M27.9951 57.9824C16.2278 57.9824 6.68848 48.4431 6.68848 36.6758C6.68848 24.9084 16.2278 15.3691 27.9951 15.3691C39.7625 15.3691 49.3018 24.9084 49.3018 36.6758C49.3018 48.4431 39.7625 57.9824 27.9951 57.9824ZM27.9951 22.3933C20.1071 22.3933 13.7126 28.7878 13.7126 36.6758C13.7126 44.5638 20.1071 50.9583 27.9951 50.9583C35.8831 50.9583 42.2776 44.5638 42.2776 36.6758C42.2776 28.7878 35.8831 22.3933 27.9951 22.3933Z" fill="#FFDA2D"/>
<path fill-rule="evenodd" clip-rule="evenodd" d="M27.9944 51.8955C19.5892 51.8955 12.7754 45.0817 12.7754 36.6765C12.7754 28.2712 19.5892 21.4574 27.9944 21.4574C36.3997 21.4574 43.2135 28.2712 43.2135 36.6765C43.2135 45.0817 36.3997 51.8955 27.9944 51.8955ZM27.9949 28.2723C23.3532 28.2723 19.5904 32.0352 19.5904 36.6769C19.5904 41.3186 23.3532 45.0814 27.9949 45.0814C32.6366 45.0814 36.3995 41.3186 36.3995 36.6769C36.3995 32.0352 32.6366 28.2723 27.9949 28.2723Z" fill="#DD3646"/>
</g>
</svg>
