<svg width="201" height="25" viewBox="0 0 201 25" fill="none" xmlns="http://www.w3.org/2000/svg">
<path d="M38.7559 23.1107L32.532 1.35899H37.5557L41.1562 16.4726H41.3368L45.309 1.35899H49.6105L53.5721 16.5045H53.7633L57.3638 1.35899H62.3875L56.1637 23.1107H51.6816L47.5394 8.88926H47.3695L43.2379 23.1107H38.7559Z" fill="#292929"/>
<path d="M70.3825 23.4294C68.7327 23.4294 67.3059 23.0789 66.1022 22.3779C64.9056 21.6698 63.9816 20.6856 63.3302 19.4253C62.6787 18.1578 62.353 16.6886 62.353 15.0176C62.353 13.3324 62.6787 11.8596 63.3302 10.5992C63.9816 9.3318 64.9056 8.34759 66.1022 7.6466C67.3059 6.93854 68.7327 6.58451 70.3825 6.58451C72.0323 6.58451 73.4555 6.93854 74.6521 7.6466C75.8558 8.34759 76.7834 9.3318 77.4348 10.5992C78.0862 11.8596 78.4119 13.3324 78.4119 15.0176C78.4119 16.6886 78.0862 18.1578 77.4348 19.4253C76.7834 20.6856 75.8558 21.6698 74.6521 22.3779C73.4555 23.0789 72.0323 23.4294 70.3825 23.4294ZM70.4037 19.9245C71.1543 19.9245 71.7809 19.712 72.2836 19.2872C72.7864 18.8553 73.1652 18.2676 73.4201 17.5241C73.6821 16.7806 73.8131 15.9345 73.8131 14.9857C73.8131 14.0369 73.6821 13.1908 73.4201 12.4473C73.1652 11.7038 72.7864 11.1161 72.2836 10.6842C71.7809 10.2523 71.1543 10.0363 70.4037 10.0363C69.6461 10.0363 69.0088 10.2523 68.492 10.6842C67.9821 11.1161 67.5962 11.7038 67.3343 12.4473C67.0794 13.1908 66.9519 14.0369 66.9519 14.9857C66.9519 15.9345 67.0794 16.7806 67.3343 17.5241C67.5962 18.2676 67.9821 18.8553 68.492 19.2872C69.0088 19.712 69.6461 19.9245 70.4037 19.9245Z" fill="#292929"/>
<path d="M81.354 23.1107V6.79693H85.7404V9.64335H85.9104C86.2077 8.63082 86.7069 7.86611 87.4079 7.34922C88.1089 6.82525 88.9161 6.56327 89.8295 6.56327C90.0561 6.56327 90.3004 6.57743 90.5623 6.60575C90.8243 6.63407 91.0544 6.67302 91.2527 6.72258V10.7373C91.0403 10.6736 90.7464 10.6169 90.3712 10.5674C89.9959 10.5178 89.6525 10.493 89.3409 10.493C88.6753 10.493 88.0806 10.6382 87.5566 10.9285C87.0397 11.2117 86.629 11.6082 86.3246 12.118C86.0272 12.6278 85.8785 13.2155 85.8785 13.8811V23.1107H81.354Z" fill="#292929"/>
<path d="M97.6917 18.4163L97.7023 12.989H98.3608L103.586 6.79693H108.78L101.76 14.9963H100.687L97.6917 18.4163ZM93.592 23.1107V1.35899H98.1165V23.1107H93.592ZM103.788 23.1107L98.9874 16.0053L102.004 12.8084L109.088 23.1107H103.788Z" fill="#292929"/>
<path d="M114.834 23.1107H109.906L117.415 1.35899H123.341L130.84 23.1107H125.912L120.463 6.3296H120.293L114.834 23.1107ZM114.526 14.5609H126.166V18.1508H114.526V14.5609Z" fill="#292929"/>
<path d="M146.567 11.4489L142.425 11.7038C142.354 11.3498 142.202 11.0312 141.968 10.7479C141.734 10.4576 141.426 10.2275 141.044 10.0576C140.669 9.88055 140.219 9.79204 139.695 9.79204C138.994 9.79204 138.403 9.94074 137.921 10.2381C137.44 10.5284 137.199 10.9179 137.199 11.4064C137.199 11.7959 137.355 12.1251 137.666 12.3942C137.978 12.6632 138.513 12.8792 139.27 13.0421L142.223 13.6368C143.809 13.9625 144.991 14.4865 145.77 15.2087C146.549 15.931 146.938 16.8798 146.938 18.0552C146.938 19.1243 146.623 20.0625 145.993 20.8697C145.37 21.6769 144.513 22.3071 143.423 22.7603C142.34 23.2063 141.09 23.4294 139.674 23.4294C137.514 23.4294 135.794 22.9798 134.512 22.0805C133.237 21.1742 132.49 19.9422 132.271 18.3844L136.721 18.1508C136.856 18.8093 137.181 19.312 137.698 19.6589C138.215 19.9988 138.877 20.1687 139.684 20.1687C140.477 20.1687 141.115 20.0165 141.596 19.712C142.085 19.4005 142.333 19.0004 142.34 18.5119C142.333 18.1012 142.159 17.7649 141.819 17.5029C141.479 17.2338 140.955 17.0285 140.247 16.8869L137.422 16.3239C135.829 16.0053 134.643 15.453 133.864 14.6671C133.092 13.8811 132.706 12.8792 132.706 11.6613C132.706 10.6134 132.99 9.71061 133.556 8.95298C134.13 8.19536 134.933 7.6112 135.967 7.20052C137.008 6.78985 138.226 6.58451 139.621 6.58451C141.681 6.58451 143.303 7.01997 144.485 7.89089C145.675 8.76181 146.368 9.94782 146.567 11.4489Z" fill="#292929"/>
<path d="M163.361 11.4489L159.219 11.7038C159.148 11.3498 158.996 11.0312 158.762 10.7479C158.529 10.4576 158.221 10.2275 157.838 10.0576C157.463 9.88055 157.013 9.79204 156.489 9.79204C155.788 9.79204 155.197 9.94074 154.716 10.2381C154.234 10.5284 153.993 10.9179 153.993 11.4064C153.993 11.7959 154.149 12.1251 154.461 12.3942C154.772 12.6632 155.307 12.8792 156.065 13.0421L159.017 13.6368C160.603 13.9625 161.786 14.4865 162.565 15.2087C163.343 15.931 163.733 16.8798 163.733 18.0552C163.733 19.1243 163.418 20.0625 162.788 20.8697C162.165 21.6769 161.308 22.3071 160.217 22.7603C159.134 23.2063 157.884 23.4294 156.468 23.4294C154.309 23.4294 152.588 22.9798 151.306 22.0805C150.032 21.1742 149.285 19.9422 149.065 18.3844L153.516 18.1508C153.65 18.8093 153.976 19.312 154.493 19.6589C155.01 19.9988 155.672 20.1687 156.479 20.1687C157.272 20.1687 157.909 20.0165 158.391 19.712C158.879 19.4005 159.127 19.0004 159.134 18.5119C159.127 18.1012 158.953 17.7649 158.614 17.5029C158.274 17.2338 157.75 17.0285 157.042 16.8869L154.216 16.3239C152.623 16.0053 151.437 15.453 150.658 14.6671C149.887 13.8811 149.501 12.8792 149.501 11.6613C149.501 10.6134 149.784 9.71061 150.35 8.95298C150.924 8.19536 151.728 7.6112 152.761 7.20052C153.802 6.78985 155.02 6.58451 156.415 6.58451C158.476 6.58451 160.097 7.01997 161.279 7.89089C162.469 8.76181 163.163 9.94782 163.361 11.4489Z" fill="#292929"/>
<path d="M166.582 23.1107V6.79693H171.107V23.1107H166.582ZM168.865 4.69397C168.193 4.69397 167.616 4.47093 167.134 4.02485C166.653 3.57169 166.412 3.03002 166.412 2.39984C166.412 1.77675 166.653 1.24216 167.134 0.796076C167.616 0.342914 168.189 0.116333 168.855 0.116333C169.535 0.116333 170.112 0.342914 170.586 0.796076C171.068 1.24216 171.308 1.77675 171.308 2.39984C171.308 3.03002 171.068 3.57169 170.586 4.02485C170.112 4.47093 169.538 4.69397 168.865 4.69397Z" fill="#292929"/>
<path d="M188.305 11.4489L184.162 11.7038C184.092 11.3498 183.939 11.0312 183.706 10.7479C183.472 10.4576 183.164 10.2275 182.782 10.0576C182.406 9.88055 181.957 9.79204 181.433 9.79204C180.732 9.79204 180.141 9.94074 179.659 10.2381C179.178 10.5284 178.937 10.9179 178.937 11.4064C178.937 11.7959 179.093 12.1251 179.404 12.3942C179.716 12.6632 180.25 12.8792 181.008 13.0421L183.961 13.6368C185.547 13.9625 186.729 14.4865 187.508 15.2087C188.287 15.931 188.676 16.8798 188.676 18.0552C188.676 19.1243 188.361 20.0625 187.731 20.8697C187.108 21.6769 186.251 22.3071 185.161 22.7603C184.077 23.2063 182.828 23.4294 181.411 23.4294C179.252 23.4294 177.531 22.9798 176.25 22.0805C174.975 21.1742 174.228 19.9422 174.009 18.3844L178.459 18.1508C178.593 18.8093 178.919 19.312 179.436 19.6589C179.953 19.9988 180.615 20.1687 181.422 20.1687C182.215 20.1687 182.852 20.0165 183.334 19.712C183.822 19.4005 184.07 19.0004 184.077 18.5119C184.07 18.1012 183.897 17.7649 183.557 17.5029C183.217 17.2338 182.693 17.0285 181.985 16.8869L179.16 16.3239C177.567 16.0053 176.381 15.453 175.602 14.6671C174.83 13.8811 174.444 12.8792 174.444 11.6613C174.444 10.6134 174.727 9.71061 175.294 8.95298C175.867 8.19536 176.671 7.6112 177.705 7.20052C178.746 6.78985 179.964 6.58451 181.358 6.58451C183.419 6.58451 185.04 7.01997 186.223 7.89089C187.412 8.76181 188.106 9.94782 188.305 11.4489Z" fill="#292929"/>
<path d="M200.203 6.79693V10.1956H190.378V6.79693H200.203ZM192.609 2.88841H197.133V18.0976C197.133 18.5154 197.197 18.8411 197.324 19.0748C197.452 19.3014 197.629 19.4607 197.855 19.5527C198.089 19.6448 198.358 19.6908 198.663 19.6908C198.875 19.6908 199.087 19.6731 199.3 19.6377C199.512 19.5952 199.675 19.5633 199.788 19.5421L200.5 22.9089C200.273 22.9798 199.955 23.0612 199.544 23.1532C199.133 23.2524 198.634 23.3125 198.047 23.3338C196.956 23.3763 196 23.2311 195.179 22.8983C194.365 22.5655 193.731 22.0486 193.278 21.3477C192.825 20.6467 192.602 19.7616 192.609 18.6924V2.88841Z" fill="#292929"/>
<mask id="mask0" mask-type="alpha" maskUnits="userSpaceOnUse" x="0" y="0" width="24" height="25">
<rect x="0.5" y="24.5349" width="24.2118" height="23.0588" transform="rotate(-90 0.5 24.5349)" fill="white"/>
</mask>
<g mask="url(#mask0)">
<path fill-rule="evenodd" clip-rule="evenodd" d="M21.7085 43.1642C10.247 43.1642 0.955566 33.8728 0.955566 22.4112C0.955566 10.9497 10.247 1.65829 21.7085 1.65829C33.1701 1.65829 42.4615 10.9497 42.4615 22.4112C42.4615 33.8728 33.1701 43.1642 21.7085 43.1642ZM21.7074 7.07212C13.2358 7.07212 6.36825 13.9397 6.36825 22.4113C6.36825 30.8828 13.2358 37.7504 21.7074 37.7504C30.179 37.7504 37.0465 30.8828 37.0465 22.4113C37.0465 13.9397 30.179 7.07212 21.7074 7.07212Z" fill="#28A745"/>
<path fill-rule="evenodd" clip-rule="evenodd" d="M21.7078 38.5524C12.7933 38.5524 5.56665 31.3257 5.56665 22.4112C5.56665 13.4967 12.7933 6.27 21.7078 6.27C30.6224 6.27 37.849 13.4967 37.849 22.4112C37.849 31.3257 30.6224 38.5524 21.7078 38.5524ZM21.7082 11.5912C15.7325 11.5912 10.8882 16.4354 10.8882 22.4111C10.8882 28.3868 15.7325 33.231 21.7082 33.231C27.6838 33.231 32.5281 28.3868 32.5281 22.4111C32.5281 16.4354 27.6838 11.5912 21.7082 11.5912Z" fill="#FFDA2D"/>
<path fill-rule="evenodd" clip-rule="evenodd" d="M21.7081 33.9406C15.3406 33.9406 10.1787 28.7787 10.1787 22.4111C10.1787 16.0436 15.3406 10.8817 21.7081 10.8817C28.0756 10.8817 33.2375 16.0436 33.2375 22.4111C33.2375 28.7787 28.0756 33.9406 21.7081 33.9406ZM21.7079 16.0442C18.1915 16.0442 15.3409 18.8948 15.3409 22.4112C15.3409 25.9276 18.1915 28.7782 21.7079 28.7782C25.2243 28.7782 28.0749 25.9276 28.0749 22.4112C28.0749 18.8948 25.2243 16.0442 21.7079 16.0442Z" fill="#DD3646"/>
</g>
</svg>
